%TF.GenerationSoftware,KiCad,Pcbnew,7.0.10*%
%TF.CreationDate,2025-07-15T10:48:48-04:00*%
%TF.ProjectId,EMGauntlet,454d4761-756e-4746-9c65-742e6b696361,rev?*%
%TF.SameCoordinates,Original*%
%TF.FileFunction,Legend,Bot*%
%TF.FilePolarity,Positive*%
%FSLAX46Y46*%
G04 Gerber Fmt 4.6, Leading zero omitted, Abs format (unit mm)*
G04 Created by KiCad (PCBNEW 7.0.10) date 2025-07-15 10:48:48*
%MOMM*%
%LPD*%
G01*
G04 APERTURE LIST*
%ADD10C,0.300000*%
G04 APERTURE END LIST*
D10*
X179321427Y-96749757D02*
X179464285Y-96678328D01*
X179464285Y-96678328D02*
X179678570Y-96678328D01*
X179678570Y-96678328D02*
X179892856Y-96749757D01*
X179892856Y-96749757D02*
X180035713Y-96892614D01*
X180035713Y-96892614D02*
X180107142Y-97035471D01*
X180107142Y-97035471D02*
X180178570Y-97321185D01*
X180178570Y-97321185D02*
X180178570Y-97535471D01*
X180178570Y-97535471D02*
X180107142Y-97821185D01*
X180107142Y-97821185D02*
X180035713Y-97964042D01*
X180035713Y-97964042D02*
X179892856Y-98106900D01*
X179892856Y-98106900D02*
X179678570Y-98178328D01*
X179678570Y-98178328D02*
X179535713Y-98178328D01*
X179535713Y-98178328D02*
X179321427Y-98106900D01*
X179321427Y-98106900D02*
X179249999Y-98035471D01*
X179249999Y-98035471D02*
X179249999Y-97535471D01*
X179249999Y-97535471D02*
X179535713Y-97535471D01*
X178392856Y-96678328D02*
X178392856Y-97035471D01*
X178749999Y-96892614D02*
X178392856Y-97035471D01*
X178392856Y-97035471D02*
X178035713Y-96892614D01*
X178607142Y-97321185D02*
X178392856Y-97035471D01*
X178392856Y-97035471D02*
X178178570Y-97321185D01*
X177249999Y-96678328D02*
X177249999Y-97035471D01*
X177607142Y-96892614D02*
X177249999Y-97035471D01*
X177249999Y-97035471D02*
X176892856Y-96892614D01*
X177464285Y-97321185D02*
X177249999Y-97035471D01*
X177249999Y-97035471D02*
X177035713Y-97321185D01*
X176107142Y-96678328D02*
X176107142Y-97035471D01*
X176464285Y-96892614D02*
X176107142Y-97035471D01*
X176107142Y-97035471D02*
X175749999Y-96892614D01*
X176321428Y-97321185D02*
X176107142Y-97035471D01*
X176107142Y-97035471D02*
X175892856Y-97321185D01*
%TO.C,G\u002A\u002A\u002A*%
G36*
X178141223Y-91835376D02*
G01*
X177826818Y-92463025D01*
X176454097Y-92490630D01*
X176378812Y-92492221D01*
X175755808Y-92514533D01*
X175326026Y-92551934D01*
X175055456Y-92608804D01*
X174910086Y-92689524D01*
X174864383Y-92753405D01*
X174827559Y-92869121D01*
X174805664Y-93057251D01*
X174798808Y-93344123D01*
X174807100Y-93756065D01*
X174830652Y-94319405D01*
X174869573Y-95060470D01*
X174923974Y-96005590D01*
X174926820Y-96053810D01*
X174977461Y-96878333D01*
X175026835Y-97623622D01*
X175072655Y-98259412D01*
X175112635Y-98755438D01*
X175144487Y-99081434D01*
X175165923Y-99207136D01*
X175166440Y-99207611D01*
X175267401Y-99155234D01*
X175473968Y-98968163D01*
X175742040Y-98686269D01*
X176107999Y-98323643D01*
X176744120Y-97897728D01*
X177453905Y-97674801D01*
X178279348Y-97637508D01*
X178575848Y-97663349D01*
X179130891Y-97762143D01*
X179558636Y-97906308D01*
X179631305Y-97943681D01*
X180068597Y-98240984D01*
X180507479Y-98637887D01*
X180879077Y-99065786D01*
X181114518Y-99456077D01*
X181126238Y-99483814D01*
X181244795Y-99712447D01*
X181333325Y-99802823D01*
X181393673Y-99752375D01*
X181550348Y-99552881D01*
X181752272Y-99254659D01*
X181982215Y-98955285D01*
X182529757Y-98474301D01*
X183200620Y-98090918D01*
X183927324Y-97848755D01*
X184020636Y-97829128D01*
X184324053Y-97784614D01*
X184537841Y-97821899D01*
X184703989Y-97974837D01*
X184864487Y-98277284D01*
X185061321Y-98763094D01*
X185063616Y-98769017D01*
X185238787Y-99404350D01*
X185345547Y-100173794D01*
X185380181Y-100990743D01*
X185338973Y-101768589D01*
X185218208Y-102420724D01*
X185096694Y-102788983D01*
X184865706Y-103350423D01*
X184599460Y-103886909D01*
X184331384Y-104332904D01*
X184094908Y-104622873D01*
X184053717Y-104656310D01*
X183816603Y-104766916D01*
X183435206Y-104844276D01*
X182866422Y-104898044D01*
X181906512Y-104953738D01*
X180546960Y-104992005D01*
X179346001Y-104961830D01*
X178263350Y-104854747D01*
X177258720Y-104662287D01*
X176291827Y-104375981D01*
X175322384Y-103987364D01*
X174310105Y-103487966D01*
X173214705Y-102869319D01*
X172797852Y-102618953D01*
X172276267Y-102284606D01*
X171896609Y-101999770D01*
X171619961Y-101729855D01*
X171407406Y-101440270D01*
X171220026Y-101096427D01*
X171191596Y-101037937D01*
X171075252Y-100775539D01*
X170990188Y-100517608D01*
X170939852Y-100241565D01*
X170927692Y-99924827D01*
X170957157Y-99544812D01*
X171031696Y-99078940D01*
X171154755Y-98504629D01*
X171329784Y-97799297D01*
X171560231Y-96940364D01*
X171849545Y-95905246D01*
X172201173Y-94671364D01*
X173211230Y-91144009D01*
X175640440Y-91144009D01*
X175772449Y-91340324D01*
X176102466Y-91534401D01*
X176215394Y-91581503D01*
X176635508Y-91697526D01*
X177123242Y-91775467D01*
X177583243Y-91803068D01*
X177920159Y-91768071D01*
X178043203Y-91692356D01*
X178093341Y-91457735D01*
X178067314Y-91353399D01*
X177939682Y-91236092D01*
X177653636Y-91202374D01*
X177448065Y-91193333D01*
X177303555Y-91133743D01*
X177234161Y-90964358D01*
X177191818Y-90625102D01*
X177144564Y-90333915D01*
X177019533Y-90073335D01*
X176814718Y-90012263D01*
X176514624Y-90148639D01*
X176103755Y-90480401D01*
X175970621Y-90605186D01*
X175706483Y-90910586D01*
X175640440Y-91144009D01*
X173211230Y-91144009D01*
X173457467Y-90284091D01*
X175232145Y-89571407D01*
X175681991Y-89391091D01*
X176271930Y-89164107D01*
X176712608Y-89024674D01*
X177044836Y-88974754D01*
X177309427Y-89016307D01*
X177547194Y-89151291D01*
X177798949Y-89381668D01*
X178105505Y-89709398D01*
X178108331Y-89712464D01*
X178378772Y-90019980D01*
X178517957Y-90241006D01*
X178557590Y-90451767D01*
X178529376Y-90728489D01*
X178477372Y-90958900D01*
X178330464Y-91399989D01*
X178305365Y-91457735D01*
X178141223Y-91835376D01*
G37*
G36*
X193009090Y-112509091D02*
G01*
X178000000Y-112509091D01*
X162990909Y-112509091D01*
X162990909Y-99767676D01*
X170180455Y-99767676D01*
X170186510Y-99982273D01*
X170244214Y-100552053D01*
X170397415Y-101155285D01*
X170662630Y-101696513D01*
X171061442Y-102202210D01*
X171615434Y-102698849D01*
X172346188Y-103212903D01*
X173275289Y-103770844D01*
X173518933Y-103907955D01*
X174633612Y-104491488D01*
X175649274Y-104940205D01*
X176620768Y-105276300D01*
X177602941Y-105521968D01*
X178107356Y-105608784D01*
X179110643Y-105710776D01*
X180251309Y-105754256D01*
X181474849Y-105737759D01*
X182726760Y-105659818D01*
X182909884Y-105643751D01*
X183483031Y-105590353D01*
X183882844Y-105541084D01*
X184154365Y-105483847D01*
X184342637Y-105406544D01*
X184492699Y-105297075D01*
X184649595Y-105143344D01*
X184880357Y-104873076D01*
X185293595Y-104215280D01*
X185653783Y-103421906D01*
X185938642Y-102554940D01*
X186125895Y-101676370D01*
X186193263Y-100848182D01*
X186149891Y-100189209D01*
X186025442Y-99465669D01*
X185837113Y-98752180D01*
X185602146Y-98103942D01*
X185337782Y-97576156D01*
X185061263Y-97224023D01*
X184767478Y-97088793D01*
X184318083Y-97057105D01*
X183775736Y-97125741D01*
X183191653Y-97280924D01*
X182617050Y-97508874D01*
X182103145Y-97795814D01*
X181701154Y-98127966D01*
X181427259Y-98419514D01*
X180917260Y-97949413D01*
X180688805Y-97758941D01*
X180217239Y-97431740D01*
X179752039Y-97172157D01*
X179416993Y-97028682D01*
X179062363Y-96927180D01*
X178658669Y-96879798D01*
X178115454Y-96869826D01*
X177654034Y-96880532D01*
X177231887Y-96924858D01*
X176877802Y-97019759D01*
X176502900Y-97182465D01*
X176300429Y-97277846D01*
X175977788Y-97389043D01*
X175794772Y-97344113D01*
X175712530Y-97119543D01*
X175692208Y-96691819D01*
X175685547Y-96378320D01*
X175668725Y-95896337D01*
X175644320Y-95314956D01*
X175614896Y-94700228D01*
X175539820Y-93228182D01*
X176807512Y-93228182D01*
X176948536Y-93228060D01*
X177468241Y-93222295D01*
X177816109Y-93201807D01*
X178040591Y-93158236D01*
X178190140Y-93083223D01*
X178313209Y-92968410D01*
X178321678Y-92959079D01*
X178590421Y-92582299D01*
X178849676Y-92085147D01*
X179076568Y-91530674D01*
X179248223Y-90981931D01*
X179341768Y-90501966D01*
X179334327Y-90153831D01*
X179255840Y-89958791D01*
X179004708Y-89586748D01*
X178643369Y-89184831D01*
X178220799Y-88796528D01*
X177785977Y-88465328D01*
X177387880Y-88234717D01*
X177075485Y-88148182D01*
X176935700Y-88169881D01*
X176587781Y-88268407D01*
X176109112Y-88429780D01*
X175546953Y-88635555D01*
X174948566Y-88867287D01*
X174361214Y-89106531D01*
X173832157Y-89334842D01*
X173408657Y-89533776D01*
X173137975Y-89684886D01*
X173060099Y-89741094D01*
X172974309Y-89821457D01*
X172891288Y-89934902D01*
X172803774Y-90102451D01*
X172704508Y-90345123D01*
X172586229Y-90683939D01*
X172441676Y-91139921D01*
X172263589Y-91734088D01*
X172044706Y-92487461D01*
X171777768Y-93421062D01*
X171455514Y-94555910D01*
X171401627Y-94745995D01*
X171086297Y-95861949D01*
X170828761Y-96783321D01*
X170623496Y-97533718D01*
X170464983Y-98136748D01*
X170347701Y-98616020D01*
X170266128Y-98995140D01*
X170214743Y-99297718D01*
X170188026Y-99547360D01*
X170180455Y-99767676D01*
X162990909Y-99767676D01*
X162990909Y-97500000D01*
X162990909Y-82490910D01*
X178000000Y-82490910D01*
X193009090Y-82490910D01*
X193009090Y-97500000D01*
X193009090Y-100848182D01*
X193009090Y-112509091D01*
G37*
%TD*%
M02*
