%TF.GenerationSoftware,KiCad,Pcbnew,7.0.10*%
%TF.CreationDate,2025-07-15T10:48:53-04:00*%
%TF.ProjectId,EMGauntlet,454d4761-756e-4746-9c65-742e6b696361,rev?*%
%TF.SameCoordinates,Original*%
%TF.FileFunction,Drillmap*%
%TF.FilePolarity,Positive*%
%FSLAX45Y45*%
G04 Gerber Fmt 4.5, Leading zero omitted, Abs format (unit mm)*
G04 Created by KiCad (PCBNEW 7.0.10) date 2025-07-15 10:48:53*
%MOMM*%
%LPD*%
G01*
G04 APERTURE LIST*
%ADD10C,0.100000*%
%ADD11C,0.200000*%
G04 APERTURE END LIST*
D10*
X19400000Y-8150000D02*
X19400000Y-12350000D01*
X19400000Y-12350000D02*
X12900000Y-12350000D01*
X12900000Y-12350000D02*
X12900000Y-8150000D01*
X12900000Y-8150000D02*
X19400000Y-8150000D01*
D11*
D10*
X15628500Y-11649500D02*
X15693500Y-11714500D01*
X15693500Y-11649500D02*
X15628500Y-11714500D01*
X16206500Y-11649500D02*
X16271500Y-11714500D01*
X16271500Y-11649500D02*
X16206500Y-11714500D01*
D11*
X13155777Y-12666484D02*
X13155777Y-12466484D01*
X13155777Y-12466484D02*
X13203396Y-12466484D01*
X13203396Y-12466484D02*
X13231967Y-12476008D01*
X13231967Y-12476008D02*
X13251015Y-12495055D01*
X13251015Y-12495055D02*
X13260539Y-12514103D01*
X13260539Y-12514103D02*
X13270062Y-12552198D01*
X13270062Y-12552198D02*
X13270062Y-12580769D01*
X13270062Y-12580769D02*
X13260539Y-12618865D01*
X13260539Y-12618865D02*
X13251015Y-12637912D01*
X13251015Y-12637912D02*
X13231967Y-12656960D01*
X13231967Y-12656960D02*
X13203396Y-12666484D01*
X13203396Y-12666484D02*
X13155777Y-12666484D01*
X13355777Y-12666484D02*
X13355777Y-12533150D01*
X13355777Y-12571246D02*
X13365301Y-12552198D01*
X13365301Y-12552198D02*
X13374824Y-12542674D01*
X13374824Y-12542674D02*
X13393872Y-12533150D01*
X13393872Y-12533150D02*
X13412920Y-12533150D01*
X13479586Y-12666484D02*
X13479586Y-12533150D01*
X13479586Y-12466484D02*
X13470062Y-12476008D01*
X13470062Y-12476008D02*
X13479586Y-12485531D01*
X13479586Y-12485531D02*
X13489110Y-12476008D01*
X13489110Y-12476008D02*
X13479586Y-12466484D01*
X13479586Y-12466484D02*
X13479586Y-12485531D01*
X13603396Y-12666484D02*
X13584348Y-12656960D01*
X13584348Y-12656960D02*
X13574824Y-12637912D01*
X13574824Y-12637912D02*
X13574824Y-12466484D01*
X13708158Y-12666484D02*
X13689110Y-12656960D01*
X13689110Y-12656960D02*
X13679586Y-12637912D01*
X13679586Y-12637912D02*
X13679586Y-12466484D01*
X13936729Y-12666484D02*
X13936729Y-12466484D01*
X13936729Y-12466484D02*
X14003396Y-12609341D01*
X14003396Y-12609341D02*
X14070062Y-12466484D01*
X14070062Y-12466484D02*
X14070062Y-12666484D01*
X14251015Y-12666484D02*
X14251015Y-12561722D01*
X14251015Y-12561722D02*
X14241491Y-12542674D01*
X14241491Y-12542674D02*
X14222443Y-12533150D01*
X14222443Y-12533150D02*
X14184348Y-12533150D01*
X14184348Y-12533150D02*
X14165301Y-12542674D01*
X14251015Y-12656960D02*
X14231967Y-12666484D01*
X14231967Y-12666484D02*
X14184348Y-12666484D01*
X14184348Y-12666484D02*
X14165301Y-12656960D01*
X14165301Y-12656960D02*
X14155777Y-12637912D01*
X14155777Y-12637912D02*
X14155777Y-12618865D01*
X14155777Y-12618865D02*
X14165301Y-12599817D01*
X14165301Y-12599817D02*
X14184348Y-12590293D01*
X14184348Y-12590293D02*
X14231967Y-12590293D01*
X14231967Y-12590293D02*
X14251015Y-12580769D01*
X14346253Y-12533150D02*
X14346253Y-12733150D01*
X14346253Y-12542674D02*
X14365301Y-12533150D01*
X14365301Y-12533150D02*
X14403396Y-12533150D01*
X14403396Y-12533150D02*
X14422443Y-12542674D01*
X14422443Y-12542674D02*
X14431967Y-12552198D01*
X14431967Y-12552198D02*
X14441491Y-12571246D01*
X14441491Y-12571246D02*
X14441491Y-12628388D01*
X14441491Y-12628388D02*
X14431967Y-12647436D01*
X14431967Y-12647436D02*
X14422443Y-12656960D01*
X14422443Y-12656960D02*
X14403396Y-12666484D01*
X14403396Y-12666484D02*
X14365301Y-12666484D01*
X14365301Y-12666484D02*
X14346253Y-12656960D01*
X14527205Y-12647436D02*
X14536729Y-12656960D01*
X14536729Y-12656960D02*
X14527205Y-12666484D01*
X14527205Y-12666484D02*
X14517682Y-12656960D01*
X14517682Y-12656960D02*
X14527205Y-12647436D01*
X14527205Y-12647436D02*
X14527205Y-12666484D01*
X14527205Y-12542674D02*
X14536729Y-12552198D01*
X14536729Y-12552198D02*
X14527205Y-12561722D01*
X14527205Y-12561722D02*
X14517682Y-12552198D01*
X14517682Y-12552198D02*
X14527205Y-12542674D01*
X14527205Y-12542674D02*
X14527205Y-12561722D01*
D10*
X12830000Y-12962500D02*
X12895000Y-13027500D01*
X12895000Y-12962500D02*
X12830000Y-13027500D01*
D11*
X13193872Y-12886484D02*
X13212920Y-12886484D01*
X13212920Y-12886484D02*
X13231967Y-12896008D01*
X13231967Y-12896008D02*
X13241491Y-12905531D01*
X13241491Y-12905531D02*
X13251015Y-12924579D01*
X13251015Y-12924579D02*
X13260539Y-12962674D01*
X13260539Y-12962674D02*
X13260539Y-13010293D01*
X13260539Y-13010293D02*
X13251015Y-13048388D01*
X13251015Y-13048388D02*
X13241491Y-13067436D01*
X13241491Y-13067436D02*
X13231967Y-13076960D01*
X13231967Y-13076960D02*
X13212920Y-13086484D01*
X13212920Y-13086484D02*
X13193872Y-13086484D01*
X13193872Y-13086484D02*
X13174824Y-13076960D01*
X13174824Y-13076960D02*
X13165301Y-13067436D01*
X13165301Y-13067436D02*
X13155777Y-13048388D01*
X13155777Y-13048388D02*
X13146253Y-13010293D01*
X13146253Y-13010293D02*
X13146253Y-12962674D01*
X13146253Y-12962674D02*
X13155777Y-12924579D01*
X13155777Y-12924579D02*
X13165301Y-12905531D01*
X13165301Y-12905531D02*
X13174824Y-12896008D01*
X13174824Y-12896008D02*
X13193872Y-12886484D01*
X13346253Y-13067436D02*
X13355777Y-13076960D01*
X13355777Y-13076960D02*
X13346253Y-13086484D01*
X13346253Y-13086484D02*
X13336729Y-13076960D01*
X13336729Y-13076960D02*
X13346253Y-13067436D01*
X13346253Y-13067436D02*
X13346253Y-13086484D01*
X13527205Y-12886484D02*
X13489110Y-12886484D01*
X13489110Y-12886484D02*
X13470062Y-12896008D01*
X13470062Y-12896008D02*
X13460539Y-12905531D01*
X13460539Y-12905531D02*
X13441491Y-12934103D01*
X13441491Y-12934103D02*
X13431967Y-12972198D01*
X13431967Y-12972198D02*
X13431967Y-13048388D01*
X13431967Y-13048388D02*
X13441491Y-13067436D01*
X13441491Y-13067436D02*
X13451015Y-13076960D01*
X13451015Y-13076960D02*
X13470062Y-13086484D01*
X13470062Y-13086484D02*
X13508158Y-13086484D01*
X13508158Y-13086484D02*
X13527205Y-13076960D01*
X13527205Y-13076960D02*
X13536729Y-13067436D01*
X13536729Y-13067436D02*
X13546253Y-13048388D01*
X13546253Y-13048388D02*
X13546253Y-13000769D01*
X13546253Y-13000769D02*
X13536729Y-12981722D01*
X13536729Y-12981722D02*
X13527205Y-12972198D01*
X13527205Y-12972198D02*
X13508158Y-12962674D01*
X13508158Y-12962674D02*
X13470062Y-12962674D01*
X13470062Y-12962674D02*
X13451015Y-12972198D01*
X13451015Y-12972198D02*
X13441491Y-12981722D01*
X13441491Y-12981722D02*
X13431967Y-13000769D01*
X13727205Y-12886484D02*
X13631967Y-12886484D01*
X13631967Y-12886484D02*
X13622443Y-12981722D01*
X13622443Y-12981722D02*
X13631967Y-12972198D01*
X13631967Y-12972198D02*
X13651015Y-12962674D01*
X13651015Y-12962674D02*
X13698634Y-12962674D01*
X13698634Y-12962674D02*
X13717682Y-12972198D01*
X13717682Y-12972198D02*
X13727205Y-12981722D01*
X13727205Y-12981722D02*
X13736729Y-13000769D01*
X13736729Y-13000769D02*
X13736729Y-13048388D01*
X13736729Y-13048388D02*
X13727205Y-13067436D01*
X13727205Y-13067436D02*
X13717682Y-13076960D01*
X13717682Y-13076960D02*
X13698634Y-13086484D01*
X13698634Y-13086484D02*
X13651015Y-13086484D01*
X13651015Y-13086484D02*
X13631967Y-13076960D01*
X13631967Y-13076960D02*
X13622443Y-13067436D01*
X13860539Y-12886484D02*
X13879586Y-12886484D01*
X13879586Y-12886484D02*
X13898634Y-12896008D01*
X13898634Y-12896008D02*
X13908158Y-12905531D01*
X13908158Y-12905531D02*
X13917682Y-12924579D01*
X13917682Y-12924579D02*
X13927205Y-12962674D01*
X13927205Y-12962674D02*
X13927205Y-13010293D01*
X13927205Y-13010293D02*
X13917682Y-13048388D01*
X13917682Y-13048388D02*
X13908158Y-13067436D01*
X13908158Y-13067436D02*
X13898634Y-13076960D01*
X13898634Y-13076960D02*
X13879586Y-13086484D01*
X13879586Y-13086484D02*
X13860539Y-13086484D01*
X13860539Y-13086484D02*
X13841491Y-13076960D01*
X13841491Y-13076960D02*
X13831967Y-13067436D01*
X13831967Y-13067436D02*
X13822443Y-13048388D01*
X13822443Y-13048388D02*
X13812920Y-13010293D01*
X13812920Y-13010293D02*
X13812920Y-12962674D01*
X13812920Y-12962674D02*
X13822443Y-12924579D01*
X13822443Y-12924579D02*
X13831967Y-12905531D01*
X13831967Y-12905531D02*
X13841491Y-12896008D01*
X13841491Y-12896008D02*
X13860539Y-12886484D01*
X14012920Y-13086484D02*
X14012920Y-12953150D01*
X14012920Y-12972198D02*
X14022443Y-12962674D01*
X14022443Y-12962674D02*
X14041491Y-12953150D01*
X14041491Y-12953150D02*
X14070063Y-12953150D01*
X14070063Y-12953150D02*
X14089110Y-12962674D01*
X14089110Y-12962674D02*
X14098634Y-12981722D01*
X14098634Y-12981722D02*
X14098634Y-13086484D01*
X14098634Y-12981722D02*
X14108158Y-12962674D01*
X14108158Y-12962674D02*
X14127205Y-12953150D01*
X14127205Y-12953150D02*
X14155777Y-12953150D01*
X14155777Y-12953150D02*
X14174824Y-12962674D01*
X14174824Y-12962674D02*
X14184348Y-12981722D01*
X14184348Y-12981722D02*
X14184348Y-13086484D01*
X14279586Y-13086484D02*
X14279586Y-12953150D01*
X14279586Y-12972198D02*
X14289110Y-12962674D01*
X14289110Y-12962674D02*
X14308158Y-12953150D01*
X14308158Y-12953150D02*
X14336729Y-12953150D01*
X14336729Y-12953150D02*
X14355777Y-12962674D01*
X14355777Y-12962674D02*
X14365301Y-12981722D01*
X14365301Y-12981722D02*
X14365301Y-13086484D01*
X14365301Y-12981722D02*
X14374824Y-12962674D01*
X14374824Y-12962674D02*
X14393872Y-12953150D01*
X14393872Y-12953150D02*
X14422443Y-12953150D01*
X14422443Y-12953150D02*
X14441491Y-12962674D01*
X14441491Y-12962674D02*
X14451015Y-12981722D01*
X14451015Y-12981722D02*
X14451015Y-13086484D01*
X14841491Y-12876960D02*
X14670063Y-13134103D01*
X15098634Y-12886484D02*
X15117682Y-12886484D01*
X15117682Y-12886484D02*
X15136729Y-12896008D01*
X15136729Y-12896008D02*
X15146253Y-12905531D01*
X15146253Y-12905531D02*
X15155777Y-12924579D01*
X15155777Y-12924579D02*
X15165301Y-12962674D01*
X15165301Y-12962674D02*
X15165301Y-13010293D01*
X15165301Y-13010293D02*
X15155777Y-13048388D01*
X15155777Y-13048388D02*
X15146253Y-13067436D01*
X15146253Y-13067436D02*
X15136729Y-13076960D01*
X15136729Y-13076960D02*
X15117682Y-13086484D01*
X15117682Y-13086484D02*
X15098634Y-13086484D01*
X15098634Y-13086484D02*
X15079586Y-13076960D01*
X15079586Y-13076960D02*
X15070063Y-13067436D01*
X15070063Y-13067436D02*
X15060539Y-13048388D01*
X15060539Y-13048388D02*
X15051015Y-13010293D01*
X15051015Y-13010293D02*
X15051015Y-12962674D01*
X15051015Y-12962674D02*
X15060539Y-12924579D01*
X15060539Y-12924579D02*
X15070063Y-12905531D01*
X15070063Y-12905531D02*
X15079586Y-12896008D01*
X15079586Y-12896008D02*
X15098634Y-12886484D01*
X15251015Y-13067436D02*
X15260539Y-13076960D01*
X15260539Y-13076960D02*
X15251015Y-13086484D01*
X15251015Y-13086484D02*
X15241491Y-13076960D01*
X15241491Y-13076960D02*
X15251015Y-13067436D01*
X15251015Y-13067436D02*
X15251015Y-13086484D01*
X15384348Y-12886484D02*
X15403396Y-12886484D01*
X15403396Y-12886484D02*
X15422444Y-12896008D01*
X15422444Y-12896008D02*
X15431967Y-12905531D01*
X15431967Y-12905531D02*
X15441491Y-12924579D01*
X15441491Y-12924579D02*
X15451015Y-12962674D01*
X15451015Y-12962674D02*
X15451015Y-13010293D01*
X15451015Y-13010293D02*
X15441491Y-13048388D01*
X15441491Y-13048388D02*
X15431967Y-13067436D01*
X15431967Y-13067436D02*
X15422444Y-13076960D01*
X15422444Y-13076960D02*
X15403396Y-13086484D01*
X15403396Y-13086484D02*
X15384348Y-13086484D01*
X15384348Y-13086484D02*
X15365301Y-13076960D01*
X15365301Y-13076960D02*
X15355777Y-13067436D01*
X15355777Y-13067436D02*
X15346253Y-13048388D01*
X15346253Y-13048388D02*
X15336729Y-13010293D01*
X15336729Y-13010293D02*
X15336729Y-12962674D01*
X15336729Y-12962674D02*
X15346253Y-12924579D01*
X15346253Y-12924579D02*
X15355777Y-12905531D01*
X15355777Y-12905531D02*
X15365301Y-12896008D01*
X15365301Y-12896008D02*
X15384348Y-12886484D01*
X15527206Y-12905531D02*
X15536729Y-12896008D01*
X15536729Y-12896008D02*
X15555777Y-12886484D01*
X15555777Y-12886484D02*
X15603396Y-12886484D01*
X15603396Y-12886484D02*
X15622444Y-12896008D01*
X15622444Y-12896008D02*
X15631967Y-12905531D01*
X15631967Y-12905531D02*
X15641491Y-12924579D01*
X15641491Y-12924579D02*
X15641491Y-12943627D01*
X15641491Y-12943627D02*
X15631967Y-12972198D01*
X15631967Y-12972198D02*
X15517682Y-13086484D01*
X15517682Y-13086484D02*
X15641491Y-13086484D01*
X15822444Y-12886484D02*
X15727206Y-12886484D01*
X15727206Y-12886484D02*
X15717682Y-12981722D01*
X15717682Y-12981722D02*
X15727206Y-12972198D01*
X15727206Y-12972198D02*
X15746253Y-12962674D01*
X15746253Y-12962674D02*
X15793872Y-12962674D01*
X15793872Y-12962674D02*
X15812920Y-12972198D01*
X15812920Y-12972198D02*
X15822444Y-12981722D01*
X15822444Y-12981722D02*
X15831967Y-13000769D01*
X15831967Y-13000769D02*
X15831967Y-13048388D01*
X15831967Y-13048388D02*
X15822444Y-13067436D01*
X15822444Y-13067436D02*
X15812920Y-13076960D01*
X15812920Y-13076960D02*
X15793872Y-13086484D01*
X15793872Y-13086484D02*
X15746253Y-13086484D01*
X15746253Y-13086484D02*
X15727206Y-13076960D01*
X15727206Y-13076960D02*
X15717682Y-13067436D01*
X16003396Y-12886484D02*
X15965301Y-12886484D01*
X15965301Y-12886484D02*
X15946253Y-12896008D01*
X15946253Y-12896008D02*
X15936729Y-12905531D01*
X15936729Y-12905531D02*
X15917682Y-12934103D01*
X15917682Y-12934103D02*
X15908158Y-12972198D01*
X15908158Y-12972198D02*
X15908158Y-13048388D01*
X15908158Y-13048388D02*
X15917682Y-13067436D01*
X15917682Y-13067436D02*
X15927206Y-13076960D01*
X15927206Y-13076960D02*
X15946253Y-13086484D01*
X15946253Y-13086484D02*
X15984348Y-13086484D01*
X15984348Y-13086484D02*
X16003396Y-13076960D01*
X16003396Y-13076960D02*
X16012920Y-13067436D01*
X16012920Y-13067436D02*
X16022444Y-13048388D01*
X16022444Y-13048388D02*
X16022444Y-13000769D01*
X16022444Y-13000769D02*
X16012920Y-12981722D01*
X16012920Y-12981722D02*
X16003396Y-12972198D01*
X16003396Y-12972198D02*
X15984348Y-12962674D01*
X15984348Y-12962674D02*
X15946253Y-12962674D01*
X15946253Y-12962674D02*
X15927206Y-12972198D01*
X15927206Y-12972198D02*
X15917682Y-12981722D01*
X15917682Y-12981722D02*
X15908158Y-13000769D01*
X16098634Y-12886484D02*
X16098634Y-12924579D01*
X16174825Y-12886484D02*
X16174825Y-12924579D01*
X16470063Y-13162674D02*
X16460539Y-13153150D01*
X16460539Y-13153150D02*
X16441491Y-13124579D01*
X16441491Y-13124579D02*
X16431968Y-13105531D01*
X16431968Y-13105531D02*
X16422444Y-13076960D01*
X16422444Y-13076960D02*
X16412920Y-13029341D01*
X16412920Y-13029341D02*
X16412920Y-12991246D01*
X16412920Y-12991246D02*
X16422444Y-12943627D01*
X16422444Y-12943627D02*
X16431968Y-12915055D01*
X16431968Y-12915055D02*
X16441491Y-12896008D01*
X16441491Y-12896008D02*
X16460539Y-12867436D01*
X16460539Y-12867436D02*
X16470063Y-12857912D01*
X16536729Y-12905531D02*
X16546253Y-12896008D01*
X16546253Y-12896008D02*
X16565301Y-12886484D01*
X16565301Y-12886484D02*
X16612920Y-12886484D01*
X16612920Y-12886484D02*
X16631968Y-12896008D01*
X16631968Y-12896008D02*
X16641491Y-12905531D01*
X16641491Y-12905531D02*
X16651015Y-12924579D01*
X16651015Y-12924579D02*
X16651015Y-12943627D01*
X16651015Y-12943627D02*
X16641491Y-12972198D01*
X16641491Y-12972198D02*
X16527206Y-13086484D01*
X16527206Y-13086484D02*
X16651015Y-13086484D01*
X16889111Y-13086484D02*
X16889111Y-12886484D01*
X16974825Y-13086484D02*
X16974825Y-12981722D01*
X16974825Y-12981722D02*
X16965301Y-12962674D01*
X16965301Y-12962674D02*
X16946253Y-12953150D01*
X16946253Y-12953150D02*
X16917682Y-12953150D01*
X16917682Y-12953150D02*
X16898634Y-12962674D01*
X16898634Y-12962674D02*
X16889111Y-12972198D01*
X17098634Y-13086484D02*
X17079587Y-13076960D01*
X17079587Y-13076960D02*
X17070063Y-13067436D01*
X17070063Y-13067436D02*
X17060539Y-13048388D01*
X17060539Y-13048388D02*
X17060539Y-12991246D01*
X17060539Y-12991246D02*
X17070063Y-12972198D01*
X17070063Y-12972198D02*
X17079587Y-12962674D01*
X17079587Y-12962674D02*
X17098634Y-12953150D01*
X17098634Y-12953150D02*
X17127206Y-12953150D01*
X17127206Y-12953150D02*
X17146253Y-12962674D01*
X17146253Y-12962674D02*
X17155777Y-12972198D01*
X17155777Y-12972198D02*
X17165301Y-12991246D01*
X17165301Y-12991246D02*
X17165301Y-13048388D01*
X17165301Y-13048388D02*
X17155777Y-13067436D01*
X17155777Y-13067436D02*
X17146253Y-13076960D01*
X17146253Y-13076960D02*
X17127206Y-13086484D01*
X17127206Y-13086484D02*
X17098634Y-13086484D01*
X17279587Y-13086484D02*
X17260539Y-13076960D01*
X17260539Y-13076960D02*
X17251015Y-13057912D01*
X17251015Y-13057912D02*
X17251015Y-12886484D01*
X17431968Y-13076960D02*
X17412920Y-13086484D01*
X17412920Y-13086484D02*
X17374825Y-13086484D01*
X17374825Y-13086484D02*
X17355777Y-13076960D01*
X17355777Y-13076960D02*
X17346253Y-13057912D01*
X17346253Y-13057912D02*
X17346253Y-12981722D01*
X17346253Y-12981722D02*
X17355777Y-12962674D01*
X17355777Y-12962674D02*
X17374825Y-12953150D01*
X17374825Y-12953150D02*
X17412920Y-12953150D01*
X17412920Y-12953150D02*
X17431968Y-12962674D01*
X17431968Y-12962674D02*
X17441492Y-12981722D01*
X17441492Y-12981722D02*
X17441492Y-13000769D01*
X17441492Y-13000769D02*
X17346253Y-13019817D01*
X17517682Y-13076960D02*
X17536730Y-13086484D01*
X17536730Y-13086484D02*
X17574825Y-13086484D01*
X17574825Y-13086484D02*
X17593873Y-13076960D01*
X17593873Y-13076960D02*
X17603396Y-13057912D01*
X17603396Y-13057912D02*
X17603396Y-13048388D01*
X17603396Y-13048388D02*
X17593873Y-13029341D01*
X17593873Y-13029341D02*
X17574825Y-13019817D01*
X17574825Y-13019817D02*
X17546253Y-13019817D01*
X17546253Y-13019817D02*
X17527206Y-13010293D01*
X17527206Y-13010293D02*
X17517682Y-12991246D01*
X17517682Y-12991246D02*
X17517682Y-12981722D01*
X17517682Y-12981722D02*
X17527206Y-12962674D01*
X17527206Y-12962674D02*
X17546253Y-12953150D01*
X17546253Y-12953150D02*
X17574825Y-12953150D01*
X17574825Y-12953150D02*
X17593873Y-12962674D01*
X17670063Y-13162674D02*
X17679587Y-13153150D01*
X17679587Y-13153150D02*
X17698634Y-13124579D01*
X17698634Y-13124579D02*
X17708158Y-13105531D01*
X17708158Y-13105531D02*
X17717682Y-13076960D01*
X17717682Y-13076960D02*
X17727206Y-13029341D01*
X17727206Y-13029341D02*
X17727206Y-12991246D01*
X17727206Y-12991246D02*
X17717682Y-12943627D01*
X17717682Y-12943627D02*
X17708158Y-12915055D01*
X17708158Y-12915055D02*
X17698634Y-12896008D01*
X17698634Y-12896008D02*
X17679587Y-12867436D01*
X17679587Y-12867436D02*
X17670063Y-12857912D01*
X18031968Y-13162674D02*
X18022444Y-13153150D01*
X18022444Y-13153150D02*
X18003396Y-13124579D01*
X18003396Y-13124579D02*
X17993873Y-13105531D01*
X17993873Y-13105531D02*
X17984349Y-13076960D01*
X17984349Y-13076960D02*
X17974825Y-13029341D01*
X17974825Y-13029341D02*
X17974825Y-12991246D01*
X17974825Y-12991246D02*
X17984349Y-12943627D01*
X17984349Y-12943627D02*
X17993873Y-12915055D01*
X17993873Y-12915055D02*
X18003396Y-12896008D01*
X18003396Y-12896008D02*
X18022444Y-12867436D01*
X18022444Y-12867436D02*
X18031968Y-12857912D01*
X18108158Y-12953150D02*
X18108158Y-13086484D01*
X18108158Y-12972198D02*
X18117682Y-12962674D01*
X18117682Y-12962674D02*
X18136730Y-12953150D01*
X18136730Y-12953150D02*
X18165301Y-12953150D01*
X18165301Y-12953150D02*
X18184349Y-12962674D01*
X18184349Y-12962674D02*
X18193873Y-12981722D01*
X18193873Y-12981722D02*
X18193873Y-13086484D01*
X18317682Y-13086484D02*
X18298634Y-13076960D01*
X18298634Y-13076960D02*
X18289111Y-13067436D01*
X18289111Y-13067436D02*
X18279587Y-13048388D01*
X18279587Y-13048388D02*
X18279587Y-12991246D01*
X18279587Y-12991246D02*
X18289111Y-12972198D01*
X18289111Y-12972198D02*
X18298634Y-12962674D01*
X18298634Y-12962674D02*
X18317682Y-12953150D01*
X18317682Y-12953150D02*
X18346254Y-12953150D01*
X18346254Y-12953150D02*
X18365301Y-12962674D01*
X18365301Y-12962674D02*
X18374825Y-12972198D01*
X18374825Y-12972198D02*
X18384349Y-12991246D01*
X18384349Y-12991246D02*
X18384349Y-13048388D01*
X18384349Y-13048388D02*
X18374825Y-13067436D01*
X18374825Y-13067436D02*
X18365301Y-13076960D01*
X18365301Y-13076960D02*
X18346254Y-13086484D01*
X18346254Y-13086484D02*
X18317682Y-13086484D01*
X18441492Y-12953150D02*
X18517682Y-12953150D01*
X18470063Y-12886484D02*
X18470063Y-13057912D01*
X18470063Y-13057912D02*
X18479587Y-13076960D01*
X18479587Y-13076960D02*
X18498634Y-13086484D01*
X18498634Y-13086484D02*
X18517682Y-13086484D01*
X18736730Y-12953150D02*
X18736730Y-13153150D01*
X18736730Y-12962674D02*
X18755777Y-12953150D01*
X18755777Y-12953150D02*
X18793873Y-12953150D01*
X18793873Y-12953150D02*
X18812920Y-12962674D01*
X18812920Y-12962674D02*
X18822444Y-12972198D01*
X18822444Y-12972198D02*
X18831968Y-12991246D01*
X18831968Y-12991246D02*
X18831968Y-13048388D01*
X18831968Y-13048388D02*
X18822444Y-13067436D01*
X18822444Y-13067436D02*
X18812920Y-13076960D01*
X18812920Y-13076960D02*
X18793873Y-13086484D01*
X18793873Y-13086484D02*
X18755777Y-13086484D01*
X18755777Y-13086484D02*
X18736730Y-13076960D01*
X18946254Y-13086484D02*
X18927206Y-13076960D01*
X18927206Y-13076960D02*
X18917682Y-13057912D01*
X18917682Y-13057912D02*
X18917682Y-12886484D01*
X19108158Y-13086484D02*
X19108158Y-12981722D01*
X19108158Y-12981722D02*
X19098635Y-12962674D01*
X19098635Y-12962674D02*
X19079587Y-12953150D01*
X19079587Y-12953150D02*
X19041492Y-12953150D01*
X19041492Y-12953150D02*
X19022444Y-12962674D01*
X19108158Y-13076960D02*
X19089111Y-13086484D01*
X19089111Y-13086484D02*
X19041492Y-13086484D01*
X19041492Y-13086484D02*
X19022444Y-13076960D01*
X19022444Y-13076960D02*
X19012920Y-13057912D01*
X19012920Y-13057912D02*
X19012920Y-13038865D01*
X19012920Y-13038865D02*
X19022444Y-13019817D01*
X19022444Y-13019817D02*
X19041492Y-13010293D01*
X19041492Y-13010293D02*
X19089111Y-13010293D01*
X19089111Y-13010293D02*
X19108158Y-13000769D01*
X19174825Y-12953150D02*
X19251015Y-12953150D01*
X19203396Y-12886484D02*
X19203396Y-13057912D01*
X19203396Y-13057912D02*
X19212920Y-13076960D01*
X19212920Y-13076960D02*
X19231968Y-13086484D01*
X19231968Y-13086484D02*
X19251015Y-13086484D01*
X19393873Y-13076960D02*
X19374825Y-13086484D01*
X19374825Y-13086484D02*
X19336730Y-13086484D01*
X19336730Y-13086484D02*
X19317682Y-13076960D01*
X19317682Y-13076960D02*
X19308158Y-13057912D01*
X19308158Y-13057912D02*
X19308158Y-12981722D01*
X19308158Y-12981722D02*
X19317682Y-12962674D01*
X19317682Y-12962674D02*
X19336730Y-12953150D01*
X19336730Y-12953150D02*
X19374825Y-12953150D01*
X19374825Y-12953150D02*
X19393873Y-12962674D01*
X19393873Y-12962674D02*
X19403396Y-12981722D01*
X19403396Y-12981722D02*
X19403396Y-13000769D01*
X19403396Y-13000769D02*
X19308158Y-13019817D01*
X19574825Y-13086484D02*
X19574825Y-12886484D01*
X19574825Y-13076960D02*
X19555777Y-13086484D01*
X19555777Y-13086484D02*
X19517682Y-13086484D01*
X19517682Y-13086484D02*
X19498635Y-13076960D01*
X19498635Y-13076960D02*
X19489111Y-13067436D01*
X19489111Y-13067436D02*
X19479587Y-13048388D01*
X19479587Y-13048388D02*
X19479587Y-12991246D01*
X19479587Y-12991246D02*
X19489111Y-12972198D01*
X19489111Y-12972198D02*
X19498635Y-12962674D01*
X19498635Y-12962674D02*
X19517682Y-12953150D01*
X19517682Y-12953150D02*
X19555777Y-12953150D01*
X19555777Y-12953150D02*
X19574825Y-12962674D01*
X19651016Y-13162674D02*
X19660539Y-13153150D01*
X19660539Y-13153150D02*
X19679587Y-13124579D01*
X19679587Y-13124579D02*
X19689111Y-13105531D01*
X19689111Y-13105531D02*
X19698635Y-13076960D01*
X19698635Y-13076960D02*
X19708158Y-13029341D01*
X19708158Y-13029341D02*
X19708158Y-12991246D01*
X19708158Y-12991246D02*
X19698635Y-12943627D01*
X19698635Y-12943627D02*
X19689111Y-12915055D01*
X19689111Y-12915055D02*
X19679587Y-12896008D01*
X19679587Y-12896008D02*
X19660539Y-12867436D01*
X19660539Y-12867436D02*
X19651016Y-12857912D01*
M02*
