%TF.GenerationSoftware,KiCad,Pcbnew,7.0.10*%
%TF.CreationDate,2025-07-15T10:48:48-04:00*%
%TF.ProjectId,EMGauntlet,454d4761-756e-4746-9c65-742e6b696361,rev?*%
%TF.SameCoordinates,Original*%
%TF.FileFunction,Legend,Top*%
%TF.FilePolarity,Positive*%
%FSLAX46Y46*%
G04 Gerber Fmt 4.6, Leading zero omitted, Abs format (unit mm)*
G04 Created by KiCad (PCBNEW 7.0.10) date 2025-07-15 10:48:48*
%MOMM*%
%LPD*%
G01*
G04 APERTURE LIST*
%ADD10C,0.150000*%
%ADD11C,0.127000*%
%ADD12C,0.200000*%
%ADD13C,0.120000*%
%ADD14C,0.152400*%
G04 APERTURE END LIST*
D10*
X130670112Y-103346009D02*
X130812969Y-103393628D01*
X130812969Y-103393628D02*
X130860588Y-103441247D01*
X130860588Y-103441247D02*
X130908207Y-103536485D01*
X130908207Y-103536485D02*
X130908207Y-103679342D01*
X130908207Y-103679342D02*
X130860588Y-103774580D01*
X130860588Y-103774580D02*
X130812969Y-103822200D01*
X130812969Y-103822200D02*
X130717731Y-103869819D01*
X130717731Y-103869819D02*
X130336779Y-103869819D01*
X130336779Y-103869819D02*
X130336779Y-102869819D01*
X130336779Y-102869819D02*
X130670112Y-102869819D01*
X130670112Y-102869819D02*
X130765350Y-102917438D01*
X130765350Y-102917438D02*
X130812969Y-102965057D01*
X130812969Y-102965057D02*
X130860588Y-103060295D01*
X130860588Y-103060295D02*
X130860588Y-103155533D01*
X130860588Y-103155533D02*
X130812969Y-103250771D01*
X130812969Y-103250771D02*
X130765350Y-103298390D01*
X130765350Y-103298390D02*
X130670112Y-103346009D01*
X130670112Y-103346009D02*
X130336779Y-103346009D01*
X131527255Y-102869819D02*
X131717731Y-102869819D01*
X131717731Y-102869819D02*
X131812969Y-102917438D01*
X131812969Y-102917438D02*
X131908207Y-103012676D01*
X131908207Y-103012676D02*
X131955826Y-103203152D01*
X131955826Y-103203152D02*
X131955826Y-103536485D01*
X131955826Y-103536485D02*
X131908207Y-103726961D01*
X131908207Y-103726961D02*
X131812969Y-103822200D01*
X131812969Y-103822200D02*
X131717731Y-103869819D01*
X131717731Y-103869819D02*
X131527255Y-103869819D01*
X131527255Y-103869819D02*
X131432017Y-103822200D01*
X131432017Y-103822200D02*
X131336779Y-103726961D01*
X131336779Y-103726961D02*
X131289160Y-103536485D01*
X131289160Y-103536485D02*
X131289160Y-103203152D01*
X131289160Y-103203152D02*
X131336779Y-103012676D01*
X131336779Y-103012676D02*
X131432017Y-102917438D01*
X131432017Y-102917438D02*
X131527255Y-102869819D01*
X132574874Y-102869819D02*
X132765350Y-102869819D01*
X132765350Y-102869819D02*
X132860588Y-102917438D01*
X132860588Y-102917438D02*
X132955826Y-103012676D01*
X132955826Y-103012676D02*
X133003445Y-103203152D01*
X133003445Y-103203152D02*
X133003445Y-103536485D01*
X133003445Y-103536485D02*
X132955826Y-103726961D01*
X132955826Y-103726961D02*
X132860588Y-103822200D01*
X132860588Y-103822200D02*
X132765350Y-103869819D01*
X132765350Y-103869819D02*
X132574874Y-103869819D01*
X132574874Y-103869819D02*
X132479636Y-103822200D01*
X132479636Y-103822200D02*
X132384398Y-103726961D01*
X132384398Y-103726961D02*
X132336779Y-103536485D01*
X132336779Y-103536485D02*
X132336779Y-103203152D01*
X132336779Y-103203152D02*
X132384398Y-103012676D01*
X132384398Y-103012676D02*
X132479636Y-102917438D01*
X132479636Y-102917438D02*
X132574874Y-102869819D01*
X133289160Y-102869819D02*
X133860588Y-102869819D01*
X133574874Y-103869819D02*
X133574874Y-102869819D01*
X130408207Y-88369819D02*
X130074874Y-87893628D01*
X129836779Y-88369819D02*
X129836779Y-87369819D01*
X129836779Y-87369819D02*
X130217731Y-87369819D01*
X130217731Y-87369819D02*
X130312969Y-87417438D01*
X130312969Y-87417438D02*
X130360588Y-87465057D01*
X130360588Y-87465057D02*
X130408207Y-87560295D01*
X130408207Y-87560295D02*
X130408207Y-87703152D01*
X130408207Y-87703152D02*
X130360588Y-87798390D01*
X130360588Y-87798390D02*
X130312969Y-87846009D01*
X130312969Y-87846009D02*
X130217731Y-87893628D01*
X130217731Y-87893628D02*
X129836779Y-87893628D01*
X130836779Y-87846009D02*
X131170112Y-87846009D01*
X131312969Y-88369819D02*
X130836779Y-88369819D01*
X130836779Y-88369819D02*
X130836779Y-87369819D01*
X130836779Y-87369819D02*
X131312969Y-87369819D01*
X131693922Y-88322200D02*
X131836779Y-88369819D01*
X131836779Y-88369819D02*
X132074874Y-88369819D01*
X132074874Y-88369819D02*
X132170112Y-88322200D01*
X132170112Y-88322200D02*
X132217731Y-88274580D01*
X132217731Y-88274580D02*
X132265350Y-88179342D01*
X132265350Y-88179342D02*
X132265350Y-88084104D01*
X132265350Y-88084104D02*
X132217731Y-87988866D01*
X132217731Y-87988866D02*
X132170112Y-87941247D01*
X132170112Y-87941247D02*
X132074874Y-87893628D01*
X132074874Y-87893628D02*
X131884398Y-87846009D01*
X131884398Y-87846009D02*
X131789160Y-87798390D01*
X131789160Y-87798390D02*
X131741541Y-87750771D01*
X131741541Y-87750771D02*
X131693922Y-87655533D01*
X131693922Y-87655533D02*
X131693922Y-87560295D01*
X131693922Y-87560295D02*
X131741541Y-87465057D01*
X131741541Y-87465057D02*
X131789160Y-87417438D01*
X131789160Y-87417438D02*
X131884398Y-87369819D01*
X131884398Y-87369819D02*
X132122493Y-87369819D01*
X132122493Y-87369819D02*
X132265350Y-87417438D01*
X132693922Y-87846009D02*
X133027255Y-87846009D01*
X133170112Y-88369819D02*
X132693922Y-88369819D01*
X132693922Y-88369819D02*
X132693922Y-87369819D01*
X132693922Y-87369819D02*
X133170112Y-87369819D01*
X133455827Y-87369819D02*
X134027255Y-87369819D01*
X133741541Y-88369819D02*
X133741541Y-87369819D01*
X135991667Y-95522200D02*
X136134524Y-95569819D01*
X136134524Y-95569819D02*
X136372619Y-95569819D01*
X136372619Y-95569819D02*
X136467857Y-95522200D01*
X136467857Y-95522200D02*
X136515476Y-95474580D01*
X136515476Y-95474580D02*
X136563095Y-95379342D01*
X136563095Y-95379342D02*
X136563095Y-95284104D01*
X136563095Y-95284104D02*
X136515476Y-95188866D01*
X136515476Y-95188866D02*
X136467857Y-95141247D01*
X136467857Y-95141247D02*
X136372619Y-95093628D01*
X136372619Y-95093628D02*
X136182143Y-95046009D01*
X136182143Y-95046009D02*
X136086905Y-94998390D01*
X136086905Y-94998390D02*
X136039286Y-94950771D01*
X136039286Y-94950771D02*
X135991667Y-94855533D01*
X135991667Y-94855533D02*
X135991667Y-94760295D01*
X135991667Y-94760295D02*
X136039286Y-94665057D01*
X136039286Y-94665057D02*
X136086905Y-94617438D01*
X136086905Y-94617438D02*
X136182143Y-94569819D01*
X136182143Y-94569819D02*
X136420238Y-94569819D01*
X136420238Y-94569819D02*
X136563095Y-94617438D01*
X136896429Y-94569819D02*
X137134524Y-95569819D01*
X137134524Y-95569819D02*
X137325000Y-94855533D01*
X137325000Y-94855533D02*
X137515476Y-95569819D01*
X137515476Y-95569819D02*
X137753572Y-94569819D01*
X138563095Y-94903152D02*
X138563095Y-95569819D01*
X138325000Y-94522200D02*
X138086905Y-95236485D01*
X138086905Y-95236485D02*
X138705952Y-95236485D01*
X182666667Y-99657200D02*
X182809524Y-99704819D01*
X182809524Y-99704819D02*
X183047619Y-99704819D01*
X183047619Y-99704819D02*
X183142857Y-99657200D01*
X183142857Y-99657200D02*
X183190476Y-99609580D01*
X183190476Y-99609580D02*
X183238095Y-99514342D01*
X183238095Y-99514342D02*
X183238095Y-99419104D01*
X183238095Y-99419104D02*
X183190476Y-99323866D01*
X183190476Y-99323866D02*
X183142857Y-99276247D01*
X183142857Y-99276247D02*
X183047619Y-99228628D01*
X183047619Y-99228628D02*
X182857143Y-99181009D01*
X182857143Y-99181009D02*
X182761905Y-99133390D01*
X182761905Y-99133390D02*
X182714286Y-99085771D01*
X182714286Y-99085771D02*
X182666667Y-98990533D01*
X182666667Y-98990533D02*
X182666667Y-98895295D01*
X182666667Y-98895295D02*
X182714286Y-98800057D01*
X182714286Y-98800057D02*
X182761905Y-98752438D01*
X182761905Y-98752438D02*
X182857143Y-98704819D01*
X182857143Y-98704819D02*
X183095238Y-98704819D01*
X183095238Y-98704819D02*
X183238095Y-98752438D01*
X183571429Y-98704819D02*
X183809524Y-99704819D01*
X183809524Y-99704819D02*
X184000000Y-98990533D01*
X184000000Y-98990533D02*
X184190476Y-99704819D01*
X184190476Y-99704819D02*
X184428572Y-98704819D01*
X185333333Y-99704819D02*
X184761905Y-99704819D01*
X185047619Y-99704819D02*
X185047619Y-98704819D01*
X185047619Y-98704819D02*
X184952381Y-98847676D01*
X184952381Y-98847676D02*
X184857143Y-98942914D01*
X184857143Y-98942914D02*
X184761905Y-98990533D01*
X184333333Y-111454819D02*
X184000000Y-110978628D01*
X183761905Y-111454819D02*
X183761905Y-110454819D01*
X183761905Y-110454819D02*
X184142857Y-110454819D01*
X184142857Y-110454819D02*
X184238095Y-110502438D01*
X184238095Y-110502438D02*
X184285714Y-110550057D01*
X184285714Y-110550057D02*
X184333333Y-110645295D01*
X184333333Y-110645295D02*
X184333333Y-110788152D01*
X184333333Y-110788152D02*
X184285714Y-110883390D01*
X184285714Y-110883390D02*
X184238095Y-110931009D01*
X184238095Y-110931009D02*
X184142857Y-110978628D01*
X184142857Y-110978628D02*
X183761905Y-110978628D01*
X184714286Y-110550057D02*
X184761905Y-110502438D01*
X184761905Y-110502438D02*
X184857143Y-110454819D01*
X184857143Y-110454819D02*
X185095238Y-110454819D01*
X185095238Y-110454819D02*
X185190476Y-110502438D01*
X185190476Y-110502438D02*
X185238095Y-110550057D01*
X185238095Y-110550057D02*
X185285714Y-110645295D01*
X185285714Y-110645295D02*
X185285714Y-110740533D01*
X185285714Y-110740533D02*
X185238095Y-110883390D01*
X185238095Y-110883390D02*
X184666667Y-111454819D01*
X184666667Y-111454819D02*
X185285714Y-111454819D01*
X132544819Y-119333333D02*
X133259104Y-119333333D01*
X133259104Y-119333333D02*
X133401961Y-119380952D01*
X133401961Y-119380952D02*
X133497200Y-119476190D01*
X133497200Y-119476190D02*
X133544819Y-119619047D01*
X133544819Y-119619047D02*
X133544819Y-119714285D01*
X132640057Y-118904761D02*
X132592438Y-118857142D01*
X132592438Y-118857142D02*
X132544819Y-118761904D01*
X132544819Y-118761904D02*
X132544819Y-118523809D01*
X132544819Y-118523809D02*
X132592438Y-118428571D01*
X132592438Y-118428571D02*
X132640057Y-118380952D01*
X132640057Y-118380952D02*
X132735295Y-118333333D01*
X132735295Y-118333333D02*
X132830533Y-118333333D01*
X132830533Y-118333333D02*
X132973390Y-118380952D01*
X132973390Y-118380952D02*
X133544819Y-118952380D01*
X133544819Y-118952380D02*
X133544819Y-118333333D01*
X171454819Y-115738094D02*
X170454819Y-115738094D01*
X170454819Y-115738094D02*
X170454819Y-115499999D01*
X170454819Y-115499999D02*
X170502438Y-115357142D01*
X170502438Y-115357142D02*
X170597676Y-115261904D01*
X170597676Y-115261904D02*
X170692914Y-115214285D01*
X170692914Y-115214285D02*
X170883390Y-115166666D01*
X170883390Y-115166666D02*
X171026247Y-115166666D01*
X171026247Y-115166666D02*
X171216723Y-115214285D01*
X171216723Y-115214285D02*
X171311961Y-115261904D01*
X171311961Y-115261904D02*
X171407200Y-115357142D01*
X171407200Y-115357142D02*
X171454819Y-115499999D01*
X171454819Y-115499999D02*
X171454819Y-115738094D01*
X170454819Y-114833332D02*
X170454819Y-114214285D01*
X170454819Y-114214285D02*
X170835771Y-114547618D01*
X170835771Y-114547618D02*
X170835771Y-114404761D01*
X170835771Y-114404761D02*
X170883390Y-114309523D01*
X170883390Y-114309523D02*
X170931009Y-114261904D01*
X170931009Y-114261904D02*
X171026247Y-114214285D01*
X171026247Y-114214285D02*
X171264342Y-114214285D01*
X171264342Y-114214285D02*
X171359580Y-114261904D01*
X171359580Y-114261904D02*
X171407200Y-114309523D01*
X171407200Y-114309523D02*
X171454819Y-114404761D01*
X171454819Y-114404761D02*
X171454819Y-114690475D01*
X171454819Y-114690475D02*
X171407200Y-114785713D01*
X171407200Y-114785713D02*
X171359580Y-114833332D01*
X140833333Y-105859580D02*
X140785714Y-105907200D01*
X140785714Y-105907200D02*
X140642857Y-105954819D01*
X140642857Y-105954819D02*
X140547619Y-105954819D01*
X140547619Y-105954819D02*
X140404762Y-105907200D01*
X140404762Y-105907200D02*
X140309524Y-105811961D01*
X140309524Y-105811961D02*
X140261905Y-105716723D01*
X140261905Y-105716723D02*
X140214286Y-105526247D01*
X140214286Y-105526247D02*
X140214286Y-105383390D01*
X140214286Y-105383390D02*
X140261905Y-105192914D01*
X140261905Y-105192914D02*
X140309524Y-105097676D01*
X140309524Y-105097676D02*
X140404762Y-105002438D01*
X140404762Y-105002438D02*
X140547619Y-104954819D01*
X140547619Y-104954819D02*
X140642857Y-104954819D01*
X140642857Y-104954819D02*
X140785714Y-105002438D01*
X140785714Y-105002438D02*
X140833333Y-105050057D01*
X141785714Y-105954819D02*
X141214286Y-105954819D01*
X141500000Y-105954819D02*
X141500000Y-104954819D01*
X141500000Y-104954819D02*
X141404762Y-105097676D01*
X141404762Y-105097676D02*
X141309524Y-105192914D01*
X141309524Y-105192914D02*
X141214286Y-105240533D01*
X178454819Y-110161904D02*
X179264342Y-110161904D01*
X179264342Y-110161904D02*
X179359580Y-110114285D01*
X179359580Y-110114285D02*
X179407200Y-110066666D01*
X179407200Y-110066666D02*
X179454819Y-109971428D01*
X179454819Y-109971428D02*
X179454819Y-109780952D01*
X179454819Y-109780952D02*
X179407200Y-109685714D01*
X179407200Y-109685714D02*
X179359580Y-109638095D01*
X179359580Y-109638095D02*
X179264342Y-109590476D01*
X179264342Y-109590476D02*
X178454819Y-109590476D01*
X178454819Y-109209523D02*
X178454819Y-108590476D01*
X178454819Y-108590476D02*
X178835771Y-108923809D01*
X178835771Y-108923809D02*
X178835771Y-108780952D01*
X178835771Y-108780952D02*
X178883390Y-108685714D01*
X178883390Y-108685714D02*
X178931009Y-108638095D01*
X178931009Y-108638095D02*
X179026247Y-108590476D01*
X179026247Y-108590476D02*
X179264342Y-108590476D01*
X179264342Y-108590476D02*
X179359580Y-108638095D01*
X179359580Y-108638095D02*
X179407200Y-108685714D01*
X179407200Y-108685714D02*
X179454819Y-108780952D01*
X179454819Y-108780952D02*
X179454819Y-109066666D01*
X179454819Y-109066666D02*
X179407200Y-109161904D01*
X179407200Y-109161904D02*
X179359580Y-109209523D01*
X173333333Y-119304819D02*
X173000000Y-118828628D01*
X172761905Y-119304819D02*
X172761905Y-118304819D01*
X172761905Y-118304819D02*
X173142857Y-118304819D01*
X173142857Y-118304819D02*
X173238095Y-118352438D01*
X173238095Y-118352438D02*
X173285714Y-118400057D01*
X173285714Y-118400057D02*
X173333333Y-118495295D01*
X173333333Y-118495295D02*
X173333333Y-118638152D01*
X173333333Y-118638152D02*
X173285714Y-118733390D01*
X173285714Y-118733390D02*
X173238095Y-118781009D01*
X173238095Y-118781009D02*
X173142857Y-118828628D01*
X173142857Y-118828628D02*
X172761905Y-118828628D01*
X173666667Y-118304819D02*
X174285714Y-118304819D01*
X174285714Y-118304819D02*
X173952381Y-118685771D01*
X173952381Y-118685771D02*
X174095238Y-118685771D01*
X174095238Y-118685771D02*
X174190476Y-118733390D01*
X174190476Y-118733390D02*
X174238095Y-118781009D01*
X174238095Y-118781009D02*
X174285714Y-118876247D01*
X174285714Y-118876247D02*
X174285714Y-119114342D01*
X174285714Y-119114342D02*
X174238095Y-119209580D01*
X174238095Y-119209580D02*
X174190476Y-119257200D01*
X174190476Y-119257200D02*
X174095238Y-119304819D01*
X174095238Y-119304819D02*
X173809524Y-119304819D01*
X173809524Y-119304819D02*
X173714286Y-119257200D01*
X173714286Y-119257200D02*
X173666667Y-119209580D01*
X184333333Y-116454819D02*
X184000000Y-115978628D01*
X183761905Y-116454819D02*
X183761905Y-115454819D01*
X183761905Y-115454819D02*
X184142857Y-115454819D01*
X184142857Y-115454819D02*
X184238095Y-115502438D01*
X184238095Y-115502438D02*
X184285714Y-115550057D01*
X184285714Y-115550057D02*
X184333333Y-115645295D01*
X184333333Y-115645295D02*
X184333333Y-115788152D01*
X184333333Y-115788152D02*
X184285714Y-115883390D01*
X184285714Y-115883390D02*
X184238095Y-115931009D01*
X184238095Y-115931009D02*
X184142857Y-115978628D01*
X184142857Y-115978628D02*
X183761905Y-115978628D01*
X185190476Y-115788152D02*
X185190476Y-116454819D01*
X184952381Y-115407200D02*
X184714286Y-116121485D01*
X184714286Y-116121485D02*
X185333333Y-116121485D01*
X135991667Y-87972200D02*
X136134524Y-88019819D01*
X136134524Y-88019819D02*
X136372619Y-88019819D01*
X136372619Y-88019819D02*
X136467857Y-87972200D01*
X136467857Y-87972200D02*
X136515476Y-87924580D01*
X136515476Y-87924580D02*
X136563095Y-87829342D01*
X136563095Y-87829342D02*
X136563095Y-87734104D01*
X136563095Y-87734104D02*
X136515476Y-87638866D01*
X136515476Y-87638866D02*
X136467857Y-87591247D01*
X136467857Y-87591247D02*
X136372619Y-87543628D01*
X136372619Y-87543628D02*
X136182143Y-87496009D01*
X136182143Y-87496009D02*
X136086905Y-87448390D01*
X136086905Y-87448390D02*
X136039286Y-87400771D01*
X136039286Y-87400771D02*
X135991667Y-87305533D01*
X135991667Y-87305533D02*
X135991667Y-87210295D01*
X135991667Y-87210295D02*
X136039286Y-87115057D01*
X136039286Y-87115057D02*
X136086905Y-87067438D01*
X136086905Y-87067438D02*
X136182143Y-87019819D01*
X136182143Y-87019819D02*
X136420238Y-87019819D01*
X136420238Y-87019819D02*
X136563095Y-87067438D01*
X136896429Y-87019819D02*
X137134524Y-88019819D01*
X137134524Y-88019819D02*
X137325000Y-87305533D01*
X137325000Y-87305533D02*
X137515476Y-88019819D01*
X137515476Y-88019819D02*
X137753572Y-87019819D01*
X138039286Y-87019819D02*
X138658333Y-87019819D01*
X138658333Y-87019819D02*
X138325000Y-87400771D01*
X138325000Y-87400771D02*
X138467857Y-87400771D01*
X138467857Y-87400771D02*
X138563095Y-87448390D01*
X138563095Y-87448390D02*
X138610714Y-87496009D01*
X138610714Y-87496009D02*
X138658333Y-87591247D01*
X138658333Y-87591247D02*
X138658333Y-87829342D01*
X138658333Y-87829342D02*
X138610714Y-87924580D01*
X138610714Y-87924580D02*
X138563095Y-87972200D01*
X138563095Y-87972200D02*
X138467857Y-88019819D01*
X138467857Y-88019819D02*
X138182143Y-88019819D01*
X138182143Y-88019819D02*
X138086905Y-87972200D01*
X138086905Y-87972200D02*
X138039286Y-87924580D01*
X184333333Y-121359580D02*
X184285714Y-121407200D01*
X184285714Y-121407200D02*
X184142857Y-121454819D01*
X184142857Y-121454819D02*
X184047619Y-121454819D01*
X184047619Y-121454819D02*
X183904762Y-121407200D01*
X183904762Y-121407200D02*
X183809524Y-121311961D01*
X183809524Y-121311961D02*
X183761905Y-121216723D01*
X183761905Y-121216723D02*
X183714286Y-121026247D01*
X183714286Y-121026247D02*
X183714286Y-120883390D01*
X183714286Y-120883390D02*
X183761905Y-120692914D01*
X183761905Y-120692914D02*
X183809524Y-120597676D01*
X183809524Y-120597676D02*
X183904762Y-120502438D01*
X183904762Y-120502438D02*
X184047619Y-120454819D01*
X184047619Y-120454819D02*
X184142857Y-120454819D01*
X184142857Y-120454819D02*
X184285714Y-120502438D01*
X184285714Y-120502438D02*
X184333333Y-120550057D01*
X185238095Y-120454819D02*
X184761905Y-120454819D01*
X184761905Y-120454819D02*
X184714286Y-120931009D01*
X184714286Y-120931009D02*
X184761905Y-120883390D01*
X184761905Y-120883390D02*
X184857143Y-120835771D01*
X184857143Y-120835771D02*
X185095238Y-120835771D01*
X185095238Y-120835771D02*
X185190476Y-120883390D01*
X185190476Y-120883390D02*
X185238095Y-120931009D01*
X185238095Y-120931009D02*
X185285714Y-121026247D01*
X185285714Y-121026247D02*
X185285714Y-121264342D01*
X185285714Y-121264342D02*
X185238095Y-121359580D01*
X185238095Y-121359580D02*
X185190476Y-121407200D01*
X185190476Y-121407200D02*
X185095238Y-121454819D01*
X185095238Y-121454819D02*
X184857143Y-121454819D01*
X184857143Y-121454819D02*
X184761905Y-121407200D01*
X184761905Y-121407200D02*
X184714286Y-121359580D01*
X184333333Y-118859580D02*
X184285714Y-118907200D01*
X184285714Y-118907200D02*
X184142857Y-118954819D01*
X184142857Y-118954819D02*
X184047619Y-118954819D01*
X184047619Y-118954819D02*
X183904762Y-118907200D01*
X183904762Y-118907200D02*
X183809524Y-118811961D01*
X183809524Y-118811961D02*
X183761905Y-118716723D01*
X183761905Y-118716723D02*
X183714286Y-118526247D01*
X183714286Y-118526247D02*
X183714286Y-118383390D01*
X183714286Y-118383390D02*
X183761905Y-118192914D01*
X183761905Y-118192914D02*
X183809524Y-118097676D01*
X183809524Y-118097676D02*
X183904762Y-118002438D01*
X183904762Y-118002438D02*
X184047619Y-117954819D01*
X184047619Y-117954819D02*
X184142857Y-117954819D01*
X184142857Y-117954819D02*
X184285714Y-118002438D01*
X184285714Y-118002438D02*
X184333333Y-118050057D01*
X185190476Y-118288152D02*
X185190476Y-118954819D01*
X184952381Y-117907200D02*
X184714286Y-118621485D01*
X184714286Y-118621485D02*
X185333333Y-118621485D01*
X145333333Y-99859580D02*
X145285714Y-99907200D01*
X145285714Y-99907200D02*
X145142857Y-99954819D01*
X145142857Y-99954819D02*
X145047619Y-99954819D01*
X145047619Y-99954819D02*
X144904762Y-99907200D01*
X144904762Y-99907200D02*
X144809524Y-99811961D01*
X144809524Y-99811961D02*
X144761905Y-99716723D01*
X144761905Y-99716723D02*
X144714286Y-99526247D01*
X144714286Y-99526247D02*
X144714286Y-99383390D01*
X144714286Y-99383390D02*
X144761905Y-99192914D01*
X144761905Y-99192914D02*
X144809524Y-99097676D01*
X144809524Y-99097676D02*
X144904762Y-99002438D01*
X144904762Y-99002438D02*
X145047619Y-98954819D01*
X145047619Y-98954819D02*
X145142857Y-98954819D01*
X145142857Y-98954819D02*
X145285714Y-99002438D01*
X145285714Y-99002438D02*
X145333333Y-99050057D01*
X146190476Y-98954819D02*
X146000000Y-98954819D01*
X146000000Y-98954819D02*
X145904762Y-99002438D01*
X145904762Y-99002438D02*
X145857143Y-99050057D01*
X145857143Y-99050057D02*
X145761905Y-99192914D01*
X145761905Y-99192914D02*
X145714286Y-99383390D01*
X145714286Y-99383390D02*
X145714286Y-99764342D01*
X145714286Y-99764342D02*
X145761905Y-99859580D01*
X145761905Y-99859580D02*
X145809524Y-99907200D01*
X145809524Y-99907200D02*
X145904762Y-99954819D01*
X145904762Y-99954819D02*
X146095238Y-99954819D01*
X146095238Y-99954819D02*
X146190476Y-99907200D01*
X146190476Y-99907200D02*
X146238095Y-99859580D01*
X146238095Y-99859580D02*
X146285714Y-99764342D01*
X146285714Y-99764342D02*
X146285714Y-99526247D01*
X146285714Y-99526247D02*
X146238095Y-99431009D01*
X146238095Y-99431009D02*
X146190476Y-99383390D01*
X146190476Y-99383390D02*
X146095238Y-99335771D01*
X146095238Y-99335771D02*
X145904762Y-99335771D01*
X145904762Y-99335771D02*
X145809524Y-99383390D01*
X145809524Y-99383390D02*
X145761905Y-99431009D01*
X145761905Y-99431009D02*
X145714286Y-99526247D01*
X184333333Y-113859580D02*
X184285714Y-113907200D01*
X184285714Y-113907200D02*
X184142857Y-113954819D01*
X184142857Y-113954819D02*
X184047619Y-113954819D01*
X184047619Y-113954819D02*
X183904762Y-113907200D01*
X183904762Y-113907200D02*
X183809524Y-113811961D01*
X183809524Y-113811961D02*
X183761905Y-113716723D01*
X183761905Y-113716723D02*
X183714286Y-113526247D01*
X183714286Y-113526247D02*
X183714286Y-113383390D01*
X183714286Y-113383390D02*
X183761905Y-113192914D01*
X183761905Y-113192914D02*
X183809524Y-113097676D01*
X183809524Y-113097676D02*
X183904762Y-113002438D01*
X183904762Y-113002438D02*
X184047619Y-112954819D01*
X184047619Y-112954819D02*
X184142857Y-112954819D01*
X184142857Y-112954819D02*
X184285714Y-113002438D01*
X184285714Y-113002438D02*
X184333333Y-113050057D01*
X184714286Y-113050057D02*
X184761905Y-113002438D01*
X184761905Y-113002438D02*
X184857143Y-112954819D01*
X184857143Y-112954819D02*
X185095238Y-112954819D01*
X185095238Y-112954819D02*
X185190476Y-113002438D01*
X185190476Y-113002438D02*
X185238095Y-113050057D01*
X185238095Y-113050057D02*
X185285714Y-113145295D01*
X185285714Y-113145295D02*
X185285714Y-113240533D01*
X185285714Y-113240533D02*
X185238095Y-113383390D01*
X185238095Y-113383390D02*
X184666667Y-113954819D01*
X184666667Y-113954819D02*
X185285714Y-113954819D01*
X132954819Y-95166666D02*
X132478628Y-95499999D01*
X132954819Y-95738094D02*
X131954819Y-95738094D01*
X131954819Y-95738094D02*
X131954819Y-95357142D01*
X131954819Y-95357142D02*
X132002438Y-95261904D01*
X132002438Y-95261904D02*
X132050057Y-95214285D01*
X132050057Y-95214285D02*
X132145295Y-95166666D01*
X132145295Y-95166666D02*
X132288152Y-95166666D01*
X132288152Y-95166666D02*
X132383390Y-95214285D01*
X132383390Y-95214285D02*
X132431009Y-95261904D01*
X132431009Y-95261904D02*
X132478628Y-95357142D01*
X132478628Y-95357142D02*
X132478628Y-95738094D01*
X131954819Y-94309523D02*
X131954819Y-94499999D01*
X131954819Y-94499999D02*
X132002438Y-94595237D01*
X132002438Y-94595237D02*
X132050057Y-94642856D01*
X132050057Y-94642856D02*
X132192914Y-94738094D01*
X132192914Y-94738094D02*
X132383390Y-94785713D01*
X132383390Y-94785713D02*
X132764342Y-94785713D01*
X132764342Y-94785713D02*
X132859580Y-94738094D01*
X132859580Y-94738094D02*
X132907200Y-94690475D01*
X132907200Y-94690475D02*
X132954819Y-94595237D01*
X132954819Y-94595237D02*
X132954819Y-94404761D01*
X132954819Y-94404761D02*
X132907200Y-94309523D01*
X132907200Y-94309523D02*
X132859580Y-94261904D01*
X132859580Y-94261904D02*
X132764342Y-94214285D01*
X132764342Y-94214285D02*
X132526247Y-94214285D01*
X132526247Y-94214285D02*
X132431009Y-94261904D01*
X132431009Y-94261904D02*
X132383390Y-94309523D01*
X132383390Y-94309523D02*
X132335771Y-94404761D01*
X132335771Y-94404761D02*
X132335771Y-94595237D01*
X132335771Y-94595237D02*
X132383390Y-94690475D01*
X132383390Y-94690475D02*
X132431009Y-94738094D01*
X132431009Y-94738094D02*
X132526247Y-94785713D01*
X168333333Y-119179580D02*
X168285714Y-119227200D01*
X168285714Y-119227200D02*
X168142857Y-119274819D01*
X168142857Y-119274819D02*
X168047619Y-119274819D01*
X168047619Y-119274819D02*
X167904762Y-119227200D01*
X167904762Y-119227200D02*
X167809524Y-119131961D01*
X167809524Y-119131961D02*
X167761905Y-119036723D01*
X167761905Y-119036723D02*
X167714286Y-118846247D01*
X167714286Y-118846247D02*
X167714286Y-118703390D01*
X167714286Y-118703390D02*
X167761905Y-118512914D01*
X167761905Y-118512914D02*
X167809524Y-118417676D01*
X167809524Y-118417676D02*
X167904762Y-118322438D01*
X167904762Y-118322438D02*
X168047619Y-118274819D01*
X168047619Y-118274819D02*
X168142857Y-118274819D01*
X168142857Y-118274819D02*
X168285714Y-118322438D01*
X168285714Y-118322438D02*
X168333333Y-118370057D01*
X168666667Y-118274819D02*
X169285714Y-118274819D01*
X169285714Y-118274819D02*
X168952381Y-118655771D01*
X168952381Y-118655771D02*
X169095238Y-118655771D01*
X169095238Y-118655771D02*
X169190476Y-118703390D01*
X169190476Y-118703390D02*
X169238095Y-118751009D01*
X169238095Y-118751009D02*
X169285714Y-118846247D01*
X169285714Y-118846247D02*
X169285714Y-119084342D01*
X169285714Y-119084342D02*
X169238095Y-119179580D01*
X169238095Y-119179580D02*
X169190476Y-119227200D01*
X169190476Y-119227200D02*
X169095238Y-119274819D01*
X169095238Y-119274819D02*
X168809524Y-119274819D01*
X168809524Y-119274819D02*
X168714286Y-119227200D01*
X168714286Y-119227200D02*
X168666667Y-119179580D01*
X134238095Y-105804819D02*
X134238095Y-106614342D01*
X134238095Y-106614342D02*
X134285714Y-106709580D01*
X134285714Y-106709580D02*
X134333333Y-106757200D01*
X134333333Y-106757200D02*
X134428571Y-106804819D01*
X134428571Y-106804819D02*
X134619047Y-106804819D01*
X134619047Y-106804819D02*
X134714285Y-106757200D01*
X134714285Y-106757200D02*
X134761904Y-106709580D01*
X134761904Y-106709580D02*
X134809523Y-106614342D01*
X134809523Y-106614342D02*
X134809523Y-105804819D01*
X135809523Y-106804819D02*
X135238095Y-106804819D01*
X135523809Y-106804819D02*
X135523809Y-105804819D01*
X135523809Y-105804819D02*
X135428571Y-105947676D01*
X135428571Y-105947676D02*
X135333333Y-106042914D01*
X135333333Y-106042914D02*
X135238095Y-106090533D01*
X148333333Y-104359580D02*
X148285714Y-104407200D01*
X148285714Y-104407200D02*
X148142857Y-104454819D01*
X148142857Y-104454819D02*
X148047619Y-104454819D01*
X148047619Y-104454819D02*
X147904762Y-104407200D01*
X147904762Y-104407200D02*
X147809524Y-104311961D01*
X147809524Y-104311961D02*
X147761905Y-104216723D01*
X147761905Y-104216723D02*
X147714286Y-104026247D01*
X147714286Y-104026247D02*
X147714286Y-103883390D01*
X147714286Y-103883390D02*
X147761905Y-103692914D01*
X147761905Y-103692914D02*
X147809524Y-103597676D01*
X147809524Y-103597676D02*
X147904762Y-103502438D01*
X147904762Y-103502438D02*
X148047619Y-103454819D01*
X148047619Y-103454819D02*
X148142857Y-103454819D01*
X148142857Y-103454819D02*
X148285714Y-103502438D01*
X148285714Y-103502438D02*
X148333333Y-103550057D01*
X148809524Y-104454819D02*
X149000000Y-104454819D01*
X149000000Y-104454819D02*
X149095238Y-104407200D01*
X149095238Y-104407200D02*
X149142857Y-104359580D01*
X149142857Y-104359580D02*
X149238095Y-104216723D01*
X149238095Y-104216723D02*
X149285714Y-104026247D01*
X149285714Y-104026247D02*
X149285714Y-103645295D01*
X149285714Y-103645295D02*
X149238095Y-103550057D01*
X149238095Y-103550057D02*
X149190476Y-103502438D01*
X149190476Y-103502438D02*
X149095238Y-103454819D01*
X149095238Y-103454819D02*
X148904762Y-103454819D01*
X148904762Y-103454819D02*
X148809524Y-103502438D01*
X148809524Y-103502438D02*
X148761905Y-103550057D01*
X148761905Y-103550057D02*
X148714286Y-103645295D01*
X148714286Y-103645295D02*
X148714286Y-103883390D01*
X148714286Y-103883390D02*
X148761905Y-103978628D01*
X148761905Y-103978628D02*
X148809524Y-104026247D01*
X148809524Y-104026247D02*
X148904762Y-104073866D01*
X148904762Y-104073866D02*
X149095238Y-104073866D01*
X149095238Y-104073866D02*
X149190476Y-104026247D01*
X149190476Y-104026247D02*
X149238095Y-103978628D01*
X149238095Y-103978628D02*
X149285714Y-103883390D01*
X152833333Y-114954819D02*
X152500000Y-114478628D01*
X152261905Y-114954819D02*
X152261905Y-113954819D01*
X152261905Y-113954819D02*
X152642857Y-113954819D01*
X152642857Y-113954819D02*
X152738095Y-114002438D01*
X152738095Y-114002438D02*
X152785714Y-114050057D01*
X152785714Y-114050057D02*
X152833333Y-114145295D01*
X152833333Y-114145295D02*
X152833333Y-114288152D01*
X152833333Y-114288152D02*
X152785714Y-114383390D01*
X152785714Y-114383390D02*
X152738095Y-114431009D01*
X152738095Y-114431009D02*
X152642857Y-114478628D01*
X152642857Y-114478628D02*
X152261905Y-114478628D01*
X153166667Y-113954819D02*
X153833333Y-113954819D01*
X153833333Y-113954819D02*
X153404762Y-114954819D01*
X149749819Y-106461904D02*
X150559342Y-106461904D01*
X150559342Y-106461904D02*
X150654580Y-106414285D01*
X150654580Y-106414285D02*
X150702200Y-106366666D01*
X150702200Y-106366666D02*
X150749819Y-106271428D01*
X150749819Y-106271428D02*
X150749819Y-106080952D01*
X150749819Y-106080952D02*
X150702200Y-105985714D01*
X150702200Y-105985714D02*
X150654580Y-105938095D01*
X150654580Y-105938095D02*
X150559342Y-105890476D01*
X150559342Y-105890476D02*
X149749819Y-105890476D01*
X149749819Y-104985714D02*
X149749819Y-105176190D01*
X149749819Y-105176190D02*
X149797438Y-105271428D01*
X149797438Y-105271428D02*
X149845057Y-105319047D01*
X149845057Y-105319047D02*
X149987914Y-105414285D01*
X149987914Y-105414285D02*
X150178390Y-105461904D01*
X150178390Y-105461904D02*
X150559342Y-105461904D01*
X150559342Y-105461904D02*
X150654580Y-105414285D01*
X150654580Y-105414285D02*
X150702200Y-105366666D01*
X150702200Y-105366666D02*
X150749819Y-105271428D01*
X150749819Y-105271428D02*
X150749819Y-105080952D01*
X150749819Y-105080952D02*
X150702200Y-104985714D01*
X150702200Y-104985714D02*
X150654580Y-104938095D01*
X150654580Y-104938095D02*
X150559342Y-104890476D01*
X150559342Y-104890476D02*
X150321247Y-104890476D01*
X150321247Y-104890476D02*
X150226009Y-104938095D01*
X150226009Y-104938095D02*
X150178390Y-104985714D01*
X150178390Y-104985714D02*
X150130771Y-105080952D01*
X150130771Y-105080952D02*
X150130771Y-105271428D01*
X150130771Y-105271428D02*
X150178390Y-105366666D01*
X150178390Y-105366666D02*
X150226009Y-105414285D01*
X150226009Y-105414285D02*
X150321247Y-105461904D01*
X145604819Y-110800594D02*
X144604819Y-110800594D01*
X144604819Y-110800594D02*
X144604819Y-110562499D01*
X144604819Y-110562499D02*
X144652438Y-110419642D01*
X144652438Y-110419642D02*
X144747676Y-110324404D01*
X144747676Y-110324404D02*
X144842914Y-110276785D01*
X144842914Y-110276785D02*
X145033390Y-110229166D01*
X145033390Y-110229166D02*
X145176247Y-110229166D01*
X145176247Y-110229166D02*
X145366723Y-110276785D01*
X145366723Y-110276785D02*
X145461961Y-110324404D01*
X145461961Y-110324404D02*
X145557200Y-110419642D01*
X145557200Y-110419642D02*
X145604819Y-110562499D01*
X145604819Y-110562499D02*
X145604819Y-110800594D01*
X145604819Y-109276785D02*
X145604819Y-109848213D01*
X145604819Y-109562499D02*
X144604819Y-109562499D01*
X144604819Y-109562499D02*
X144747676Y-109657737D01*
X144747676Y-109657737D02*
X144842914Y-109752975D01*
X144842914Y-109752975D02*
X144890533Y-109848213D01*
X184824405Y-107304819D02*
X184824405Y-106304819D01*
X184824405Y-106304819D02*
X185062500Y-106304819D01*
X185062500Y-106304819D02*
X185205357Y-106352438D01*
X185205357Y-106352438D02*
X185300595Y-106447676D01*
X185300595Y-106447676D02*
X185348214Y-106542914D01*
X185348214Y-106542914D02*
X185395833Y-106733390D01*
X185395833Y-106733390D02*
X185395833Y-106876247D01*
X185395833Y-106876247D02*
X185348214Y-107066723D01*
X185348214Y-107066723D02*
X185300595Y-107161961D01*
X185300595Y-107161961D02*
X185205357Y-107257200D01*
X185205357Y-107257200D02*
X185062500Y-107304819D01*
X185062500Y-107304819D02*
X184824405Y-107304819D01*
X185776786Y-106400057D02*
X185824405Y-106352438D01*
X185824405Y-106352438D02*
X185919643Y-106304819D01*
X185919643Y-106304819D02*
X186157738Y-106304819D01*
X186157738Y-106304819D02*
X186252976Y-106352438D01*
X186252976Y-106352438D02*
X186300595Y-106400057D01*
X186300595Y-106400057D02*
X186348214Y-106495295D01*
X186348214Y-106495295D02*
X186348214Y-106590533D01*
X186348214Y-106590533D02*
X186300595Y-106733390D01*
X186300595Y-106733390D02*
X185729167Y-107304819D01*
X185729167Y-107304819D02*
X186348214Y-107304819D01*
X177254819Y-94183333D02*
X177969104Y-94183333D01*
X177969104Y-94183333D02*
X178111961Y-94230952D01*
X178111961Y-94230952D02*
X178207200Y-94326190D01*
X178207200Y-94326190D02*
X178254819Y-94469047D01*
X178254819Y-94469047D02*
X178254819Y-94564285D01*
X178254819Y-93183333D02*
X178254819Y-93754761D01*
X178254819Y-93469047D02*
X177254819Y-93469047D01*
X177254819Y-93469047D02*
X177397676Y-93564285D01*
X177397676Y-93564285D02*
X177492914Y-93659523D01*
X177492914Y-93659523D02*
X177540533Y-93754761D01*
X148383333Y-95679580D02*
X148335714Y-95727200D01*
X148335714Y-95727200D02*
X148192857Y-95774819D01*
X148192857Y-95774819D02*
X148097619Y-95774819D01*
X148097619Y-95774819D02*
X147954762Y-95727200D01*
X147954762Y-95727200D02*
X147859524Y-95631961D01*
X147859524Y-95631961D02*
X147811905Y-95536723D01*
X147811905Y-95536723D02*
X147764286Y-95346247D01*
X147764286Y-95346247D02*
X147764286Y-95203390D01*
X147764286Y-95203390D02*
X147811905Y-95012914D01*
X147811905Y-95012914D02*
X147859524Y-94917676D01*
X147859524Y-94917676D02*
X147954762Y-94822438D01*
X147954762Y-94822438D02*
X148097619Y-94774819D01*
X148097619Y-94774819D02*
X148192857Y-94774819D01*
X148192857Y-94774819D02*
X148335714Y-94822438D01*
X148335714Y-94822438D02*
X148383333Y-94870057D01*
X148716667Y-94774819D02*
X149383333Y-94774819D01*
X149383333Y-94774819D02*
X148954762Y-95774819D01*
X173054819Y-116261904D02*
X173864342Y-116261904D01*
X173864342Y-116261904D02*
X173959580Y-116214285D01*
X173959580Y-116214285D02*
X174007200Y-116166666D01*
X174007200Y-116166666D02*
X174054819Y-116071428D01*
X174054819Y-116071428D02*
X174054819Y-115880952D01*
X174054819Y-115880952D02*
X174007200Y-115785714D01*
X174007200Y-115785714D02*
X173959580Y-115738095D01*
X173959580Y-115738095D02*
X173864342Y-115690476D01*
X173864342Y-115690476D02*
X173054819Y-115690476D01*
X173054819Y-114738095D02*
X173054819Y-115214285D01*
X173054819Y-115214285D02*
X173531009Y-115261904D01*
X173531009Y-115261904D02*
X173483390Y-115214285D01*
X173483390Y-115214285D02*
X173435771Y-115119047D01*
X173435771Y-115119047D02*
X173435771Y-114880952D01*
X173435771Y-114880952D02*
X173483390Y-114785714D01*
X173483390Y-114785714D02*
X173531009Y-114738095D01*
X173531009Y-114738095D02*
X173626247Y-114690476D01*
X173626247Y-114690476D02*
X173864342Y-114690476D01*
X173864342Y-114690476D02*
X173959580Y-114738095D01*
X173959580Y-114738095D02*
X174007200Y-114785714D01*
X174007200Y-114785714D02*
X174054819Y-114880952D01*
X174054819Y-114880952D02*
X174054819Y-115119047D01*
X174054819Y-115119047D02*
X174007200Y-115214285D01*
X174007200Y-115214285D02*
X173959580Y-115261904D01*
X150333333Y-114954819D02*
X150000000Y-114478628D01*
X149761905Y-114954819D02*
X149761905Y-113954819D01*
X149761905Y-113954819D02*
X150142857Y-113954819D01*
X150142857Y-113954819D02*
X150238095Y-114002438D01*
X150238095Y-114002438D02*
X150285714Y-114050057D01*
X150285714Y-114050057D02*
X150333333Y-114145295D01*
X150333333Y-114145295D02*
X150333333Y-114288152D01*
X150333333Y-114288152D02*
X150285714Y-114383390D01*
X150285714Y-114383390D02*
X150238095Y-114431009D01*
X150238095Y-114431009D02*
X150142857Y-114478628D01*
X150142857Y-114478628D02*
X149761905Y-114478628D01*
X150904762Y-114383390D02*
X150809524Y-114335771D01*
X150809524Y-114335771D02*
X150761905Y-114288152D01*
X150761905Y-114288152D02*
X150714286Y-114192914D01*
X150714286Y-114192914D02*
X150714286Y-114145295D01*
X150714286Y-114145295D02*
X150761905Y-114050057D01*
X150761905Y-114050057D02*
X150809524Y-114002438D01*
X150809524Y-114002438D02*
X150904762Y-113954819D01*
X150904762Y-113954819D02*
X151095238Y-113954819D01*
X151095238Y-113954819D02*
X151190476Y-114002438D01*
X151190476Y-114002438D02*
X151238095Y-114050057D01*
X151238095Y-114050057D02*
X151285714Y-114145295D01*
X151285714Y-114145295D02*
X151285714Y-114192914D01*
X151285714Y-114192914D02*
X151238095Y-114288152D01*
X151238095Y-114288152D02*
X151190476Y-114335771D01*
X151190476Y-114335771D02*
X151095238Y-114383390D01*
X151095238Y-114383390D02*
X150904762Y-114383390D01*
X150904762Y-114383390D02*
X150809524Y-114431009D01*
X150809524Y-114431009D02*
X150761905Y-114478628D01*
X150761905Y-114478628D02*
X150714286Y-114573866D01*
X150714286Y-114573866D02*
X150714286Y-114764342D01*
X150714286Y-114764342D02*
X150761905Y-114859580D01*
X150761905Y-114859580D02*
X150809524Y-114907200D01*
X150809524Y-114907200D02*
X150904762Y-114954819D01*
X150904762Y-114954819D02*
X151095238Y-114954819D01*
X151095238Y-114954819D02*
X151190476Y-114907200D01*
X151190476Y-114907200D02*
X151238095Y-114859580D01*
X151238095Y-114859580D02*
X151285714Y-114764342D01*
X151285714Y-114764342D02*
X151285714Y-114573866D01*
X151285714Y-114573866D02*
X151238095Y-114478628D01*
X151238095Y-114478628D02*
X151190476Y-114431009D01*
X151190476Y-114431009D02*
X151095238Y-114383390D01*
X157546666Y-111549819D02*
X157546666Y-112264104D01*
X157546666Y-112264104D02*
X157499047Y-112406961D01*
X157499047Y-112406961D02*
X157403809Y-112502200D01*
X157403809Y-112502200D02*
X157260952Y-112549819D01*
X157260952Y-112549819D02*
X157165714Y-112549819D01*
X157927619Y-111549819D02*
X158546666Y-111549819D01*
X158546666Y-111549819D02*
X158213333Y-111930771D01*
X158213333Y-111930771D02*
X158356190Y-111930771D01*
X158356190Y-111930771D02*
X158451428Y-111978390D01*
X158451428Y-111978390D02*
X158499047Y-112026009D01*
X158499047Y-112026009D02*
X158546666Y-112121247D01*
X158546666Y-112121247D02*
X158546666Y-112359342D01*
X158546666Y-112359342D02*
X158499047Y-112454580D01*
X158499047Y-112454580D02*
X158451428Y-112502200D01*
X158451428Y-112502200D02*
X158356190Y-112549819D01*
X158356190Y-112549819D02*
X158070476Y-112549819D01*
X158070476Y-112549819D02*
X157975238Y-112502200D01*
X157975238Y-112502200D02*
X157927619Y-112454580D01*
X181333333Y-106954819D02*
X181000000Y-106478628D01*
X180761905Y-106954819D02*
X180761905Y-105954819D01*
X180761905Y-105954819D02*
X181142857Y-105954819D01*
X181142857Y-105954819D02*
X181238095Y-106002438D01*
X181238095Y-106002438D02*
X181285714Y-106050057D01*
X181285714Y-106050057D02*
X181333333Y-106145295D01*
X181333333Y-106145295D02*
X181333333Y-106288152D01*
X181333333Y-106288152D02*
X181285714Y-106383390D01*
X181285714Y-106383390D02*
X181238095Y-106431009D01*
X181238095Y-106431009D02*
X181142857Y-106478628D01*
X181142857Y-106478628D02*
X180761905Y-106478628D01*
X182285714Y-106954819D02*
X181714286Y-106954819D01*
X182000000Y-106954819D02*
X182000000Y-105954819D01*
X182000000Y-105954819D02*
X181904762Y-106097676D01*
X181904762Y-106097676D02*
X181809524Y-106192914D01*
X181809524Y-106192914D02*
X181714286Y-106240533D01*
X171527632Y-101996720D02*
X172855806Y-101996720D01*
X172855806Y-101996720D02*
X173012062Y-101918592D01*
X173012062Y-101918592D02*
X173090190Y-101840465D01*
X173090190Y-101840465D02*
X173168317Y-101684209D01*
X173168317Y-101684209D02*
X173168317Y-101371697D01*
X173168317Y-101371697D02*
X173090190Y-101215442D01*
X173090190Y-101215442D02*
X173012062Y-101137314D01*
X173012062Y-101137314D02*
X172855806Y-101059186D01*
X172855806Y-101059186D02*
X171527632Y-101059186D01*
X172074527Y-99574757D02*
X173168317Y-99574757D01*
X171449505Y-99965396D02*
X172621422Y-100356035D01*
X172621422Y-100356035D02*
X172621422Y-99340373D01*
X146179580Y-92166666D02*
X146227200Y-92214285D01*
X146227200Y-92214285D02*
X146274819Y-92357142D01*
X146274819Y-92357142D02*
X146274819Y-92452380D01*
X146274819Y-92452380D02*
X146227200Y-92595237D01*
X146227200Y-92595237D02*
X146131961Y-92690475D01*
X146131961Y-92690475D02*
X146036723Y-92738094D01*
X146036723Y-92738094D02*
X145846247Y-92785713D01*
X145846247Y-92785713D02*
X145703390Y-92785713D01*
X145703390Y-92785713D02*
X145512914Y-92738094D01*
X145512914Y-92738094D02*
X145417676Y-92690475D01*
X145417676Y-92690475D02*
X145322438Y-92595237D01*
X145322438Y-92595237D02*
X145274819Y-92452380D01*
X145274819Y-92452380D02*
X145274819Y-92357142D01*
X145274819Y-92357142D02*
X145322438Y-92214285D01*
X145322438Y-92214285D02*
X145370057Y-92166666D01*
X145703390Y-91595237D02*
X145655771Y-91690475D01*
X145655771Y-91690475D02*
X145608152Y-91738094D01*
X145608152Y-91738094D02*
X145512914Y-91785713D01*
X145512914Y-91785713D02*
X145465295Y-91785713D01*
X145465295Y-91785713D02*
X145370057Y-91738094D01*
X145370057Y-91738094D02*
X145322438Y-91690475D01*
X145322438Y-91690475D02*
X145274819Y-91595237D01*
X145274819Y-91595237D02*
X145274819Y-91404761D01*
X145274819Y-91404761D02*
X145322438Y-91309523D01*
X145322438Y-91309523D02*
X145370057Y-91261904D01*
X145370057Y-91261904D02*
X145465295Y-91214285D01*
X145465295Y-91214285D02*
X145512914Y-91214285D01*
X145512914Y-91214285D02*
X145608152Y-91261904D01*
X145608152Y-91261904D02*
X145655771Y-91309523D01*
X145655771Y-91309523D02*
X145703390Y-91404761D01*
X145703390Y-91404761D02*
X145703390Y-91595237D01*
X145703390Y-91595237D02*
X145751009Y-91690475D01*
X145751009Y-91690475D02*
X145798628Y-91738094D01*
X145798628Y-91738094D02*
X145893866Y-91785713D01*
X145893866Y-91785713D02*
X146084342Y-91785713D01*
X146084342Y-91785713D02*
X146179580Y-91738094D01*
X146179580Y-91738094D02*
X146227200Y-91690475D01*
X146227200Y-91690475D02*
X146274819Y-91595237D01*
X146274819Y-91595237D02*
X146274819Y-91404761D01*
X146274819Y-91404761D02*
X146227200Y-91309523D01*
X146227200Y-91309523D02*
X146179580Y-91261904D01*
X146179580Y-91261904D02*
X146084342Y-91214285D01*
X146084342Y-91214285D02*
X145893866Y-91214285D01*
X145893866Y-91214285D02*
X145798628Y-91261904D01*
X145798628Y-91261904D02*
X145751009Y-91309523D01*
X145751009Y-91309523D02*
X145703390Y-91404761D01*
D11*
%TO.C,SW4*%
X137000000Y-96500000D02*
X137000000Y-102500000D01*
X137000000Y-102500000D02*
X143000000Y-102500000D01*
X143000000Y-96500000D02*
X137000000Y-96500000D01*
X143000000Y-102500000D02*
X143000000Y-96500000D01*
D12*
X133850000Y-97250000D02*
G75*
G03*
X133650000Y-97250000I-100000J0D01*
G01*
X133650000Y-97250000D02*
G75*
G03*
X133850000Y-97250000I100000J0D01*
G01*
D13*
%TO.C,SW1*%
X179390000Y-100390000D02*
X179390000Y-104210000D01*
X179390000Y-104210000D02*
X180740000Y-104210000D01*
X180740000Y-100390000D02*
X179390000Y-100390000D01*
X183240000Y-100390000D02*
X182260000Y-100390000D01*
X183240000Y-104210000D02*
X182260000Y-104210000D01*
X185740000Y-100390000D02*
X184760000Y-100390000D01*
X185740000Y-104210000D02*
X184760000Y-104210000D01*
X188610000Y-100390000D02*
X187260000Y-100390000D01*
X188610000Y-100390000D02*
X188610000Y-104210000D01*
X188610000Y-104210000D02*
X187260000Y-104210000D01*
%TO.C,R2*%
X181272936Y-110265000D02*
X181727064Y-110265000D01*
X181272936Y-111735000D02*
X181727064Y-111735000D01*
%TO.C,J2*%
X134090000Y-120330000D02*
X134090000Y-119000000D01*
X135420000Y-120330000D02*
X134090000Y-120330000D01*
X136690000Y-120330000D02*
X141830000Y-120330000D01*
X136690000Y-120330000D02*
X136690000Y-117670000D01*
X141830000Y-120330000D02*
X141830000Y-117670000D01*
X136690000Y-117670000D02*
X141830000Y-117670000D01*
%TO.C,D3*%
X170150000Y-111490000D02*
X166850000Y-111490000D01*
X170150000Y-111490000D02*
X170150000Y-117000000D01*
X166850000Y-111490000D02*
X166850000Y-117000000D01*
%TO.C,C1*%
X137738748Y-104765000D02*
X138261252Y-104765000D01*
X137738748Y-106235000D02*
X138261252Y-106235000D01*
%TO.C,U3*%
X174490000Y-108500000D02*
X174490000Y-110300000D01*
X177710000Y-110300000D02*
X177710000Y-107850000D01*
%TO.C,R3*%
X173272936Y-119765000D02*
X173727064Y-119765000D01*
X173272936Y-121235000D02*
X173727064Y-121235000D01*
%TO.C,R4*%
X181272936Y-115265000D02*
X181727064Y-115265000D01*
X181272936Y-116735000D02*
X181727064Y-116735000D01*
D11*
%TO.C,SW3*%
X137000000Y-88950000D02*
X137000000Y-94950000D01*
X137000000Y-94950000D02*
X143000000Y-94950000D01*
X143000000Y-88950000D02*
X137000000Y-88950000D01*
X143000000Y-94950000D02*
X143000000Y-88950000D01*
D12*
X133850000Y-89700000D02*
G75*
G03*
X133650000Y-89700000I-100000J0D01*
G01*
X133650000Y-89700000D02*
G75*
G03*
X133850000Y-89700000I100000J0D01*
G01*
D13*
%TO.C,C5*%
X181238748Y-120265000D02*
X181761252Y-120265000D01*
X181238748Y-121735000D02*
X181761252Y-121735000D01*
%TO.C,C4*%
X181238748Y-117765000D02*
X181761252Y-117765000D01*
X181238748Y-119235000D02*
X181761252Y-119235000D01*
%TO.C,C6*%
X148288748Y-98765000D02*
X148811252Y-98765000D01*
X148288748Y-100235000D02*
X148811252Y-100235000D01*
%TO.C,C2*%
X181188748Y-112765000D02*
X181711252Y-112765000D01*
X181188748Y-114235000D02*
X181711252Y-114235000D01*
%TO.C,R6*%
X133235000Y-91685436D02*
X133235000Y-92139564D01*
X131765000Y-91685436D02*
X131765000Y-92139564D01*
%TO.C,C3*%
X168238748Y-119765000D02*
X168761252Y-119765000D01*
X168238748Y-121235000D02*
X168761252Y-121235000D01*
%TO.C,U1*%
X137930000Y-107190000D02*
X134480000Y-107190000D01*
X137930000Y-107190000D02*
X139880000Y-107190000D01*
X137930000Y-112310000D02*
X135980000Y-112310000D01*
X137930000Y-112310000D02*
X139880000Y-112310000D01*
%TO.C,C9*%
X148238748Y-101265000D02*
X148761252Y-101265000D01*
X148238748Y-102735000D02*
X148761252Y-102735000D01*
%TO.C,R7*%
X153735000Y-116772936D02*
X153735000Y-117227064D01*
X152265000Y-116772936D02*
X152265000Y-117227064D01*
%TO.C,U6*%
X151595000Y-81400000D02*
X169995000Y-81400000D01*
X151595000Y-88200000D02*
X151195000Y-88200000D01*
X151595000Y-88200000D02*
X151595000Y-81400000D01*
X151595000Y-106250000D02*
X151595000Y-107250000D01*
X151595000Y-107250000D02*
X153095000Y-107250000D01*
X169995000Y-81400000D02*
X169995000Y-87600000D01*
X169995000Y-107250000D02*
X168495000Y-107250000D01*
X169995000Y-107250000D02*
X169995000Y-106250000D01*
%TO.C,D1*%
X144460000Y-108377500D02*
X142540000Y-108377500D01*
X142540000Y-108377500D02*
X142540000Y-111062500D01*
X144460000Y-111062500D02*
X144460000Y-108377500D01*
%TO.C,D2*%
X183877500Y-107540000D02*
X183877500Y-109460000D01*
X183877500Y-109460000D02*
X186562500Y-109460000D01*
X186562500Y-107540000D02*
X183877500Y-107540000D01*
%TO.C,J1*%
X180290000Y-97910000D02*
X180290000Y-96890000D01*
X184540000Y-97910000D02*
X180290000Y-97910000D01*
X180290000Y-96890000D02*
X181890000Y-96890000D01*
X181890000Y-96890000D02*
X181890000Y-95610000D01*
X188110000Y-96190000D02*
X188110000Y-91510000D01*
X181890000Y-95610000D02*
X179000000Y-95610000D01*
X180290000Y-90810000D02*
X181890000Y-90810000D01*
X181890000Y-90810000D02*
X181890000Y-92090000D01*
X180290000Y-89790000D02*
X180290000Y-90810000D01*
X184540000Y-89790000D02*
X180290000Y-89790000D01*
%TO.C,C7*%
X148288748Y-96265000D02*
X148811252Y-96265000D01*
X148288748Y-97735000D02*
X148811252Y-97735000D01*
%TO.C,U5*%
X174440000Y-115500000D02*
X174440000Y-117300000D01*
X174440000Y-115500000D02*
X174440000Y-114700000D01*
X177560000Y-115500000D02*
X177560000Y-116300000D01*
X177560000Y-115500000D02*
X177560000Y-114700000D01*
%TO.C,R8*%
X151235000Y-116772936D02*
X151235000Y-117227064D01*
X149765000Y-116772936D02*
X149765000Y-117227064D01*
D11*
%TO.C,J3*%
X155030000Y-117690000D02*
X155030000Y-119280000D01*
X155030000Y-123100000D02*
X155030000Y-121720000D01*
X163970000Y-117690000D02*
X163970000Y-119280000D01*
X163970000Y-123100000D02*
X155030000Y-123100000D01*
X163970000Y-123100000D02*
X163970000Y-121720000D01*
D13*
%TO.C,R1*%
X181727064Y-109235000D02*
X181272936Y-109235000D01*
X181727064Y-107765000D02*
X181272936Y-107765000D01*
D14*
%TO.C,U4*%
X177498600Y-102652400D02*
X177498600Y-101788800D01*
X174501400Y-102195200D02*
X174501400Y-102652400D01*
X174501400Y-101788800D02*
X174501400Y-102195200D01*
X175390400Y-101788800D02*
X174501400Y-101788800D01*
X177498600Y-101788800D02*
X176609600Y-101788800D01*
X174806200Y-102525400D02*
G75*
G03*
X174501400Y-102195200I-303685J25452D01*
G01*
D13*
%TO.C,C8*%
X146765000Y-92261252D02*
X146765000Y-91738748D01*
X148235000Y-92261252D02*
X148235000Y-91738748D01*
%TD*%
M02*
