%TF.GenerationSoftware,KiCad,Pcbnew,7.0.10*%
%TF.CreationDate,2025-07-15T10:48:48-04:00*%
%TF.ProjectId,EMGauntlet,454d4761-756e-4746-9c65-742e6b696361,rev?*%
%TF.SameCoordinates,Original*%
%TF.FileFunction,Copper,L1,Top*%
%TF.FilePolarity,Positive*%
%FSLAX46Y46*%
G04 Gerber Fmt 4.6, Leading zero omitted, Abs format (unit mm)*
G04 Created by KiCad (PCBNEW 7.0.10) date 2025-07-15 10:48:48*
%MOMM*%
%LPD*%
G01*
G04 APERTURE LIST*
G04 Aperture macros list*
%AMRoundRect*
0 Rectangle with rounded corners*
0 $1 Rounding radius*
0 $2 $3 $4 $5 $6 $7 $8 $9 X,Y pos of 4 corners*
0 Add a 4 corners polygon primitive as box body*
4,1,4,$2,$3,$4,$5,$6,$7,$8,$9,$2,$3,0*
0 Add four circle primitives for the rounded corners*
1,1,$1+$1,$2,$3*
1,1,$1+$1,$4,$5*
1,1,$1+$1,$6,$7*
1,1,$1+$1,$8,$9*
0 Add four rect primitives between the rounded corners*
20,1,$1+$1,$2,$3,$4,$5,0*
20,1,$1+$1,$4,$5,$6,$7,0*
20,1,$1+$1,$6,$7,$8,$9,0*
20,1,$1+$1,$8,$9,$2,$3,0*%
G04 Aperture macros list end*
%TA.AperFunction,SMDPad,CuDef*%
%ADD10R,2.100000X1.400000*%
%TD*%
%TA.AperFunction,SMDPad,CuDef*%
%ADD11R,1.000000X1.600000*%
%TD*%
%TA.AperFunction,SMDPad,CuDef*%
%ADD12RoundRect,0.250000X-0.262500X-0.450000X0.262500X-0.450000X0.262500X0.450000X-0.262500X0.450000X0*%
%TD*%
%TA.AperFunction,ComponentPad*%
%ADD13R,1.700000X1.700000*%
%TD*%
%TA.AperFunction,ComponentPad*%
%ADD14O,1.700000X1.700000*%
%TD*%
%TA.AperFunction,SMDPad,CuDef*%
%ADD15RoundRect,0.250000X-0.650000X1.000000X-0.650000X-1.000000X0.650000X-1.000000X0.650000X1.000000X0*%
%TD*%
%TA.AperFunction,SMDPad,CuDef*%
%ADD16RoundRect,0.250000X-0.250000X-0.475000X0.250000X-0.475000X0.250000X0.475000X-0.250000X0.475000X0*%
%TD*%
%TA.AperFunction,SMDPad,CuDef*%
%ADD17R,0.650000X1.060000*%
%TD*%
%TA.AperFunction,SMDPad,CuDef*%
%ADD18RoundRect,0.250000X-0.450000X0.262500X-0.450000X-0.262500X0.450000X-0.262500X0.450000X0.262500X0*%
%TD*%
%TA.AperFunction,SMDPad,CuDef*%
%ADD19RoundRect,0.150000X-0.825000X-0.150000X0.825000X-0.150000X0.825000X0.150000X-0.825000X0.150000X0*%
%TD*%
%TA.AperFunction,SMDPad,CuDef*%
%ADD20R,2.290000X3.000000*%
%TD*%
%TA.AperFunction,SMDPad,CuDef*%
%ADD21R,1.500000X0.900000*%
%TD*%
%TA.AperFunction,SMDPad,CuDef*%
%ADD22R,0.900000X1.500000*%
%TD*%
%TA.AperFunction,HeatsinkPad*%
%ADD23C,0.600000*%
%TD*%
%TA.AperFunction,SMDPad,CuDef*%
%ADD24R,3.900000X3.900000*%
%TD*%
%TA.AperFunction,SMDPad,CuDef*%
%ADD25RoundRect,0.243750X-0.456250X0.243750X-0.456250X-0.243750X0.456250X-0.243750X0.456250X0.243750X0*%
%TD*%
%TA.AperFunction,SMDPad,CuDef*%
%ADD26RoundRect,0.243750X-0.243750X-0.456250X0.243750X-0.456250X0.243750X0.456250X-0.243750X0.456250X0*%
%TD*%
%TA.AperFunction,SMDPad,CuDef*%
%ADD27RoundRect,0.250000X1.500000X-0.250000X1.500000X0.250000X-1.500000X0.250000X-1.500000X-0.250000X0*%
%TD*%
%TA.AperFunction,SMDPad,CuDef*%
%ADD28RoundRect,0.250001X1.449999X-0.499999X1.449999X0.499999X-1.449999X0.499999X-1.449999X-0.499999X0*%
%TD*%
%TA.AperFunction,SMDPad,CuDef*%
%ADD29RoundRect,0.150000X0.150000X-0.512500X0.150000X0.512500X-0.150000X0.512500X-0.150000X-0.512500X0*%
%TD*%
%TA.AperFunction,SMDPad,CuDef*%
%ADD30R,0.600000X1.140000*%
%TD*%
%TA.AperFunction,SMDPad,CuDef*%
%ADD31R,0.300000X1.140000*%
%TD*%
%TA.AperFunction,ComponentPad*%
%ADD32O,1.050000X2.100000*%
%TD*%
%TA.AperFunction,ComponentPad*%
%ADD33O,0.900000X1.800000*%
%TD*%
%TA.AperFunction,SMDPad,CuDef*%
%ADD34RoundRect,0.250000X0.262500X0.450000X-0.262500X0.450000X-0.262500X-0.450000X0.262500X-0.450000X0*%
%TD*%
%TA.AperFunction,SMDPad,CuDef*%
%ADD35R,0.558800X1.320800*%
%TD*%
%TA.AperFunction,SMDPad,CuDef*%
%ADD36RoundRect,0.250000X0.475000X-0.250000X0.475000X0.250000X-0.475000X0.250000X-0.475000X-0.250000X0*%
%TD*%
%TA.AperFunction,ViaPad*%
%ADD37C,0.800000*%
%TD*%
%TA.AperFunction,Conductor*%
%ADD38C,0.250000*%
%TD*%
G04 APERTURE END LIST*
D10*
%TO.P,SW4,1,1*%
%TO.N,GND*%
X135450000Y-97250000D03*
%TO.P,SW4,2,2*%
%TO.N,/BOOT*%
X135450000Y-101750000D03*
%TO.P,SW4,3*%
%TO.N,N/C*%
X144550000Y-97250000D03*
%TO.P,SW4,4*%
X144550000Y-101750000D03*
%TD*%
D11*
%TO.P,SW1,1,A*%
%TO.N,Net-(SW1-A)*%
X181500000Y-101100000D03*
%TO.P,SW1,2,B*%
%TO.N,VBAT*%
X184000000Y-101100000D03*
%TO.P,SW1,3*%
%TO.N,N/C*%
X186500000Y-101100000D03*
%TO.P,SW1,4*%
X181500000Y-103500000D03*
%TO.P,SW1,5*%
X184000000Y-103500000D03*
%TO.P,SW1,6*%
X186500000Y-103500000D03*
%TD*%
D12*
%TO.P,R2,1*%
%TO.N,Net-(U3-PROG)*%
X180587500Y-111000000D03*
%TO.P,R2,2*%
%TO.N,GND*%
X182412500Y-111000000D03*
%TD*%
D13*
%TO.P,J2,1,Pin_1*%
%TO.N,/IN1*%
X135420000Y-119000000D03*
D14*
%TO.P,J2,2,Pin_2*%
%TO.N,/IN2*%
X137960000Y-119000000D03*
%TO.P,J2,3,Pin_3*%
%TO.N,/REF*%
X140500000Y-119000000D03*
%TD*%
D15*
%TO.P,D3,1,K*%
%TO.N,Net-(D3-K)*%
X168500000Y-113000000D03*
%TO.P,D3,2,A*%
%TO.N,VBUS*%
X168500000Y-117000000D03*
%TD*%
D16*
%TO.P,C1,1*%
%TO.N,Net-(C1-Pad1)*%
X137050000Y-105500000D03*
%TO.P,C1,2*%
%TO.N,Net-(C1-Pad2)*%
X138950000Y-105500000D03*
%TD*%
D17*
%TO.P,U3,1,STAT*%
%TO.N,Net-(U3-STAT)*%
X177050000Y-108300000D03*
%TO.P,U3,2,VSS*%
%TO.N,GND*%
X176100000Y-108300000D03*
%TO.P,U3,3,VBAT*%
%TO.N,Net-(SW1-A)*%
X175150000Y-108300000D03*
%TO.P,U3,4,VDD*%
%TO.N,VBUS*%
X175150000Y-110500000D03*
%TO.P,U3,5,PROG*%
%TO.N,Net-(U3-PROG)*%
X177050000Y-110500000D03*
%TD*%
D12*
%TO.P,R3,1*%
%TO.N,VBUS*%
X172587500Y-120500000D03*
%TO.P,R3,2*%
%TO.N,GND*%
X174412500Y-120500000D03*
%TD*%
%TO.P,R4,1*%
%TO.N,Net-(D3-K)*%
X180587500Y-116000000D03*
%TO.P,R4,2*%
%TO.N,Net-(U5-EN)*%
X182412500Y-116000000D03*
%TD*%
D10*
%TO.P,SW3,1,1*%
%TO.N,GND*%
X135450000Y-89700000D03*
%TO.P,SW3,2,2*%
%TO.N,/RESET*%
X135450000Y-94200000D03*
%TO.P,SW3,3*%
%TO.N,N/C*%
X144550000Y-89700000D03*
%TO.P,SW3,4*%
X144550000Y-94200000D03*
%TD*%
D16*
%TO.P,C5,1*%
%TO.N,+3V3*%
X180550000Y-121000000D03*
%TO.P,C5,2*%
%TO.N,GND*%
X182450000Y-121000000D03*
%TD*%
%TO.P,C4,1*%
%TO.N,+3V3*%
X180550000Y-118500000D03*
%TO.P,C4,2*%
%TO.N,GND*%
X182450000Y-118500000D03*
%TD*%
%TO.P,C6,1*%
%TO.N,+3V3*%
X147600000Y-99500000D03*
%TO.P,C6,2*%
%TO.N,GND*%
X149500000Y-99500000D03*
%TD*%
%TO.P,C2,1*%
%TO.N,Net-(SW1-A)*%
X180500000Y-113500000D03*
%TO.P,C2,2*%
%TO.N,GND*%
X182400000Y-113500000D03*
%TD*%
D18*
%TO.P,R6,1*%
%TO.N,+3V3*%
X132500000Y-91000000D03*
%TO.P,R6,2*%
%TO.N,/RESET*%
X132500000Y-92825000D03*
%TD*%
D16*
%TO.P,C3,1*%
%TO.N,Net-(D3-K)*%
X167550000Y-120500000D03*
%TO.P,C3,2*%
%TO.N,GND*%
X169450000Y-120500000D03*
%TD*%
D19*
%TO.P,U1,1,Rg*%
%TO.N,Net-(C1-Pad1)*%
X135455000Y-107845000D03*
%TO.P,U1,2,-*%
%TO.N,/IN2*%
X135455000Y-109115000D03*
%TO.P,U1,3,+*%
%TO.N,/IN1*%
X135455000Y-110385000D03*
%TO.P,U1,4,V-*%
%TO.N,GND*%
X135455000Y-111655000D03*
%TO.P,U1,5,Ref*%
%TO.N,/REF*%
X140405000Y-111655000D03*
%TO.P,U1,6*%
%TO.N,Net-(D1-A)*%
X140405000Y-110385000D03*
%TO.P,U1,7,V+*%
%TO.N,+3V3*%
X140405000Y-109115000D03*
%TO.P,U1,8,Rg*%
%TO.N,Net-(C1-Pad2)*%
X140405000Y-107845000D03*
D20*
%TO.P,U1,9*%
%TO.N,N/C*%
X137930000Y-109750000D03*
%TD*%
D16*
%TO.P,C9,1*%
%TO.N,+3V3*%
X147550000Y-102000000D03*
%TO.P,C9,2*%
%TO.N,GND*%
X149450000Y-102000000D03*
%TD*%
D18*
%TO.P,R7,1*%
%TO.N,Net-(J3-CC2)*%
X153000000Y-116087500D03*
%TO.P,R7,2*%
%TO.N,GND*%
X153000000Y-117912500D03*
%TD*%
D21*
%TO.P,U6,1,GND*%
%TO.N,GND*%
X152045000Y-89040000D03*
%TO.P,U6,2,3V3*%
%TO.N,+3V3*%
X152045000Y-90310000D03*
%TO.P,U6,3,EN*%
%TO.N,/RESET*%
X152045000Y-91580000D03*
%TO.P,U6,4,IO4*%
%TO.N,unconnected-(U6-IO4-Pad4)*%
X152045000Y-92850000D03*
%TO.P,U6,5,IO5*%
%TO.N,/OUT*%
X152045000Y-94120000D03*
%TO.P,U6,6,IO6*%
%TO.N,unconnected-(U6-IO6-Pad6)*%
X152045000Y-95390000D03*
%TO.P,U6,7,IO7*%
%TO.N,unconnected-(U6-IO7-Pad7)*%
X152045000Y-96660000D03*
%TO.P,U6,8,IO15*%
%TO.N,unconnected-(U6-IO15-Pad8)*%
X152045000Y-97930000D03*
%TO.P,U6,9,IO16*%
%TO.N,unconnected-(U6-IO16-Pad9)*%
X152045000Y-99200000D03*
%TO.P,U6,10,IO17*%
%TO.N,unconnected-(U6-IO17-Pad10)*%
X152045000Y-100470000D03*
%TO.P,U6,11,IO18*%
%TO.N,unconnected-(U6-IO18-Pad11)*%
X152045000Y-101740000D03*
%TO.P,U6,12,IO8*%
%TO.N,unconnected-(U6-IO8-Pad12)*%
X152045000Y-103010000D03*
%TO.P,U6,13,IO19*%
%TO.N,/D-*%
X152045000Y-104280000D03*
%TO.P,U6,14,IO20*%
%TO.N,/D+*%
X152045000Y-105550000D03*
D22*
%TO.P,U6,15,IO3*%
%TO.N,unconnected-(U6-IO3-Pad15)*%
X153810000Y-106800000D03*
%TO.P,U6,16,IO46*%
%TO.N,unconnected-(U6-IO46-Pad16)*%
X155080000Y-106800000D03*
%TO.P,U6,17,IO9*%
%TO.N,unconnected-(U6-IO9-Pad17)*%
X156350000Y-106800000D03*
%TO.P,U6,18,IO10*%
%TO.N,unconnected-(U6-IO10-Pad18)*%
X157620000Y-106800000D03*
%TO.P,U6,19,IO11*%
%TO.N,unconnected-(U6-IO11-Pad19)*%
X158890000Y-106800000D03*
%TO.P,U6,20,IO12*%
%TO.N,unconnected-(U6-IO12-Pad20)*%
X160160000Y-106800000D03*
%TO.P,U6,21,IO13*%
%TO.N,unconnected-(U6-IO13-Pad21)*%
X161430000Y-106800000D03*
%TO.P,U6,22,IO14*%
%TO.N,unconnected-(U6-IO14-Pad22)*%
X162700000Y-106800000D03*
%TO.P,U6,23,IO21*%
%TO.N,unconnected-(U6-IO21-Pad23)*%
X163970000Y-106800000D03*
%TO.P,U6,24,IO47*%
%TO.N,unconnected-(U6-IO47-Pad24)*%
X165240000Y-106800000D03*
%TO.P,U6,25,IO48*%
%TO.N,unconnected-(U6-IO48-Pad25)*%
X166510000Y-106800000D03*
%TO.P,U6,26,IO45*%
%TO.N,unconnected-(U6-IO45-Pad26)*%
X167780000Y-106800000D03*
D21*
%TO.P,U6,27,IO0*%
%TO.N,/BOOT*%
X169545000Y-105550000D03*
%TO.P,U6,28,IO35*%
%TO.N,unconnected-(U6-IO35-Pad28)*%
X169545000Y-104280000D03*
%TO.P,U6,29,IO36*%
%TO.N,unconnected-(U6-IO36-Pad29)*%
X169545000Y-103010000D03*
%TO.P,U6,30,IO37*%
%TO.N,unconnected-(U6-IO37-Pad30)*%
X169545000Y-101740000D03*
%TO.P,U6,31,IO38*%
%TO.N,unconnected-(U6-IO38-Pad31)*%
X169545000Y-100470000D03*
%TO.P,U6,32,IO39*%
%TO.N,unconnected-(U6-IO39-Pad32)*%
X169545000Y-99200000D03*
%TO.P,U6,33,IO40*%
%TO.N,unconnected-(U6-IO40-Pad33)*%
X169545000Y-97930000D03*
%TO.P,U6,34,IO41*%
%TO.N,unconnected-(U6-IO41-Pad34)*%
X169545000Y-96660000D03*
%TO.P,U6,35,IO42*%
%TO.N,unconnected-(U6-IO42-Pad35)*%
X169545000Y-95390000D03*
%TO.P,U6,36,RXD0*%
%TO.N,unconnected-(U6-RXD0-Pad36)*%
X169545000Y-94120000D03*
%TO.P,U6,37,TXD0*%
%TO.N,unconnected-(U6-TXD0-Pad37)*%
X169545000Y-92850000D03*
%TO.P,U6,38,IO2*%
%TO.N,unconnected-(U6-IO2-Pad38)*%
X169545000Y-91580000D03*
%TO.P,U6,39,IO1*%
%TO.N,unconnected-(U6-IO1-Pad39)*%
X169545000Y-90310000D03*
%TO.P,U6,40,GND*%
%TO.N,GND*%
X169545000Y-89040000D03*
D23*
%TO.P,U6,41*%
%TO.N,N/C*%
X157895000Y-96060000D03*
X157895000Y-97460000D03*
X158595000Y-95360000D03*
X158595000Y-96760000D03*
X158595000Y-98160000D03*
X159295000Y-96060000D03*
D24*
X159295000Y-96760000D03*
D23*
X159295000Y-97460000D03*
X159995000Y-95360000D03*
X159995000Y-96760000D03*
X159995000Y-98160000D03*
X160695000Y-96060000D03*
X160695000Y-97460000D03*
%TD*%
D25*
%TO.P,D1,1,K*%
%TO.N,/OUT*%
X143500000Y-109125000D03*
%TO.P,D1,2,A*%
%TO.N,Net-(D1-A)*%
X143500000Y-111000000D03*
%TD*%
D26*
%TO.P,D2,1,K*%
%TO.N,Net-(D2-K)*%
X184625000Y-108500000D03*
%TO.P,D2,2,A*%
%TO.N,VBUS*%
X186500000Y-108500000D03*
%TD*%
D27*
%TO.P,J1,1,Pin_1*%
%TO.N,VBAT*%
X180750000Y-94850000D03*
%TO.P,J1,2,Pin_2*%
%TO.N,GND*%
X180750000Y-92850000D03*
D28*
%TO.P,J1,MP*%
%TO.N,N/C*%
X186500000Y-97200000D03*
X186500000Y-90500000D03*
%TD*%
D16*
%TO.P,C7,1*%
%TO.N,+3V3*%
X147600000Y-97000000D03*
%TO.P,C7,2*%
%TO.N,GND*%
X149500000Y-97000000D03*
%TD*%
D29*
%TO.P,U5,1,VIN*%
%TO.N,Net-(D3-K)*%
X175050000Y-116637500D03*
%TO.P,U5,2,GND*%
%TO.N,GND*%
X176000000Y-116637500D03*
%TO.P,U5,3,EN*%
%TO.N,Net-(U5-EN)*%
X176950000Y-116637500D03*
%TO.P,U5,4,NC*%
%TO.N,unconnected-(U5-NC-Pad4)*%
X176950000Y-114362500D03*
%TO.P,U5,5,VOUT*%
%TO.N,+3V3*%
X175050000Y-114362500D03*
%TD*%
D18*
%TO.P,R8,1*%
%TO.N,Net-(J3-CC1)*%
X150500000Y-116087500D03*
%TO.P,R8,2*%
%TO.N,GND*%
X150500000Y-117912500D03*
%TD*%
D30*
%TO.P,J3,A1,GND*%
%TO.N,GND*%
X156300000Y-115750000D03*
%TO.P,J3,A4,VBUS*%
%TO.N,VBUS*%
X157100000Y-115750000D03*
D31*
%TO.P,J3,A5,CC1*%
%TO.N,Net-(J3-CC1)*%
X158250000Y-115750000D03*
%TO.P,J3,A6,D+*%
%TO.N,/D+*%
X159250000Y-115750000D03*
%TO.P,J3,A7,D-*%
%TO.N,/D-*%
X159750000Y-115750000D03*
%TO.P,J3,A8,SBU1*%
%TO.N,unconnected-(J3-SBU1-PadA8)*%
X160750000Y-115750000D03*
D30*
%TO.P,J3,B1,GND*%
%TO.N,GND*%
X162700000Y-115750000D03*
%TO.P,J3,B4,VBUS*%
%TO.N,VBUS*%
X161900000Y-115750000D03*
D31*
%TO.P,J3,B5,CC2*%
%TO.N,Net-(J3-CC2)*%
X161250000Y-115750000D03*
%TO.P,J3,B6,D+*%
%TO.N,/D+*%
X160250000Y-115750000D03*
%TO.P,J3,B7,D-*%
%TO.N,/D-*%
X158750000Y-115750000D03*
%TO.P,J3,B8,SBU2*%
%TO.N,unconnected-(J3-SBU2-PadB8)*%
X157750000Y-115750000D03*
D32*
%TO.P,J3,SH1*%
%TO.N,N/C*%
X155180000Y-116320000D03*
%TO.P,J3,SH2*%
X163820000Y-116320000D03*
D33*
%TO.P,J3,SH3*%
X155180000Y-120500000D03*
%TO.P,J3,SH4*%
X163820000Y-120500000D03*
%TD*%
D34*
%TO.P,R1,1*%
%TO.N,Net-(D2-K)*%
X182412500Y-108500000D03*
%TO.P,R1,2*%
%TO.N,Net-(U3-STAT)*%
X180587500Y-108500000D03*
%TD*%
D35*
%TO.P,U4,1,G*%
%TO.N,VBUS*%
X175034800Y-103516000D03*
%TO.P,U4,2,S*%
%TO.N,Net-(D3-K)*%
X176965200Y-103516000D03*
%TO.P,U4,3,D*%
%TO.N,VBAT*%
X176000000Y-101484000D03*
%TD*%
D36*
%TO.P,C8,1*%
%TO.N,/RESET*%
X147500000Y-92950000D03*
%TO.P,C8,2*%
%TO.N,GND*%
X147500000Y-91050000D03*
%TD*%
D37*
%TO.N,GND*%
X180677000Y-90710700D03*
X150623000Y-101571000D03*
X184678000Y-114009000D03*
X176967000Y-118532000D03*
X184469000Y-110646000D03*
X149760000Y-90736200D03*
X154271000Y-88311200D03*
X148938000Y-117845000D03*
X184690000Y-121627000D03*
X183846500Y-117538800D03*
X138488000Y-90948700D03*
X168024000Y-89281200D03*
X150648000Y-99751400D03*
X177017000Y-106277000D03*
X133568000Y-97347600D03*
X176235000Y-120396000D03*
X133607000Y-111767000D03*
X164538000Y-114848000D03*
X169172000Y-122155000D03*
X150648000Y-97747600D03*
%TO.N,VBUS*%
X164837000Y-113796000D03*
X156677000Y-113448000D03*
X166531000Y-116121000D03*
%TO.N,Net-(J3-CC1)*%
X154288000Y-113409000D03*
X157780000Y-114291000D03*
%TD*%
D38*
%TO.N,Net-(C1-Pad1)*%
X137050000Y-105500000D02*
X135455000Y-107095000D01*
X135455000Y-107095000D02*
X135455000Y-107845000D01*
%TO.N,Net-(C1-Pad2)*%
X138950000Y-105500000D02*
X140405000Y-106955000D01*
X140405000Y-106955000D02*
X140405000Y-107845000D01*
%TO.N,Net-(SW1-A)*%
X175150000Y-107443000D02*
X174428000Y-106722000D01*
X175150000Y-109157000D02*
X176398000Y-110405000D01*
X176101000Y-99973100D02*
X181500000Y-99973100D01*
X174428000Y-101645000D02*
X176101000Y-99973100D01*
X176398000Y-110405000D02*
X176398000Y-111206000D01*
X175150000Y-108300000D02*
X175150000Y-107443000D01*
X178692000Y-113500000D02*
X180500000Y-113500000D01*
X181500000Y-99973100D02*
X181500000Y-101100000D01*
X176398000Y-111206000D02*
X178692000Y-113500000D01*
X174428000Y-106722000D02*
X174428000Y-101645000D01*
X175150000Y-108300000D02*
X175150000Y-109157000D01*
%TO.N,GND*%
X153851000Y-88311200D02*
X154271000Y-88311200D01*
X134073000Y-97250000D02*
X135450000Y-97250000D01*
X182909000Y-114009000D02*
X182400000Y-113500000D01*
X152999500Y-117912000D02*
X153000000Y-117912000D01*
X183077000Y-121627000D02*
X182450000Y-121000000D01*
X150623000Y-101571000D02*
X149879000Y-101571000D01*
X184690000Y-121627000D02*
X183077000Y-121627000D01*
X162700000Y-114853000D02*
X162700000Y-115750000D01*
X176000000Y-117565000D02*
X176000000Y-116638000D01*
X150433000Y-117845000D02*
X150500000Y-117912000D01*
X169450000Y-121876000D02*
X169172000Y-122155000D01*
X151909000Y-117912000D02*
X152999500Y-117912000D01*
X169450000Y-120500000D02*
X169450000Y-121876000D01*
X182767000Y-110646000D02*
X182589500Y-110823000D01*
X150500000Y-117912000D02*
X151909000Y-117912000D01*
X152705000Y-114853000D02*
X151909000Y-115648000D01*
X135343000Y-111767000D02*
X135455000Y-111655000D01*
X176967000Y-118532000D02*
X176000000Y-117565000D01*
X150648000Y-99751400D02*
X149751000Y-99751400D01*
X174516500Y-120396000D02*
X174412500Y-120500000D01*
X176000000Y-116638000D02*
X176000000Y-116637500D01*
X156300000Y-114853000D02*
X152705000Y-114853000D01*
X184678000Y-114009000D02*
X182909000Y-114009000D01*
X182589500Y-110823000D02*
X182412500Y-111000000D01*
X150648000Y-97747600D02*
X150248000Y-97747600D01*
X150248000Y-97747600D02*
X149500000Y-97000000D01*
X156300000Y-115750000D02*
X156300000Y-114853000D01*
X150500000Y-117912000D02*
X150500000Y-117912500D01*
X138076000Y-90948700D02*
X136827000Y-89700000D01*
X176235000Y-120396000D02*
X174516500Y-120396000D01*
X168227000Y-89281200D02*
X168468000Y-89040000D01*
X184469000Y-110646000D02*
X182767000Y-110646000D01*
X136827000Y-89700000D02*
X135450000Y-89700000D01*
X183411200Y-117538800D02*
X182450000Y-118500000D01*
X148938000Y-117845000D02*
X150433000Y-117845000D01*
X152045000Y-89040000D02*
X153122000Y-89040000D01*
X176100000Y-107194000D02*
X177017000Y-106277000D01*
X149879000Y-101571000D02*
X149450000Y-102000000D01*
X133976000Y-97347600D02*
X134073000Y-97250000D01*
X182589500Y-110823000D02*
X182412000Y-111000000D01*
X176100000Y-108300000D02*
X176100000Y-107194000D01*
X151909000Y-115648000D02*
X151909000Y-117912000D01*
X133607000Y-111767000D02*
X135343000Y-111767000D01*
X147814000Y-90736200D02*
X147500000Y-91050000D01*
X149760000Y-90736200D02*
X147814000Y-90736200D01*
X183846500Y-117538800D02*
X183411200Y-117538800D01*
X164538000Y-114848000D02*
X162705000Y-114848000D01*
X180750000Y-90784100D02*
X180750000Y-92850000D01*
X138488000Y-90948700D02*
X138076000Y-90948700D01*
X162705000Y-114848000D02*
X162700000Y-114853000D01*
X152999500Y-117912000D02*
X153000000Y-117912500D01*
X133568000Y-97347600D02*
X133976000Y-97347600D01*
X180677000Y-90710700D02*
X180750000Y-90784100D01*
X149751000Y-99751400D02*
X149500000Y-99500000D01*
X168468000Y-89040000D02*
X169545000Y-89040000D01*
X168024000Y-89281200D02*
X168227000Y-89281200D01*
X153122000Y-89040000D02*
X153851000Y-88311200D01*
%TO.N,Net-(D3-K)*%
X175050000Y-116637500D02*
X175050000Y-116638000D01*
X175050000Y-116638000D02*
X171412000Y-113000000D01*
X175050000Y-117643000D02*
X175050000Y-116638000D01*
X169990400Y-119412200D02*
X168637800Y-119412200D01*
X184882000Y-105371000D02*
X187347000Y-107836000D01*
X175324600Y-117917600D02*
X173500000Y-119742200D01*
X175050000Y-116249000D02*
X175050000Y-116637500D01*
X187347000Y-107836000D02*
X187347000Y-115147000D01*
X175682000Y-115617000D02*
X175050000Y-116249000D01*
X177572000Y-103516000D02*
X179426000Y-105371000D01*
X175324600Y-117917600D02*
X175050000Y-117643000D01*
X176965200Y-103516000D02*
X177572000Y-103516000D01*
X171412000Y-113000000D02*
X168500000Y-113000000D01*
X176965000Y-103516000D02*
X176965200Y-103516000D01*
X180205000Y-115617000D02*
X175682000Y-115617000D01*
X173500000Y-119742200D02*
X173500000Y-121151000D01*
X179426000Y-105371000D02*
X184882000Y-105371000D01*
X180587500Y-115999500D02*
X180587500Y-116000000D01*
X170644500Y-120066300D02*
X169990400Y-119412200D01*
X170644500Y-120154500D02*
X170644500Y-120066300D01*
X173072300Y-121578700D02*
X172068700Y-121578700D01*
X172068700Y-121578700D02*
X170644500Y-120154500D01*
X173500000Y-121151000D02*
X173072300Y-121578700D01*
X180588000Y-116000000D02*
X180587500Y-115999500D01*
X182906000Y-119587000D02*
X176994000Y-119587000D01*
X187347000Y-115147000D02*
X182906000Y-119587000D01*
X168637800Y-119412200D02*
X167550000Y-120500000D01*
X180587500Y-115999500D02*
X180205000Y-115617000D01*
X176994000Y-119587000D02*
X175324600Y-117917600D01*
%TO.N,/RESET*%
X135450000Y-94200000D02*
X136827000Y-94200000D01*
X134073000Y-94200000D02*
X135450000Y-94200000D01*
X147500000Y-92950000D02*
X148870000Y-91580000D01*
X132500000Y-92825000D02*
X132698000Y-92825000D01*
X148870000Y-91580000D02*
X152045000Y-91580000D01*
X136827000Y-94200000D02*
X138077000Y-92950000D01*
X138077000Y-92950000D02*
X147500000Y-92950000D01*
X132698000Y-92825000D02*
X134073000Y-94200000D01*
%TO.N,/OUT*%
X143500000Y-109125000D02*
X148550000Y-104075000D01*
X148550000Y-104075000D02*
X148550000Y-96396100D01*
X150826000Y-94120000D02*
X152045000Y-94120000D01*
X148550000Y-96396100D02*
X150826000Y-94120000D01*
%TO.N,Net-(D1-A)*%
X143500000Y-111000000D02*
X141020000Y-111000000D01*
X141020000Y-111000000D02*
X140405000Y-110385000D01*
%TO.N,Net-(D2-K)*%
X182412500Y-108500000D02*
X182412000Y-108500000D01*
X184625000Y-108500000D02*
X182412500Y-108500000D01*
%TO.N,VBUS*%
X175822000Y-111357000D02*
X179038000Y-114573000D01*
X181500000Y-110333000D02*
X182188000Y-109645000D01*
X172587500Y-120499500D02*
X172587500Y-120500000D01*
X162957000Y-113796000D02*
X161900000Y-114853000D01*
X185004000Y-109645000D02*
X186175000Y-108474000D01*
X175150000Y-110500000D02*
X175150000Y-111357000D01*
X181041000Y-114573000D02*
X181500000Y-114115000D01*
X167621000Y-116121000D02*
X167255000Y-116121000D01*
X167255000Y-111750000D02*
X167648000Y-111357000D01*
X157100000Y-115750000D02*
X157100000Y-114853000D01*
X156677000Y-114430000D02*
X156677000Y-113448000D01*
X175641000Y-103516000D02*
X175641000Y-103649000D01*
X179038000Y-114573000D02*
X181041000Y-114573000D01*
X186175000Y-108474000D02*
X186474000Y-108474000D01*
X175035000Y-103516000D02*
X175034800Y-103516000D01*
X175035000Y-103516000D02*
X175641000Y-103516000D01*
X172588000Y-120500000D02*
X172587500Y-120499500D01*
X167255000Y-116121000D02*
X166531000Y-116121000D01*
X184586000Y-106885000D02*
X186175000Y-108474000D01*
X186474000Y-108474000D02*
X186500000Y-108500000D01*
X167648000Y-111357000D02*
X175150000Y-111357000D01*
X172587500Y-120499500D02*
X169088000Y-117000000D01*
X157100000Y-114853000D02*
X156677000Y-114430000D01*
X161900000Y-114853000D02*
X161900000Y-115750000D01*
X168500000Y-117000000D02*
X167621000Y-116121000D01*
X164837000Y-113796000D02*
X162957000Y-113796000D01*
X182188000Y-109645000D02*
X185004000Y-109645000D01*
X175150000Y-111357000D02*
X175822000Y-111357000D01*
X175641000Y-103649000D02*
X178877000Y-106885000D01*
X178877000Y-106885000D02*
X184586000Y-106885000D01*
X167255000Y-116121000D02*
X167255000Y-111750000D01*
X181500000Y-114115000D02*
X181500000Y-110333000D01*
X169088000Y-117000000D02*
X168500000Y-117000000D01*
%TO.N,VBAT*%
X180750000Y-94850000D02*
X184000000Y-98100000D01*
X177349000Y-102227000D02*
X184000000Y-102227000D01*
X184000000Y-98100000D02*
X184000000Y-101100000D01*
X176000000Y-101484000D02*
X176606000Y-101484000D01*
X176606000Y-101484000D02*
X177349000Y-102227000D01*
X184000000Y-102227000D02*
X184000000Y-101100000D01*
%TO.N,Net-(J3-CC1)*%
X153178000Y-113409000D02*
X151092000Y-115495800D01*
X158250000Y-114761000D02*
X157780000Y-114291000D01*
X158250000Y-115750000D02*
X158250000Y-114761000D01*
X151091700Y-115495800D02*
X150500000Y-116087500D01*
X151092000Y-115495800D02*
X151091700Y-115495800D01*
X151092000Y-115495800D02*
X150500000Y-116088000D01*
X154288000Y-113409000D02*
X153178000Y-113409000D01*
%TO.N,/D+*%
X159275000Y-114853000D02*
X159275000Y-114119000D01*
X160250000Y-115750000D02*
X160250000Y-114853000D01*
X159250000Y-114944000D02*
X159275000Y-114919000D01*
X152045000Y-106889000D02*
X152045000Y-105550000D01*
X159250000Y-115750000D02*
X159250000Y-114944000D01*
X159275000Y-114119000D02*
X152045000Y-106889000D01*
X160250000Y-114853000D02*
X159275000Y-114853000D01*
X159275000Y-114919000D02*
X159275000Y-114853000D01*
%TO.N,/D-*%
X150968000Y-104280000D02*
X152045000Y-104280000D01*
X158750000Y-116647000D02*
X159750000Y-116647000D01*
X159750000Y-116647000D02*
X159750000Y-115750000D01*
X158750000Y-114233000D02*
X150968000Y-106452000D01*
X158750000Y-115750000D02*
X158750000Y-116647000D01*
X150968000Y-106452000D02*
X150968000Y-104280000D01*
X158750000Y-115750000D02*
X158750000Y-114233000D01*
%TO.N,Net-(J3-CC2)*%
X160119000Y-117778000D02*
X154690000Y-117778000D01*
X161250000Y-116647000D02*
X160119000Y-117778000D01*
X161250000Y-115750000D02*
X161250000Y-116647000D01*
X154690000Y-117778000D02*
X153000000Y-116088000D01*
X153000000Y-116087500D02*
X153000000Y-116088000D01*
%TO.N,Net-(U3-STAT)*%
X179931000Y-109157000D02*
X177050000Y-109157000D01*
X180587500Y-108500500D02*
X179931000Y-109157000D01*
X180588000Y-108500000D02*
X180587500Y-108500500D01*
X180587500Y-108500500D02*
X180587500Y-108500000D01*
X177050000Y-109157000D02*
X177050000Y-108300000D01*
%TO.N,Net-(U3-PROG)*%
X180587500Y-111000000D02*
X177550000Y-111000000D01*
X180588000Y-111000000D02*
X180587500Y-111000000D01*
X177550000Y-111000000D02*
X177050000Y-110500000D01*
%TO.N,Net-(U5-EN)*%
X177344000Y-117031000D02*
X176950000Y-116638000D01*
X181382000Y-117031000D02*
X177344000Y-117031000D01*
X181897000Y-116515500D02*
X182412500Y-116000000D01*
X181897000Y-116515500D02*
X181382000Y-117031000D01*
X176950000Y-116637500D02*
X176950000Y-116638000D01*
X182412000Y-116000000D02*
X181897000Y-116515500D01*
%TO.N,/BOOT*%
X147645000Y-117648000D02*
X148750000Y-118753000D01*
X147645000Y-113583000D02*
X147645000Y-117648000D01*
X165684000Y-116264000D02*
X165684000Y-112262000D01*
X165684000Y-112262000D02*
X169545000Y-108401000D01*
X136827000Y-101750000D02*
X142262000Y-107185000D01*
X163195000Y-118753000D02*
X165684000Y-116264000D01*
X144124000Y-110062000D02*
X147645000Y-113583000D01*
X142262000Y-109406000D02*
X142918000Y-110062000D01*
X142918000Y-110062000D02*
X144124000Y-110062000D01*
X142262000Y-107185000D02*
X142262000Y-109406000D01*
X135450000Y-101750000D02*
X136827000Y-101750000D01*
X148750000Y-118753000D02*
X163195000Y-118753000D01*
X169545000Y-108401000D02*
X169545000Y-105550000D01*
%TO.N,/IN2*%
X132384900Y-111321700D02*
X132384900Y-118141600D01*
X135455000Y-109115000D02*
X134591600Y-109115000D01*
X136438500Y-120176900D02*
X136783100Y-119832300D01*
X134591600Y-109115000D02*
X132384900Y-111321700D01*
X134420200Y-120176900D02*
X136438500Y-120176900D01*
X132384900Y-118141600D02*
X134420200Y-120176900D01*
X136783100Y-119832300D02*
X136783100Y-119000000D01*
X137960000Y-119000000D02*
X136783100Y-119000000D01*
%TO.N,/IN1*%
X135420000Y-119000000D02*
X135420000Y-117823100D01*
X132878800Y-115281900D02*
X132878800Y-111466900D01*
X135420000Y-117823100D02*
X132878800Y-115281900D01*
X132878800Y-111466900D02*
X133960700Y-110385000D01*
X133960700Y-110385000D02*
X135455000Y-110385000D01*
%TO.N,/REF*%
X140500000Y-119000000D02*
X140500000Y-117823100D01*
X140405000Y-117728100D02*
X140500000Y-117823100D01*
X140405000Y-111655000D02*
X140405000Y-117728100D01*
%TD*%
%TA.AperFunction,Conductor*%
%TO.N,+3V3*%
G36*
X136738039Y-82019685D02*
G01*
X136783794Y-82072489D01*
X136795000Y-82124000D01*
X136795000Y-87550000D01*
X153452905Y-87550000D01*
X153519944Y-87569685D01*
X153565699Y-87622489D01*
X153575643Y-87691647D01*
X153546618Y-87755203D01*
X153525785Y-87774321D01*
X153520683Y-87778028D01*
X153511973Y-87784356D01*
X153502203Y-87790772D01*
X153464649Y-87812975D01*
X153450440Y-87827180D01*
X153435664Y-87839798D01*
X153419414Y-87851605D01*
X153391607Y-87885217D01*
X153383734Y-87893867D01*
X153162137Y-88115403D01*
X153100809Y-88148880D01*
X153031136Y-88143892D01*
X152902485Y-88095909D01*
X152902483Y-88095908D01*
X152842883Y-88089501D01*
X152842881Y-88089500D01*
X152842873Y-88089500D01*
X152842864Y-88089500D01*
X151247129Y-88089500D01*
X151247123Y-88089501D01*
X151187516Y-88095908D01*
X151052671Y-88146202D01*
X151052664Y-88146206D01*
X150937455Y-88232452D01*
X150937452Y-88232455D01*
X150851206Y-88347664D01*
X150851202Y-88347671D01*
X150800908Y-88482517D01*
X150794501Y-88542116D01*
X150794501Y-88542123D01*
X150794500Y-88542135D01*
X150794500Y-89537870D01*
X150794501Y-89537876D01*
X150800908Y-89597483D01*
X150813925Y-89632381D01*
X150818909Y-89702072D01*
X150813925Y-89719047D01*
X150801403Y-89752619D01*
X150801401Y-89752627D01*
X150795000Y-89812155D01*
X150795000Y-90060000D01*
X153295000Y-90060000D01*
X153295000Y-89812172D01*
X153294999Y-89812158D01*
X153288276Y-89749632D01*
X153300680Y-89680872D01*
X153348290Y-89629734D01*
X153365391Y-89622324D01*
X153365144Y-89621753D01*
X153372305Y-89618653D01*
X153372311Y-89618652D01*
X153389599Y-89608430D01*
X153407049Y-89599882D01*
X153425732Y-89592486D01*
X153461037Y-89566834D01*
X153470788Y-89560430D01*
X153508352Y-89538223D01*
X153522555Y-89524021D01*
X153537339Y-89511397D01*
X153553587Y-89499594D01*
X153581404Y-89465966D01*
X153589245Y-89457350D01*
X153850081Y-89196586D01*
X153911407Y-89163112D01*
X153981098Y-89168106D01*
X153988186Y-89171003D01*
X153991197Y-89172344D01*
X154176354Y-89211700D01*
X154176355Y-89211700D01*
X154365644Y-89211700D01*
X154365646Y-89211700D01*
X154550803Y-89172344D01*
X154723730Y-89095351D01*
X154876871Y-88984088D01*
X155003533Y-88843416D01*
X155098179Y-88679484D01*
X155156674Y-88499456D01*
X155176460Y-88311200D01*
X155156674Y-88122944D01*
X155098179Y-87942916D01*
X155003533Y-87778984D01*
X154983711Y-87756970D01*
X154953483Y-87693981D01*
X154962108Y-87624646D01*
X155006849Y-87570980D01*
X155073502Y-87550022D01*
X155075863Y-87550000D01*
X184795000Y-87550000D01*
X184795000Y-82124000D01*
X184814685Y-82056961D01*
X184867489Y-82011206D01*
X184919000Y-82000000D01*
X193376000Y-82000000D01*
X193443039Y-82019685D01*
X193488794Y-82072489D01*
X193500000Y-82124000D01*
X193500000Y-122876000D01*
X193480315Y-122943039D01*
X193427511Y-122988794D01*
X193376000Y-123000000D01*
X169901409Y-123000000D01*
X169834370Y-122980315D01*
X169788615Y-122927511D01*
X169778671Y-122858353D01*
X169807696Y-122794797D01*
X169809259Y-122793028D01*
X169904533Y-122687216D01*
X169999179Y-122523284D01*
X170057674Y-122343256D01*
X170077460Y-122155000D01*
X170064308Y-122029869D01*
X170067525Y-121986074D01*
X170075500Y-121955019D01*
X170075500Y-121934312D01*
X170076992Y-121915132D01*
X170080195Y-121894673D01*
X170080195Y-121894667D01*
X170076072Y-121851873D01*
X170075500Y-121839981D01*
X170075500Y-121694377D01*
X170095185Y-121627338D01*
X170134406Y-121588837D01*
X170168654Y-121567713D01*
X170168653Y-121567713D01*
X170168656Y-121567712D01*
X170292712Y-121443656D01*
X170384814Y-121294334D01*
X170439999Y-121127797D01*
X170440656Y-121121365D01*
X170467051Y-121056674D01*
X170524231Y-121016522D01*
X170594042Y-121013658D01*
X170651695Y-121046286D01*
X171567897Y-121962488D01*
X171577722Y-121974751D01*
X171577943Y-121974569D01*
X171582911Y-121980574D01*
X171582913Y-121980576D01*
X171582914Y-121980577D01*
X171598568Y-121995277D01*
X171631922Y-122026599D01*
X171634721Y-122029312D01*
X171654222Y-122048814D01*
X171654226Y-122048817D01*
X171654229Y-122048820D01*
X171657402Y-122051281D01*
X171666274Y-122058859D01*
X171698118Y-122088762D01*
X171715676Y-122098414D01*
X171731933Y-122109093D01*
X171747764Y-122121373D01*
X171777503Y-122134242D01*
X171787852Y-122138721D01*
X171798341Y-122143860D01*
X171818605Y-122155000D01*
X171836608Y-122164897D01*
X171849223Y-122168135D01*
X171856005Y-122169877D01*
X171874419Y-122176181D01*
X171892804Y-122184138D01*
X171935961Y-122190973D01*
X171947356Y-122193332D01*
X171989681Y-122204200D01*
X172009716Y-122204200D01*
X172029113Y-122205726D01*
X172048896Y-122208860D01*
X172092375Y-122204750D01*
X172104044Y-122204200D01*
X172989557Y-122204200D01*
X173005177Y-122205924D01*
X173005204Y-122205639D01*
X173012960Y-122206371D01*
X173012967Y-122206373D01*
X173080173Y-122204261D01*
X173084068Y-122204200D01*
X173111646Y-122204200D01*
X173111650Y-122204200D01*
X173115624Y-122203697D01*
X173127263Y-122202780D01*
X173170927Y-122201409D01*
X173190169Y-122195817D01*
X173209212Y-122191874D01*
X173229092Y-122189364D01*
X173269701Y-122173285D01*
X173280744Y-122169503D01*
X173322690Y-122157318D01*
X173339929Y-122147122D01*
X173357403Y-122138562D01*
X173376027Y-122131188D01*
X173376027Y-122131187D01*
X173376032Y-122131186D01*
X173411383Y-122105500D01*
X173421114Y-122099108D01*
X173458720Y-122076870D01*
X173472889Y-122062699D01*
X173487679Y-122050068D01*
X173503887Y-122038294D01*
X173531738Y-122004626D01*
X173539579Y-121996009D01*
X173829244Y-121706344D01*
X173890566Y-121672861D01*
X173955924Y-121676320D01*
X173997203Y-121689999D01*
X174099991Y-121700500D01*
X174725008Y-121700499D01*
X174725016Y-121700498D01*
X174725019Y-121700498D01*
X174784939Y-121694377D01*
X174827797Y-121689999D01*
X174994334Y-121634814D01*
X175143656Y-121542712D01*
X175267712Y-121418656D01*
X175359814Y-121269334D01*
X175413712Y-121106679D01*
X175453485Y-121049235D01*
X175518001Y-121022412D01*
X175586776Y-121034727D01*
X175623568Y-121062712D01*
X175629128Y-121068887D01*
X175629130Y-121068889D01*
X175782265Y-121180148D01*
X175782270Y-121180151D01*
X175955192Y-121257142D01*
X175955197Y-121257144D01*
X176140354Y-121296500D01*
X176140355Y-121296500D01*
X176329644Y-121296500D01*
X176329646Y-121296500D01*
X176514803Y-121257144D01*
X176530848Y-121250000D01*
X179550001Y-121250000D01*
X179550001Y-121524986D01*
X179560494Y-121627697D01*
X179615641Y-121794119D01*
X179615643Y-121794124D01*
X179707684Y-121943345D01*
X179831654Y-122067315D01*
X179980875Y-122159356D01*
X179980880Y-122159358D01*
X180147302Y-122214505D01*
X180147309Y-122214506D01*
X180250019Y-122224999D01*
X180299999Y-122224998D01*
X180300000Y-122224998D01*
X180300000Y-121250000D01*
X179550001Y-121250000D01*
X176530848Y-121250000D01*
X176687730Y-121180151D01*
X176840871Y-121068888D01*
X176967533Y-120928216D01*
X177062179Y-120764284D01*
X177120674Y-120584256D01*
X177140460Y-120396000D01*
X177135569Y-120349460D01*
X177148139Y-120280730D01*
X177195872Y-120229707D01*
X177258890Y-120212500D01*
X179441728Y-120212500D01*
X179508767Y-120232185D01*
X179554522Y-120284989D01*
X179564466Y-120354147D01*
X179561754Y-120365655D01*
X179561911Y-120365689D01*
X179560493Y-120372309D01*
X179550000Y-120475013D01*
X179550000Y-120750000D01*
X180300000Y-120750000D01*
X180300000Y-120336500D01*
X180319685Y-120269461D01*
X180372489Y-120223706D01*
X180424000Y-120212500D01*
X180676000Y-120212500D01*
X180743039Y-120232185D01*
X180788794Y-120284989D01*
X180800000Y-120336500D01*
X180800000Y-122224999D01*
X180849972Y-122224999D01*
X180849986Y-122224998D01*
X180952697Y-122214505D01*
X181119119Y-122159358D01*
X181119124Y-122159356D01*
X181268345Y-122067315D01*
X181392318Y-121943342D01*
X181394165Y-121940348D01*
X181395969Y-121938724D01*
X181396798Y-121937677D01*
X181396976Y-121937818D01*
X181446110Y-121893621D01*
X181515073Y-121882396D01*
X181579156Y-121910236D01*
X181605243Y-121940341D01*
X181607288Y-121943656D01*
X181731344Y-122067712D01*
X181880666Y-122159814D01*
X182047203Y-122214999D01*
X182149991Y-122225500D01*
X182750008Y-122225499D01*
X182827107Y-122217622D01*
X182888954Y-122227180D01*
X182901104Y-122232438D01*
X182944261Y-122239273D01*
X182955656Y-122241632D01*
X182997981Y-122252500D01*
X183018016Y-122252500D01*
X183037413Y-122254026D01*
X183057196Y-122257160D01*
X183100675Y-122253050D01*
X183112344Y-122252500D01*
X183986252Y-122252500D01*
X184053291Y-122272185D01*
X184078400Y-122293526D01*
X184084126Y-122299885D01*
X184084130Y-122299889D01*
X184237265Y-122411148D01*
X184237270Y-122411151D01*
X184410192Y-122488142D01*
X184410197Y-122488144D01*
X184595354Y-122527500D01*
X184595355Y-122527500D01*
X184784644Y-122527500D01*
X184784646Y-122527500D01*
X184969803Y-122488144D01*
X185142730Y-122411151D01*
X185295871Y-122299888D01*
X185422533Y-122159216D01*
X185517179Y-121995284D01*
X185575674Y-121815256D01*
X185595460Y-121627000D01*
X185575674Y-121438744D01*
X185517179Y-121258716D01*
X185422533Y-121094784D01*
X185295871Y-120954112D01*
X185295870Y-120954111D01*
X185142734Y-120842851D01*
X185142729Y-120842848D01*
X184969807Y-120765857D01*
X184969802Y-120765855D01*
X184824001Y-120734865D01*
X184784646Y-120726500D01*
X184595354Y-120726500D01*
X184581767Y-120729388D01*
X184410197Y-120765855D01*
X184410192Y-120765857D01*
X184237270Y-120842848D01*
X184237265Y-120842851D01*
X184084130Y-120954110D01*
X184084126Y-120954114D01*
X184078400Y-120960474D01*
X184018913Y-120997121D01*
X183986252Y-121001500D01*
X183574500Y-121001500D01*
X183507461Y-120981815D01*
X183461706Y-120929011D01*
X183450500Y-120877500D01*
X183450499Y-120474998D01*
X183450498Y-120474980D01*
X183439999Y-120372203D01*
X183439998Y-120372200D01*
X183427691Y-120335061D01*
X183384814Y-120205666D01*
X183355093Y-120157481D01*
X183336654Y-120090090D01*
X183357577Y-120023427D01*
X183365143Y-120013282D01*
X183365480Y-120012875D01*
X183373257Y-120004337D01*
X187730762Y-115647814D01*
X187743042Y-115637978D01*
X187742863Y-115637761D01*
X187748870Y-115632789D01*
X187748877Y-115632786D01*
X187794870Y-115583808D01*
X187797583Y-115581009D01*
X187817068Y-115561529D01*
X187817068Y-115561528D01*
X187817073Y-115561524D01*
X187819553Y-115558325D01*
X187827132Y-115549451D01*
X187857062Y-115517582D01*
X187866696Y-115500055D01*
X187877385Y-115483787D01*
X187889637Y-115467997D01*
X187907005Y-115427871D01*
X187912139Y-115417395D01*
X187917695Y-115407289D01*
X187933197Y-115379092D01*
X187938169Y-115359724D01*
X187944476Y-115341306D01*
X187952417Y-115322964D01*
X187959259Y-115279796D01*
X187961626Y-115268367D01*
X187963774Y-115260001D01*
X187972500Y-115226019D01*
X187972500Y-115206027D01*
X187974029Y-115186615D01*
X187975993Y-115174223D01*
X187977158Y-115166875D01*
X187973049Y-115123355D01*
X187972500Y-115111700D01*
X187972500Y-107918737D01*
X187974224Y-107903123D01*
X187973938Y-107903096D01*
X187974672Y-107895333D01*
X187972561Y-107828143D01*
X187972500Y-107824249D01*
X187972500Y-107796651D01*
X187972500Y-107796650D01*
X187971997Y-107792670D01*
X187971080Y-107781021D01*
X187970970Y-107777527D01*
X187969709Y-107737372D01*
X187964120Y-107718137D01*
X187960174Y-107699084D01*
X187959857Y-107696574D01*
X187957664Y-107679208D01*
X187941578Y-107638581D01*
X187937803Y-107627554D01*
X187925617Y-107585610D01*
X187915421Y-107568369D01*
X187906860Y-107550893D01*
X187899486Y-107532269D01*
X187899485Y-107532267D01*
X187873809Y-107496926D01*
X187867412Y-107487190D01*
X187845170Y-107449579D01*
X187845167Y-107449576D01*
X187845165Y-107449573D01*
X187831005Y-107435413D01*
X187818370Y-107420620D01*
X187808982Y-107407700D01*
X187806594Y-107404413D01*
X187772945Y-107376576D01*
X187764304Y-107368713D01*
X185382803Y-104987212D01*
X185372980Y-104974950D01*
X185372759Y-104975134D01*
X185367786Y-104969122D01*
X185318776Y-104923099D01*
X185315977Y-104920386D01*
X185296477Y-104900885D01*
X185296471Y-104900880D01*
X185293286Y-104898409D01*
X185284434Y-104890848D01*
X185252582Y-104860938D01*
X185252580Y-104860936D01*
X185252577Y-104860935D01*
X185235029Y-104851288D01*
X185218763Y-104840604D01*
X185202932Y-104828324D01*
X185162849Y-104810978D01*
X185152363Y-104805841D01*
X185114094Y-104784803D01*
X185114092Y-104784802D01*
X185094693Y-104779822D01*
X185076281Y-104773518D01*
X185057898Y-104765562D01*
X185057892Y-104765560D01*
X185014760Y-104758729D01*
X185003309Y-104756357D01*
X184998462Y-104755112D01*
X184938427Y-104719368D01*
X184907248Y-104656841D01*
X184914822Y-104587384D01*
X184930046Y-104560698D01*
X184933306Y-104556344D01*
X184943796Y-104542331D01*
X184994091Y-104407483D01*
X185000500Y-104347873D01*
X185000500Y-104347870D01*
X185499500Y-104347870D01*
X185499501Y-104347876D01*
X185505908Y-104407483D01*
X185556202Y-104542328D01*
X185556206Y-104542335D01*
X185642452Y-104657544D01*
X185642455Y-104657547D01*
X185757664Y-104743793D01*
X185757671Y-104743797D01*
X185892517Y-104794091D01*
X185892516Y-104794091D01*
X185899444Y-104794835D01*
X185952127Y-104800500D01*
X187047872Y-104800499D01*
X187107483Y-104794091D01*
X187242331Y-104743796D01*
X187357546Y-104657546D01*
X187443796Y-104542331D01*
X187494091Y-104407483D01*
X187500500Y-104347873D01*
X187500499Y-102652128D01*
X187494091Y-102592517D01*
X187490503Y-102582898D01*
X187443797Y-102457671D01*
X187443796Y-102457669D01*
X187414350Y-102418334D01*
X187381393Y-102374310D01*
X187356977Y-102308847D01*
X187371828Y-102240574D01*
X187381394Y-102225689D01*
X187406410Y-102192272D01*
X187443796Y-102142331D01*
X187494091Y-102007483D01*
X187500500Y-101947873D01*
X187500499Y-100252128D01*
X187494091Y-100192517D01*
X187443796Y-100057669D01*
X187443795Y-100057668D01*
X187443793Y-100057664D01*
X187357547Y-99942455D01*
X187357544Y-99942452D01*
X187242335Y-99856206D01*
X187242328Y-99856202D01*
X187107482Y-99805908D01*
X187107483Y-99805908D01*
X187047883Y-99799501D01*
X187047881Y-99799500D01*
X187047873Y-99799500D01*
X187047864Y-99799500D01*
X185952129Y-99799500D01*
X185952123Y-99799501D01*
X185892516Y-99805908D01*
X185757671Y-99856202D01*
X185757664Y-99856206D01*
X185642455Y-99942452D01*
X185642452Y-99942455D01*
X185556206Y-100057664D01*
X185556202Y-100057671D01*
X185505908Y-100192517D01*
X185499501Y-100252116D01*
X185499501Y-100252123D01*
X185499500Y-100252135D01*
X185499500Y-101947870D01*
X185499501Y-101947876D01*
X185505908Y-102007483D01*
X185556202Y-102142328D01*
X185556203Y-102142330D01*
X185618606Y-102225689D01*
X185643023Y-102291153D01*
X185628172Y-102359426D01*
X185618606Y-102374311D01*
X185556203Y-102457669D01*
X185556202Y-102457671D01*
X185505908Y-102592517D01*
X185500277Y-102644899D01*
X185499501Y-102652123D01*
X185499500Y-102652135D01*
X185499500Y-104347870D01*
X185000500Y-104347870D01*
X185000499Y-102652128D01*
X184994091Y-102592517D01*
X184990503Y-102582898D01*
X184943797Y-102457671D01*
X184943796Y-102457669D01*
X184914350Y-102418334D01*
X184881393Y-102374310D01*
X184856977Y-102308847D01*
X184871828Y-102240574D01*
X184881394Y-102225689D01*
X184906410Y-102192272D01*
X184943796Y-102142331D01*
X184994091Y-102007483D01*
X185000500Y-101947873D01*
X185000499Y-100252128D01*
X184994091Y-100192517D01*
X184943796Y-100057669D01*
X184943795Y-100057668D01*
X184943793Y-100057664D01*
X184857547Y-99942455D01*
X184857544Y-99942452D01*
X184742334Y-99856205D01*
X184706164Y-99842714D01*
X184650231Y-99800841D01*
X184625816Y-99735376D01*
X184625500Y-99726533D01*
X184625500Y-98521685D01*
X184645185Y-98454646D01*
X184697989Y-98408891D01*
X184767147Y-98398947D01*
X184788497Y-98403977D01*
X184897203Y-98439999D01*
X184999992Y-98450500D01*
X184999997Y-98450500D01*
X188000003Y-98450500D01*
X188000008Y-98450500D01*
X188102797Y-98439999D01*
X188269334Y-98384814D01*
X188418655Y-98292711D01*
X188542711Y-98168655D01*
X188634814Y-98019334D01*
X188689999Y-97852797D01*
X188700500Y-97750008D01*
X188700500Y-96649992D01*
X188689999Y-96547203D01*
X188634814Y-96380666D01*
X188632127Y-96376310D01*
X188542713Y-96231348D01*
X188542710Y-96231344D01*
X188418655Y-96107289D01*
X188418651Y-96107286D01*
X188269337Y-96015187D01*
X188269335Y-96015186D01*
X188186065Y-95987593D01*
X188102797Y-95960001D01*
X188102795Y-95960000D01*
X188000015Y-95949500D01*
X188000008Y-95949500D01*
X184999992Y-95949500D01*
X184999984Y-95949500D01*
X184897204Y-95960000D01*
X184897203Y-95960001D01*
X184730664Y-96015186D01*
X184730662Y-96015187D01*
X184581348Y-96107286D01*
X184581344Y-96107289D01*
X184457289Y-96231344D01*
X184457286Y-96231348D01*
X184365187Y-96380662D01*
X184365186Y-96380664D01*
X184310001Y-96547203D01*
X184310000Y-96547204D01*
X184299500Y-96649984D01*
X184299500Y-97215547D01*
X184279815Y-97282586D01*
X184227011Y-97328341D01*
X184157853Y-97338285D01*
X184094297Y-97309260D01*
X184087819Y-97303228D01*
X182680268Y-95895678D01*
X182646783Y-95834355D01*
X182651767Y-95764663D01*
X182693639Y-95708730D01*
X182702823Y-95702477D01*
X182718656Y-95692712D01*
X182842712Y-95568656D01*
X182934814Y-95419334D01*
X182989999Y-95252797D01*
X183000500Y-95150009D01*
X183000499Y-94549992D01*
X182990535Y-94452455D01*
X182989999Y-94447203D01*
X182989998Y-94447200D01*
X182963159Y-94366206D01*
X182934814Y-94280666D01*
X182842712Y-94131344D01*
X182718656Y-94007288D01*
X182718655Y-94007287D01*
X182634757Y-93955539D01*
X182588032Y-93903591D01*
X182576809Y-93834629D01*
X182604653Y-93770546D01*
X182634757Y-93744461D01*
X182702464Y-93702699D01*
X182718656Y-93692712D01*
X182842712Y-93568656D01*
X182934814Y-93419334D01*
X182989999Y-93252797D01*
X183000500Y-93150009D01*
X183000499Y-92549992D01*
X182996667Y-92512483D01*
X182989999Y-92447203D01*
X182989998Y-92447200D01*
X182977572Y-92409700D01*
X182934814Y-92280666D01*
X182842712Y-92131344D01*
X182718656Y-92007288D01*
X182569334Y-91915186D01*
X182402797Y-91860001D01*
X182402795Y-91860000D01*
X182300016Y-91849500D01*
X182300009Y-91849500D01*
X181499500Y-91849500D01*
X181432461Y-91829815D01*
X181386706Y-91777011D01*
X181375500Y-91725500D01*
X181375500Y-91328312D01*
X181395185Y-91261273D01*
X181407345Y-91245344D01*
X181409533Y-91242916D01*
X181504179Y-91078984D01*
X181513592Y-91050015D01*
X184299500Y-91050015D01*
X184310000Y-91152795D01*
X184310001Y-91152796D01*
X184365186Y-91319335D01*
X184365187Y-91319337D01*
X184457286Y-91468651D01*
X184457289Y-91468655D01*
X184581344Y-91592710D01*
X184581348Y-91592713D01*
X184730662Y-91684812D01*
X184730664Y-91684813D01*
X184730666Y-91684814D01*
X184897203Y-91739999D01*
X184999992Y-91750500D01*
X184999997Y-91750500D01*
X188000003Y-91750500D01*
X188000008Y-91750500D01*
X188102797Y-91739999D01*
X188269334Y-91684814D01*
X188418655Y-91592711D01*
X188542711Y-91468655D01*
X188634814Y-91319334D01*
X188689999Y-91152797D01*
X188700500Y-91050008D01*
X188700500Y-89949992D01*
X188689999Y-89847203D01*
X188634814Y-89680666D01*
X188631319Y-89675000D01*
X188542713Y-89531348D01*
X188542710Y-89531344D01*
X188418655Y-89407289D01*
X188418651Y-89407286D01*
X188269337Y-89315187D01*
X188269335Y-89315186D01*
X188166771Y-89281200D01*
X188102797Y-89260001D01*
X188102795Y-89260000D01*
X188000015Y-89249500D01*
X188000008Y-89249500D01*
X184999992Y-89249500D01*
X184999984Y-89249500D01*
X184897204Y-89260000D01*
X184897203Y-89260001D01*
X184730664Y-89315186D01*
X184730662Y-89315187D01*
X184581348Y-89407286D01*
X184581344Y-89407289D01*
X184457289Y-89531344D01*
X184457286Y-89531348D01*
X184365187Y-89680662D01*
X184365186Y-89680664D01*
X184310001Y-89847203D01*
X184310000Y-89847204D01*
X184299500Y-89949984D01*
X184299500Y-91050015D01*
X181513592Y-91050015D01*
X181562674Y-90898956D01*
X181582460Y-90710700D01*
X181562674Y-90522444D01*
X181504179Y-90342416D01*
X181409533Y-90178484D01*
X181282871Y-90037812D01*
X181282870Y-90037811D01*
X181129734Y-89926551D01*
X181129729Y-89926548D01*
X180956807Y-89849557D01*
X180956802Y-89849555D01*
X180786776Y-89813416D01*
X180771646Y-89810200D01*
X180582354Y-89810200D01*
X180567224Y-89813416D01*
X180397197Y-89849555D01*
X180397192Y-89849557D01*
X180224270Y-89926548D01*
X180224265Y-89926551D01*
X180071129Y-90037811D01*
X179944466Y-90178485D01*
X179849821Y-90342415D01*
X179849818Y-90342422D01*
X179798997Y-90498834D01*
X179791326Y-90522444D01*
X179771540Y-90710700D01*
X179791326Y-90898956D01*
X179791327Y-90898959D01*
X179849818Y-91078977D01*
X179849821Y-91078984D01*
X179944467Y-91242916D01*
X180040903Y-91350019D01*
X180071129Y-91383588D01*
X180071131Y-91383590D01*
X180073383Y-91385226D01*
X180074371Y-91386507D01*
X180075963Y-91387941D01*
X180075701Y-91388231D01*
X180116050Y-91440555D01*
X180124500Y-91485546D01*
X180124500Y-91725500D01*
X180104815Y-91792539D01*
X180052011Y-91838294D01*
X180000500Y-91849500D01*
X179199998Y-91849500D01*
X179199980Y-91849501D01*
X179097203Y-91860000D01*
X179097200Y-91860001D01*
X178930668Y-91915185D01*
X178930663Y-91915187D01*
X178781342Y-92007289D01*
X178657289Y-92131342D01*
X178565187Y-92280663D01*
X178565185Y-92280668D01*
X178550191Y-92325918D01*
X178510001Y-92447203D01*
X178510001Y-92447204D01*
X178510000Y-92447204D01*
X178499500Y-92549983D01*
X178499500Y-93150001D01*
X178499501Y-93150019D01*
X178510000Y-93252796D01*
X178510001Y-93252799D01*
X178541503Y-93347864D01*
X178565186Y-93419334D01*
X178657288Y-93568656D01*
X178781344Y-93692712D01*
X178865243Y-93744461D01*
X178911967Y-93796409D01*
X178923190Y-93865372D01*
X178895346Y-93929454D01*
X178865243Y-93955539D01*
X178781342Y-94007289D01*
X178657289Y-94131342D01*
X178565187Y-94280663D01*
X178565185Y-94280668D01*
X178537349Y-94364670D01*
X178510001Y-94447203D01*
X178510001Y-94447204D01*
X178510000Y-94447204D01*
X178499500Y-94549983D01*
X178499500Y-95150001D01*
X178499501Y-95150019D01*
X178510000Y-95252796D01*
X178510001Y-95252799D01*
X178534467Y-95326631D01*
X178565186Y-95419334D01*
X178657288Y-95568656D01*
X178781344Y-95692712D01*
X178930666Y-95784814D01*
X179097203Y-95839999D01*
X179199991Y-95850500D01*
X180814547Y-95850499D01*
X180881586Y-95870184D01*
X180902228Y-95886818D01*
X183338181Y-98322771D01*
X183371666Y-98384094D01*
X183374500Y-98410452D01*
X183374500Y-99726533D01*
X183354815Y-99793572D01*
X183302011Y-99839327D01*
X183293836Y-99842714D01*
X183257665Y-99856205D01*
X183142455Y-99942452D01*
X183142452Y-99942455D01*
X183056206Y-100057664D01*
X183056202Y-100057671D01*
X183005908Y-100192517D01*
X182999501Y-100252116D01*
X182999500Y-100252127D01*
X182999500Y-100923978D01*
X182999501Y-101477500D01*
X182979816Y-101544539D01*
X182927013Y-101590294D01*
X182875501Y-101601500D01*
X182624500Y-101601500D01*
X182557461Y-101581815D01*
X182511706Y-101529011D01*
X182500500Y-101477500D01*
X182500499Y-100252129D01*
X182500498Y-100252123D01*
X182500497Y-100252116D01*
X182494091Y-100192517D01*
X182443796Y-100057669D01*
X182443795Y-100057668D01*
X182443793Y-100057664D01*
X182357547Y-99942455D01*
X182357544Y-99942452D01*
X182242335Y-99856206D01*
X182242326Y-99856201D01*
X182158894Y-99825084D01*
X182102960Y-99783214D01*
X182084296Y-99747221D01*
X182070467Y-99704659D01*
X182066089Y-99697761D01*
X182055495Y-99676968D01*
X182052486Y-99669368D01*
X182052484Y-99669365D01*
X182052483Y-99669363D01*
X182036930Y-99647957D01*
X182019870Y-99624477D01*
X182015501Y-99618047D01*
X181985785Y-99571222D01*
X181979834Y-99565634D01*
X181964398Y-99548125D01*
X181959594Y-99541513D01*
X181959591Y-99541511D01*
X181959591Y-99541510D01*
X181925743Y-99513509D01*
X181916858Y-99506158D01*
X181911018Y-99501010D01*
X181883114Y-99474806D01*
X181870582Y-99463038D01*
X181870581Y-99463037D01*
X181870577Y-99463034D01*
X181863415Y-99459097D01*
X181844114Y-99445980D01*
X181837824Y-99440777D01*
X181837823Y-99440776D01*
X181787620Y-99417152D01*
X181780720Y-99413636D01*
X181732092Y-99386903D01*
X181732089Y-99386902D01*
X181732085Y-99386900D01*
X181724174Y-99384869D01*
X181702222Y-99376966D01*
X181694825Y-99373485D01*
X181694821Y-99373484D01*
X181640356Y-99363094D01*
X181632758Y-99361396D01*
X181579023Y-99347600D01*
X181579019Y-99347600D01*
X181570847Y-99347600D01*
X181547615Y-99345404D01*
X181539588Y-99343873D01*
X181539585Y-99343872D01*
X181484241Y-99347355D01*
X181476455Y-99347600D01*
X176183867Y-99347600D01*
X176168330Y-99345882D01*
X176168302Y-99346183D01*
X176160540Y-99345446D01*
X176093218Y-99347540D01*
X176089364Y-99347600D01*
X176061642Y-99347600D01*
X176057783Y-99348088D01*
X176046108Y-99349004D01*
X176002581Y-99350357D01*
X176002578Y-99350358D01*
X175983213Y-99355976D01*
X175964209Y-99359909D01*
X175944208Y-99362436D01*
X175903706Y-99378471D01*
X175892622Y-99382264D01*
X175850798Y-99394401D01*
X175833443Y-99404656D01*
X175816020Y-99413188D01*
X175797273Y-99420611D01*
X175797259Y-99420619D01*
X175762031Y-99446213D01*
X175752239Y-99452644D01*
X175714741Y-99474804D01*
X175714739Y-99474806D01*
X175700485Y-99489051D01*
X175685725Y-99501654D01*
X175669413Y-99513506D01*
X175669409Y-99513509D01*
X175641650Y-99547064D01*
X175633760Y-99555732D01*
X174044289Y-101144158D01*
X174031960Y-101154032D01*
X174032133Y-101154241D01*
X174026124Y-101159211D01*
X173980193Y-101208122D01*
X173977460Y-101210942D01*
X173958011Y-101230379D01*
X173958011Y-101230380D01*
X173955471Y-101233652D01*
X173947921Y-101242487D01*
X173917941Y-101274413D01*
X173917937Y-101274419D01*
X173908343Y-101291869D01*
X173897644Y-101308152D01*
X173885430Y-101323888D01*
X173868022Y-101364080D01*
X173862901Y-101374528D01*
X173841805Y-101412903D01*
X173841802Y-101412909D01*
X173836852Y-101432189D01*
X173830536Y-101450627D01*
X173822618Y-101468907D01*
X173815751Y-101512171D01*
X173813389Y-101523567D01*
X173802500Y-101565973D01*
X173802500Y-101585887D01*
X173800967Y-101605325D01*
X173797846Y-101624984D01*
X173797846Y-101624994D01*
X173801953Y-101668586D01*
X173802500Y-101680216D01*
X173802500Y-106639522D01*
X173800763Y-106655307D01*
X173801016Y-106655331D01*
X173800287Y-106663100D01*
X173802436Y-106730028D01*
X173802500Y-106734007D01*
X173802500Y-106761349D01*
X173803035Y-106765587D01*
X173803948Y-106777140D01*
X173805358Y-106821056D01*
X173805359Y-106821059D01*
X173810888Y-106840043D01*
X173814857Y-106859172D01*
X173817336Y-106878792D01*
X173817336Y-106878795D01*
X173833510Y-106919646D01*
X173837268Y-106930610D01*
X173849555Y-106972788D01*
X173849556Y-106972791D01*
X173859636Y-106989810D01*
X173868233Y-107007345D01*
X173871653Y-107015981D01*
X173875513Y-107025730D01*
X173875517Y-107025736D01*
X173901337Y-107061275D01*
X173907708Y-107070966D01*
X173916833Y-107086372D01*
X173930098Y-107108766D01*
X173944087Y-107122736D01*
X173956783Y-107137590D01*
X173968403Y-107153583D01*
X173968406Y-107153587D01*
X173984695Y-107167062D01*
X174002254Y-107181589D01*
X174010833Y-107189390D01*
X174316190Y-107494324D01*
X174349718Y-107555624D01*
X174344782Y-107625319D01*
X174344753Y-107625397D01*
X174330908Y-107662517D01*
X174325586Y-107712026D01*
X174324501Y-107722123D01*
X174324500Y-107722135D01*
X174324500Y-108877870D01*
X174324501Y-108877876D01*
X174330908Y-108937483D01*
X174381202Y-109072328D01*
X174381203Y-109072329D01*
X174381204Y-109072331D01*
X174467454Y-109187546D01*
X174485447Y-109201015D01*
X174527318Y-109256947D01*
X174530211Y-109265679D01*
X174532877Y-109274853D01*
X174536824Y-109293911D01*
X174539336Y-109313792D01*
X174555414Y-109354403D01*
X174559197Y-109365452D01*
X174571381Y-109407390D01*
X174574099Y-109413670D01*
X174582657Y-109483013D01*
X174552367Y-109545976D01*
X174534609Y-109562181D01*
X174467452Y-109612455D01*
X174381206Y-109727664D01*
X174381202Y-109727671D01*
X174330908Y-109862517D01*
X174324501Y-109922116D01*
X174324500Y-109922127D01*
X174324500Y-110306088D01*
X174324501Y-110607500D01*
X174304817Y-110674539D01*
X174252013Y-110720294D01*
X174200501Y-110731500D01*
X168398452Y-110731500D01*
X168331413Y-110711815D01*
X168285658Y-110659011D01*
X168275714Y-110589853D01*
X168304739Y-110526297D01*
X168310771Y-110519819D01*
X168714225Y-110116365D01*
X169928786Y-108901802D01*
X169941048Y-108891980D01*
X169940865Y-108891759D01*
X169946868Y-108886791D01*
X169946877Y-108886786D01*
X169992934Y-108837739D01*
X169995582Y-108835006D01*
X170015120Y-108815470D01*
X170017570Y-108812310D01*
X170025154Y-108803429D01*
X170055062Y-108771582D01*
X170064714Y-108754023D01*
X170075389Y-108737772D01*
X170087674Y-108721936D01*
X170105030Y-108681825D01*
X170110161Y-108671354D01*
X170131194Y-108633098D01*
X170131194Y-108633097D01*
X170131197Y-108633092D01*
X170136180Y-108613680D01*
X170142477Y-108595291D01*
X170150438Y-108576895D01*
X170157270Y-108533748D01*
X170159639Y-108522316D01*
X170170499Y-108480022D01*
X170170500Y-108480017D01*
X170170500Y-108459983D01*
X170172027Y-108440582D01*
X170175160Y-108420804D01*
X170171050Y-108377324D01*
X170170500Y-108365655D01*
X170170500Y-106624499D01*
X170190185Y-106557460D01*
X170242989Y-106511705D01*
X170294500Y-106500499D01*
X170342871Y-106500499D01*
X170342872Y-106500499D01*
X170402483Y-106494091D01*
X170537331Y-106443796D01*
X170652546Y-106357546D01*
X170738796Y-106242331D01*
X170789091Y-106107483D01*
X170795500Y-106047873D01*
X170795499Y-105052128D01*
X170789091Y-104992517D01*
X170776340Y-104958332D01*
X170771357Y-104888642D01*
X170776340Y-104871669D01*
X170789091Y-104837483D01*
X170795500Y-104777873D01*
X170795499Y-103782128D01*
X170789091Y-103722517D01*
X170776340Y-103688332D01*
X170771357Y-103618642D01*
X170776340Y-103601669D01*
X170789091Y-103567483D01*
X170795500Y-103507873D01*
X170795499Y-102512128D01*
X170789091Y-102452517D01*
X170776340Y-102418332D01*
X170771357Y-102348642D01*
X170776340Y-102331669D01*
X170789091Y-102297483D01*
X170795500Y-102237873D01*
X170795499Y-101242128D01*
X170789091Y-101182517D01*
X170776340Y-101148332D01*
X170771357Y-101078642D01*
X170776340Y-101061669D01*
X170789091Y-101027483D01*
X170795500Y-100967873D01*
X170795499Y-99972128D01*
X170789091Y-99912517D01*
X170776340Y-99878332D01*
X170771357Y-99808642D01*
X170776340Y-99791669D01*
X170789091Y-99757483D01*
X170795500Y-99697873D01*
X170795499Y-98702128D01*
X170789091Y-98642517D01*
X170776340Y-98608332D01*
X170771357Y-98538642D01*
X170776340Y-98521669D01*
X170789091Y-98487483D01*
X170795500Y-98427873D01*
X170795499Y-97432128D01*
X170789091Y-97372517D01*
X170776340Y-97338332D01*
X170771357Y-97268642D01*
X170776340Y-97251669D01*
X170789091Y-97217483D01*
X170795500Y-97157873D01*
X170795499Y-96162128D01*
X170789091Y-96102517D01*
X170776340Y-96068332D01*
X170771357Y-95998642D01*
X170776340Y-95981669D01*
X170789091Y-95947483D01*
X170795500Y-95887873D01*
X170795499Y-94892128D01*
X170789091Y-94832517D01*
X170776340Y-94798332D01*
X170771357Y-94728642D01*
X170776340Y-94711669D01*
X170789091Y-94677483D01*
X170795500Y-94617873D01*
X170795499Y-93622128D01*
X170789091Y-93562517D01*
X170776340Y-93528332D01*
X170771357Y-93458642D01*
X170776340Y-93441669D01*
X170789091Y-93407483D01*
X170795500Y-93347873D01*
X170795499Y-92352128D01*
X170789091Y-92292517D01*
X170776340Y-92258332D01*
X170771357Y-92188642D01*
X170776340Y-92171669D01*
X170789091Y-92137483D01*
X170795500Y-92077873D01*
X170795499Y-91082128D01*
X170789091Y-91022517D01*
X170776340Y-90988332D01*
X170771357Y-90918642D01*
X170776340Y-90901669D01*
X170789091Y-90867483D01*
X170795500Y-90807873D01*
X170795499Y-89812128D01*
X170789091Y-89752517D01*
X170776340Y-89718332D01*
X170771357Y-89648642D01*
X170776338Y-89631672D01*
X170789091Y-89597483D01*
X170795500Y-89537873D01*
X170795499Y-88542128D01*
X170789091Y-88482517D01*
X170765794Y-88420055D01*
X170738797Y-88347671D01*
X170738793Y-88347664D01*
X170652547Y-88232455D01*
X170652544Y-88232452D01*
X170537335Y-88146206D01*
X170537328Y-88146202D01*
X170402482Y-88095908D01*
X170402483Y-88095908D01*
X170342883Y-88089501D01*
X170342881Y-88089500D01*
X170342873Y-88089500D01*
X170342864Y-88089500D01*
X168747129Y-88089500D01*
X168747123Y-88089501D01*
X168687516Y-88095908D01*
X168552671Y-88146202D01*
X168552664Y-88146206D01*
X168437456Y-88232452D01*
X168437455Y-88232453D01*
X168437454Y-88232454D01*
X168351204Y-88347669D01*
X168351202Y-88347671D01*
X168345890Y-88354769D01*
X168343008Y-88352611D01*
X168305693Y-88389909D01*
X168237417Y-88404744D01*
X168220512Y-88402352D01*
X168161971Y-88389909D01*
X168118646Y-88380700D01*
X167929354Y-88380700D01*
X167896897Y-88387598D01*
X167744197Y-88420055D01*
X167744192Y-88420057D01*
X167571270Y-88497048D01*
X167571265Y-88497051D01*
X167418129Y-88608311D01*
X167291466Y-88748985D01*
X167196821Y-88912915D01*
X167196818Y-88912922D01*
X167165842Y-89008258D01*
X167138326Y-89092944D01*
X167118540Y-89281200D01*
X167138326Y-89469456D01*
X167138327Y-89469459D01*
X167196818Y-89649477D01*
X167196821Y-89649484D01*
X167291467Y-89813416D01*
X167346969Y-89875057D01*
X167418129Y-89954088D01*
X167571265Y-90065348D01*
X167571270Y-90065351D01*
X167744192Y-90142342D01*
X167744197Y-90142344D01*
X167929354Y-90181700D01*
X167929355Y-90181700D01*
X168118641Y-90181700D01*
X168118646Y-90181700D01*
X168144721Y-90176157D01*
X168214383Y-90181472D01*
X168270118Y-90223607D01*
X168294225Y-90289186D01*
X168294500Y-90297447D01*
X168294500Y-90807870D01*
X168294501Y-90807876D01*
X168300908Y-90867481D01*
X168313659Y-90901669D01*
X168318642Y-90971361D01*
X168313659Y-90988331D01*
X168300908Y-91022518D01*
X168294838Y-91078984D01*
X168294501Y-91082123D01*
X168294500Y-91082135D01*
X168294500Y-92077870D01*
X168294501Y-92077876D01*
X168300908Y-92137481D01*
X168313659Y-92171669D01*
X168318642Y-92241361D01*
X168313659Y-92258331D01*
X168300908Y-92292518D01*
X168296145Y-92336825D01*
X168294501Y-92352123D01*
X168294500Y-92352135D01*
X168294500Y-93347870D01*
X168294501Y-93347876D01*
X168300908Y-93407481D01*
X168313659Y-93441669D01*
X168318642Y-93511361D01*
X168313659Y-93528331D01*
X168300908Y-93562518D01*
X168294531Y-93621838D01*
X168294501Y-93622123D01*
X168294500Y-93622135D01*
X168294500Y-94617870D01*
X168294501Y-94617876D01*
X168300908Y-94677481D01*
X168313659Y-94711669D01*
X168318642Y-94781361D01*
X168313659Y-94798331D01*
X168300908Y-94832518D01*
X168294542Y-94891739D01*
X168294501Y-94892123D01*
X168294500Y-94892135D01*
X168294500Y-95887870D01*
X168294501Y-95887876D01*
X168300908Y-95947481D01*
X168313659Y-95981669D01*
X168318642Y-96051361D01*
X168313659Y-96068331D01*
X168300908Y-96102518D01*
X168294501Y-96162116D01*
X168294501Y-96162123D01*
X168294500Y-96162135D01*
X168294500Y-97157870D01*
X168294501Y-97157876D01*
X168300908Y-97217481D01*
X168313659Y-97251669D01*
X168318642Y-97321361D01*
X168313659Y-97338331D01*
X168300908Y-97372518D01*
X168294501Y-97432116D01*
X168294501Y-97432123D01*
X168294500Y-97432135D01*
X168294500Y-98427870D01*
X168294501Y-98427876D01*
X168300908Y-98487481D01*
X168313659Y-98521669D01*
X168318642Y-98591361D01*
X168313659Y-98608331D01*
X168300908Y-98642518D01*
X168294501Y-98702116D01*
X168294501Y-98702123D01*
X168294500Y-98702135D01*
X168294500Y-99697870D01*
X168294501Y-99697876D01*
X168300908Y-99757481D01*
X168313659Y-99791669D01*
X168318642Y-99861361D01*
X168313659Y-99878331D01*
X168300908Y-99912518D01*
X168297690Y-99942454D01*
X168294501Y-99972123D01*
X168294500Y-99972135D01*
X168294500Y-100967870D01*
X168294501Y-100967876D01*
X168300908Y-101027481D01*
X168313659Y-101061669D01*
X168318642Y-101131361D01*
X168313659Y-101148331D01*
X168300908Y-101182518D01*
X168294735Y-101239938D01*
X168294501Y-101242123D01*
X168294500Y-101242135D01*
X168294500Y-102237870D01*
X168294501Y-102237876D01*
X168300908Y-102297481D01*
X168313659Y-102331669D01*
X168318642Y-102401361D01*
X168313659Y-102418331D01*
X168300908Y-102452518D01*
X168296032Y-102497876D01*
X168294501Y-102512123D01*
X168294500Y-102512135D01*
X168294500Y-103507870D01*
X168294501Y-103507876D01*
X168300908Y-103567481D01*
X168313659Y-103601669D01*
X168318642Y-103671361D01*
X168313659Y-103688331D01*
X168300908Y-103722518D01*
X168296390Y-103764547D01*
X168294501Y-103782123D01*
X168294500Y-103782135D01*
X168294500Y-104777870D01*
X168294501Y-104777876D01*
X168300908Y-104837481D01*
X168313659Y-104871669D01*
X168318642Y-104941361D01*
X168313659Y-104958331D01*
X168300908Y-104992518D01*
X168294501Y-105052116D01*
X168294501Y-105052123D01*
X168294500Y-105052135D01*
X168294500Y-105425500D01*
X168274815Y-105492539D01*
X168222011Y-105538294D01*
X168170500Y-105549500D01*
X167282129Y-105549500D01*
X167282123Y-105549501D01*
X167222518Y-105555908D01*
X167188331Y-105568659D01*
X167118639Y-105573642D01*
X167101669Y-105568659D01*
X167067480Y-105555908D01*
X167067482Y-105555908D01*
X167007883Y-105549501D01*
X167007881Y-105549500D01*
X167007873Y-105549500D01*
X167007864Y-105549500D01*
X166012129Y-105549500D01*
X166012123Y-105549501D01*
X165952518Y-105555908D01*
X165918331Y-105568659D01*
X165848639Y-105573642D01*
X165831669Y-105568659D01*
X165797480Y-105555908D01*
X165797482Y-105555908D01*
X165737883Y-105549501D01*
X165737881Y-105549500D01*
X165737873Y-105549500D01*
X165737864Y-105549500D01*
X164742129Y-105549500D01*
X164742123Y-105549501D01*
X164682518Y-105555908D01*
X164648331Y-105568659D01*
X164578639Y-105573642D01*
X164561669Y-105568659D01*
X164527480Y-105555908D01*
X164527482Y-105555908D01*
X164467883Y-105549501D01*
X164467881Y-105549500D01*
X164467873Y-105549500D01*
X164467864Y-105549500D01*
X163472129Y-105549500D01*
X163472123Y-105549501D01*
X163412518Y-105555908D01*
X163378331Y-105568659D01*
X163308639Y-105573642D01*
X163291669Y-105568659D01*
X163257480Y-105555908D01*
X163257482Y-105555908D01*
X163197883Y-105549501D01*
X163197881Y-105549500D01*
X163197873Y-105549500D01*
X163197864Y-105549500D01*
X162202129Y-105549500D01*
X162202123Y-105549501D01*
X162142518Y-105555908D01*
X162108331Y-105568659D01*
X162038639Y-105573642D01*
X162021669Y-105568659D01*
X161987480Y-105555908D01*
X161987482Y-105555908D01*
X161927883Y-105549501D01*
X161927881Y-105549500D01*
X161927873Y-105549500D01*
X161927864Y-105549500D01*
X160932129Y-105549500D01*
X160932123Y-105549501D01*
X160872518Y-105555908D01*
X160838331Y-105568659D01*
X160768639Y-105573642D01*
X160751669Y-105568659D01*
X160717480Y-105555908D01*
X160717482Y-105555908D01*
X160657883Y-105549501D01*
X160657881Y-105549500D01*
X160657873Y-105549500D01*
X160657864Y-105549500D01*
X159662129Y-105549500D01*
X159662123Y-105549501D01*
X159602518Y-105555908D01*
X159568331Y-105568659D01*
X159498639Y-105573642D01*
X159481669Y-105568659D01*
X159447480Y-105555908D01*
X159447482Y-105555908D01*
X159387883Y-105549501D01*
X159387881Y-105549500D01*
X159387873Y-105549500D01*
X159387864Y-105549500D01*
X158392129Y-105549500D01*
X158392123Y-105549501D01*
X158332518Y-105555908D01*
X158298331Y-105568659D01*
X158228639Y-105573642D01*
X158211669Y-105568659D01*
X158177480Y-105555908D01*
X158177482Y-105555908D01*
X158117883Y-105549501D01*
X158117881Y-105549500D01*
X158117873Y-105549500D01*
X158117864Y-105549500D01*
X157122129Y-105549500D01*
X157122123Y-105549501D01*
X157062518Y-105555908D01*
X157028331Y-105568659D01*
X156958639Y-105573642D01*
X156941669Y-105568659D01*
X156907480Y-105555908D01*
X156907482Y-105555908D01*
X156847883Y-105549501D01*
X156847881Y-105549500D01*
X156847873Y-105549500D01*
X156847864Y-105549500D01*
X155852129Y-105549500D01*
X155852123Y-105549501D01*
X155792518Y-105555908D01*
X155758331Y-105568659D01*
X155688639Y-105573642D01*
X155671669Y-105568659D01*
X155637480Y-105555908D01*
X155637482Y-105555908D01*
X155577883Y-105549501D01*
X155577881Y-105549500D01*
X155577873Y-105549500D01*
X155577864Y-105549500D01*
X154582129Y-105549500D01*
X154582123Y-105549501D01*
X154522518Y-105555908D01*
X154488331Y-105568659D01*
X154418639Y-105573642D01*
X154401669Y-105568659D01*
X154367480Y-105555908D01*
X154367482Y-105555908D01*
X154307883Y-105549501D01*
X154307881Y-105549500D01*
X154307873Y-105549500D01*
X154307865Y-105549500D01*
X153419499Y-105549500D01*
X153352460Y-105529815D01*
X153306705Y-105477011D01*
X153295499Y-105425500D01*
X153295499Y-105052129D01*
X153295498Y-105052123D01*
X153295497Y-105052116D01*
X153289091Y-104992517D01*
X153276340Y-104958332D01*
X153271357Y-104888642D01*
X153276340Y-104871669D01*
X153289091Y-104837483D01*
X153295500Y-104777873D01*
X153295499Y-103782128D01*
X153289091Y-103722517D01*
X153276340Y-103688332D01*
X153271357Y-103618642D01*
X153276340Y-103601669D01*
X153289091Y-103567483D01*
X153295500Y-103507873D01*
X153295499Y-102512128D01*
X153289091Y-102452517D01*
X153276340Y-102418332D01*
X153271357Y-102348642D01*
X153276340Y-102331669D01*
X153289091Y-102297483D01*
X153295500Y-102237873D01*
X153295499Y-101242128D01*
X153289091Y-101182517D01*
X153276340Y-101148332D01*
X153271357Y-101078642D01*
X153276340Y-101061669D01*
X153289091Y-101027483D01*
X153295500Y-100967873D01*
X153295499Y-99972128D01*
X153289091Y-99912517D01*
X153276340Y-99878332D01*
X153271357Y-99808642D01*
X153276340Y-99791669D01*
X153289091Y-99757483D01*
X153295500Y-99697873D01*
X153295499Y-98757870D01*
X156844500Y-98757870D01*
X156844501Y-98757876D01*
X156850908Y-98817483D01*
X156901202Y-98952328D01*
X156901206Y-98952335D01*
X156987452Y-99067544D01*
X156987455Y-99067547D01*
X157102664Y-99153793D01*
X157102671Y-99153797D01*
X157237517Y-99204091D01*
X157237516Y-99204091D01*
X157244444Y-99204835D01*
X157297127Y-99210500D01*
X161292872Y-99210499D01*
X161352483Y-99204091D01*
X161487331Y-99153796D01*
X161602546Y-99067546D01*
X161688796Y-98952331D01*
X161739091Y-98817483D01*
X161745500Y-98757873D01*
X161745499Y-94762128D01*
X161740075Y-94711669D01*
X161739091Y-94702516D01*
X161688797Y-94567671D01*
X161688793Y-94567664D01*
X161602547Y-94452455D01*
X161602544Y-94452452D01*
X161487335Y-94366206D01*
X161487328Y-94366202D01*
X161352482Y-94315908D01*
X161352483Y-94315908D01*
X161292883Y-94309501D01*
X161292881Y-94309500D01*
X161292873Y-94309500D01*
X161292864Y-94309500D01*
X157297129Y-94309500D01*
X157297123Y-94309501D01*
X157237516Y-94315908D01*
X157102671Y-94366202D01*
X157102664Y-94366206D01*
X156987455Y-94452452D01*
X156987452Y-94452455D01*
X156901206Y-94567664D01*
X156901202Y-94567671D01*
X156850908Y-94702517D01*
X156844726Y-94760022D01*
X156844501Y-94762123D01*
X156844500Y-94762135D01*
X156844500Y-98757870D01*
X153295499Y-98757870D01*
X153295499Y-98702128D01*
X153289091Y-98642517D01*
X153276340Y-98608332D01*
X153271357Y-98538642D01*
X153276340Y-98521669D01*
X153289091Y-98487483D01*
X153295500Y-98427873D01*
X153295499Y-97432128D01*
X153289091Y-97372517D01*
X153276340Y-97338332D01*
X153271357Y-97268642D01*
X153276340Y-97251669D01*
X153289091Y-97217483D01*
X153295500Y-97157873D01*
X153295499Y-96162128D01*
X153289091Y-96102517D01*
X153276340Y-96068332D01*
X153271357Y-95998642D01*
X153276340Y-95981669D01*
X153289091Y-95947483D01*
X153295500Y-95887873D01*
X153295499Y-94892128D01*
X153289091Y-94832517D01*
X153276340Y-94798332D01*
X153271357Y-94728642D01*
X153276340Y-94711669D01*
X153289091Y-94677483D01*
X153295500Y-94617873D01*
X153295499Y-93622128D01*
X153289091Y-93562517D01*
X153276340Y-93528332D01*
X153271357Y-93458642D01*
X153276340Y-93441669D01*
X153289091Y-93407483D01*
X153295500Y-93347873D01*
X153295499Y-92352128D01*
X153289091Y-92292517D01*
X153276340Y-92258332D01*
X153271357Y-92188642D01*
X153276340Y-92171669D01*
X153289091Y-92137483D01*
X153295500Y-92077873D01*
X153295499Y-91082128D01*
X153289091Y-91022517D01*
X153276073Y-90987616D01*
X153271090Y-90917926D01*
X153276075Y-90900949D01*
X153288597Y-90867375D01*
X153288598Y-90867372D01*
X153294999Y-90807844D01*
X153295000Y-90807827D01*
X153295000Y-90560000D01*
X150767276Y-90560000D01*
X150766990Y-90560156D01*
X150764814Y-90560000D01*
X150743638Y-90560000D01*
X150743638Y-90558481D01*
X150697299Y-90555160D01*
X150641372Y-90513279D01*
X150622721Y-90477303D01*
X150587181Y-90367921D01*
X150587178Y-90367915D01*
X150572460Y-90342422D01*
X150492533Y-90203984D01*
X150365871Y-90063312D01*
X150365870Y-90063311D01*
X150212734Y-89952051D01*
X150212729Y-89952048D01*
X150039807Y-89875057D01*
X150039802Y-89875055D01*
X149894001Y-89844065D01*
X149854646Y-89835700D01*
X149665354Y-89835700D01*
X149632897Y-89842598D01*
X149480197Y-89875055D01*
X149480192Y-89875057D01*
X149307270Y-89952048D01*
X149307265Y-89952051D01*
X149154130Y-90063310D01*
X149154126Y-90063314D01*
X149148400Y-90069674D01*
X149088913Y-90106321D01*
X149056252Y-90110700D01*
X148300806Y-90110700D01*
X148261802Y-90104406D01*
X148210949Y-90087555D01*
X148127797Y-90060001D01*
X148127795Y-90060000D01*
X148025010Y-90049500D01*
X146974998Y-90049500D01*
X146974980Y-90049501D01*
X146872203Y-90060000D01*
X146872200Y-90060001D01*
X146705668Y-90115185D01*
X146705663Y-90115187D01*
X146556342Y-90207289D01*
X146432289Y-90331342D01*
X146340187Y-90480663D01*
X146337136Y-90487209D01*
X146334380Y-90485923D01*
X146302300Y-90532123D01*
X146237747Y-90558857D01*
X146168988Y-90546448D01*
X146117854Y-90498834D01*
X146100499Y-90435570D01*
X146100499Y-88952128D01*
X146094091Y-88892517D01*
X146043796Y-88757669D01*
X146043795Y-88757668D01*
X146043793Y-88757664D01*
X145957547Y-88642455D01*
X145957544Y-88642452D01*
X145842335Y-88556206D01*
X145842328Y-88556202D01*
X145707482Y-88505908D01*
X145707483Y-88505908D01*
X145647883Y-88499501D01*
X145647881Y-88499500D01*
X145647873Y-88499500D01*
X145647864Y-88499500D01*
X143452129Y-88499500D01*
X143452123Y-88499501D01*
X143392516Y-88505908D01*
X143257671Y-88556202D01*
X143257664Y-88556206D01*
X143142455Y-88642452D01*
X143142452Y-88642455D01*
X143056206Y-88757664D01*
X143056202Y-88757671D01*
X143005908Y-88892517D01*
X142999501Y-88952116D01*
X142999501Y-88952123D01*
X142999500Y-88952135D01*
X142999500Y-90447870D01*
X142999501Y-90447876D01*
X143005908Y-90507483D01*
X143056202Y-90642328D01*
X143056206Y-90642335D01*
X143142452Y-90757544D01*
X143142455Y-90757547D01*
X143257664Y-90843793D01*
X143257671Y-90843797D01*
X143392517Y-90894091D01*
X143392516Y-90894091D01*
X143399444Y-90894835D01*
X143452127Y-90900500D01*
X145647872Y-90900499D01*
X145707483Y-90894091D01*
X145842331Y-90843796D01*
X145957546Y-90757546D01*
X146009962Y-90687528D01*
X146043792Y-90642337D01*
X146043793Y-90642334D01*
X146043796Y-90642331D01*
X146043797Y-90642326D01*
X146046442Y-90637484D01*
X146095845Y-90588077D01*
X146164117Y-90573222D01*
X146229583Y-90597635D01*
X146271457Y-90653567D01*
X146278635Y-90709507D01*
X146274500Y-90749978D01*
X146274500Y-91350001D01*
X146274501Y-91350019D01*
X146285000Y-91452796D01*
X146285001Y-91452799D01*
X146327688Y-91581619D01*
X146340186Y-91619334D01*
X146421089Y-91750500D01*
X146432289Y-91768657D01*
X146556346Y-91892714D01*
X146559182Y-91894463D01*
X146560717Y-91896170D01*
X146562011Y-91897193D01*
X146561836Y-91897414D01*
X146605905Y-91946411D01*
X146617126Y-92015374D01*
X146589282Y-92079456D01*
X146559182Y-92105537D01*
X146556346Y-92107285D01*
X146432289Y-92231342D01*
X146432288Y-92231344D01*
X146415641Y-92258334D01*
X146411161Y-92265597D01*
X146359213Y-92312321D01*
X146305622Y-92324500D01*
X138159743Y-92324500D01*
X138144122Y-92322775D01*
X138144096Y-92323061D01*
X138136334Y-92322327D01*
X138136333Y-92322327D01*
X138074109Y-92324282D01*
X138069127Y-92324439D01*
X138065232Y-92324500D01*
X138037647Y-92324500D01*
X138033661Y-92325003D01*
X138022033Y-92325918D01*
X137978373Y-92327290D01*
X137959129Y-92332881D01*
X137940079Y-92336825D01*
X137920211Y-92339334D01*
X137920210Y-92339334D01*
X137879599Y-92355413D01*
X137868554Y-92359194D01*
X137826614Y-92371379D01*
X137826610Y-92371381D01*
X137809366Y-92381579D01*
X137791905Y-92390133D01*
X137773274Y-92397510D01*
X137773262Y-92397517D01*
X137737933Y-92423185D01*
X137728173Y-92429596D01*
X137690580Y-92451829D01*
X137676414Y-92465995D01*
X137661624Y-92478627D01*
X137645414Y-92490404D01*
X137645411Y-92490407D01*
X137617573Y-92524058D01*
X137609711Y-92532697D01*
X137014963Y-93127444D01*
X136953640Y-93160929D01*
X136883948Y-93155945D01*
X136852971Y-93139029D01*
X136742335Y-93056206D01*
X136742328Y-93056202D01*
X136607482Y-93005908D01*
X136607483Y-93005908D01*
X136547883Y-92999501D01*
X136547881Y-92999500D01*
X136547873Y-92999500D01*
X136547864Y-92999500D01*
X134352129Y-92999500D01*
X134352123Y-92999501D01*
X134292516Y-93005908D01*
X134157671Y-93056202D01*
X134157669Y-93056203D01*
X134075701Y-93117565D01*
X134047030Y-93139029D01*
X134047027Y-93139031D01*
X133981563Y-93163448D01*
X133913290Y-93148597D01*
X133885035Y-93127445D01*
X133736818Y-92979228D01*
X133703333Y-92917905D01*
X133700499Y-92891547D01*
X133700499Y-92512498D01*
X133700498Y-92512481D01*
X133689999Y-92409703D01*
X133689998Y-92409700D01*
X133683514Y-92390133D01*
X133634814Y-92243166D01*
X133542712Y-92093844D01*
X133448695Y-91999827D01*
X133415210Y-91938504D01*
X133420194Y-91868812D01*
X133448695Y-91824464D01*
X133542317Y-91730842D01*
X133634356Y-91581624D01*
X133634358Y-91581619D01*
X133689505Y-91415197D01*
X133689506Y-91415190D01*
X133699999Y-91312486D01*
X133700000Y-91312473D01*
X133700000Y-91250000D01*
X131300001Y-91250000D01*
X131300001Y-91312486D01*
X131310494Y-91415197D01*
X131365641Y-91581619D01*
X131365643Y-91581624D01*
X131457684Y-91730845D01*
X131551304Y-91824465D01*
X131584789Y-91885788D01*
X131579805Y-91955480D01*
X131551305Y-91999827D01*
X131457287Y-92093845D01*
X131365187Y-92243163D01*
X131365186Y-92243166D01*
X131310001Y-92409703D01*
X131310001Y-92409704D01*
X131310000Y-92409704D01*
X131299500Y-92512483D01*
X131299500Y-93137501D01*
X131299501Y-93137519D01*
X131310000Y-93240296D01*
X131310001Y-93240299D01*
X131365185Y-93406831D01*
X131365187Y-93406836D01*
X131386670Y-93441666D01*
X131457288Y-93556156D01*
X131581344Y-93680212D01*
X131730666Y-93772314D01*
X131897203Y-93827499D01*
X131999991Y-93838000D01*
X132775047Y-93837999D01*
X132842086Y-93857683D01*
X132862728Y-93874318D01*
X133572194Y-94583784D01*
X133582019Y-94596048D01*
X133582240Y-94595866D01*
X133587210Y-94601874D01*
X133636239Y-94647915D01*
X133639036Y-94650626D01*
X133658530Y-94670120D01*
X133661695Y-94672575D01*
X133670571Y-94680156D01*
X133702418Y-94710062D01*
X133702422Y-94710064D01*
X133719973Y-94719713D01*
X133736231Y-94730392D01*
X133752064Y-94742674D01*
X133787410Y-94757968D01*
X133792155Y-94760022D01*
X133802643Y-94765160D01*
X133835239Y-94783080D01*
X133884502Y-94832626D01*
X133899500Y-94891739D01*
X133899500Y-94947869D01*
X133899501Y-94947876D01*
X133905908Y-95007483D01*
X133956202Y-95142328D01*
X133956206Y-95142335D01*
X134042452Y-95257544D01*
X134042455Y-95257547D01*
X134157664Y-95343793D01*
X134157671Y-95343797D01*
X134292517Y-95394091D01*
X134292516Y-95394091D01*
X134299444Y-95394835D01*
X134352127Y-95400500D01*
X136547872Y-95400499D01*
X136607483Y-95394091D01*
X136742331Y-95343796D01*
X136857546Y-95257546D01*
X136943796Y-95142331D01*
X136994091Y-95007483D01*
X137000500Y-94947873D01*
X137000499Y-94893343D01*
X137020182Y-94826306D01*
X137072986Y-94780551D01*
X137075259Y-94779540D01*
X137077382Y-94778620D01*
X137077390Y-94778618D01*
X137094629Y-94768422D01*
X137112103Y-94759862D01*
X137130727Y-94752488D01*
X137130727Y-94752487D01*
X137130732Y-94752486D01*
X137166083Y-94726800D01*
X137175814Y-94720408D01*
X137213420Y-94698170D01*
X137227589Y-94683999D01*
X137242379Y-94671368D01*
X137258587Y-94659594D01*
X137286438Y-94625926D01*
X137294279Y-94617309D01*
X138299772Y-93611819D01*
X138361095Y-93578334D01*
X138387453Y-93575500D01*
X142875500Y-93575500D01*
X142942539Y-93595185D01*
X142988294Y-93647989D01*
X142999500Y-93699500D01*
X142999500Y-94947870D01*
X142999501Y-94947876D01*
X143005908Y-95007483D01*
X143056202Y-95142328D01*
X143056206Y-95142335D01*
X143142452Y-95257544D01*
X143142455Y-95257547D01*
X143257664Y-95343793D01*
X143257671Y-95343797D01*
X143392517Y-95394091D01*
X143392516Y-95394091D01*
X143399444Y-95394835D01*
X143452127Y-95400500D01*
X145647872Y-95400499D01*
X145707483Y-95394091D01*
X145842331Y-95343796D01*
X145957546Y-95257546D01*
X146043796Y-95142331D01*
X146094091Y-95007483D01*
X146100500Y-94947873D01*
X146100499Y-93699499D01*
X146120184Y-93632461D01*
X146172987Y-93586706D01*
X146224499Y-93575500D01*
X146305622Y-93575500D01*
X146372661Y-93595185D01*
X146411159Y-93634401D01*
X146432288Y-93668656D01*
X146556344Y-93792712D01*
X146705666Y-93884814D01*
X146872203Y-93939999D01*
X146974991Y-93950500D01*
X148025008Y-93950499D01*
X148025016Y-93950498D01*
X148025019Y-93950498D01*
X148081302Y-93944748D01*
X148127797Y-93939999D01*
X148294334Y-93884814D01*
X148443656Y-93792712D01*
X148567712Y-93668656D01*
X148659814Y-93519334D01*
X148714999Y-93352797D01*
X148725500Y-93250009D01*
X148725499Y-92660451D01*
X148745183Y-92593413D01*
X148761818Y-92572771D01*
X149092771Y-92241819D01*
X149154094Y-92208334D01*
X149180452Y-92205500D01*
X150672219Y-92205500D01*
X150739258Y-92225185D01*
X150785013Y-92277989D01*
X150795507Y-92342756D01*
X150794500Y-92352127D01*
X150794500Y-92352129D01*
X150794500Y-93347870D01*
X150794501Y-93347879D01*
X150796935Y-93370519D01*
X150784528Y-93439278D01*
X150736916Y-93490414D01*
X150708124Y-93502881D01*
X150708010Y-93502914D01*
X150689076Y-93506826D01*
X150669206Y-93509336D01*
X150669202Y-93509337D01*
X150628588Y-93525418D01*
X150617549Y-93529198D01*
X150597636Y-93534984D01*
X150575595Y-93541388D01*
X150558360Y-93551582D01*
X150540889Y-93560141D01*
X150522271Y-93567512D01*
X150522260Y-93567518D01*
X150486932Y-93593186D01*
X150477171Y-93599598D01*
X150439573Y-93621834D01*
X150439567Y-93621838D01*
X150425406Y-93636000D01*
X150410618Y-93648631D01*
X150394414Y-93660404D01*
X150394409Y-93660409D01*
X150366569Y-93694062D01*
X150358710Y-93702699D01*
X148262066Y-95799434D01*
X148200744Y-95832921D01*
X148135379Y-95829461D01*
X148002697Y-95785494D01*
X148002690Y-95785493D01*
X147899986Y-95775000D01*
X147850000Y-95775000D01*
X147850000Y-100673638D01*
X147830315Y-100740677D01*
X147813681Y-100761319D01*
X147800000Y-100775000D01*
X147800000Y-103224999D01*
X147800500Y-103224999D01*
X147867539Y-103244684D01*
X147913294Y-103297488D01*
X147924500Y-103348999D01*
X147924500Y-103764547D01*
X147904815Y-103831586D01*
X147888181Y-103852228D01*
X143639728Y-108100681D01*
X143578405Y-108134166D01*
X143552047Y-108137000D01*
X143011500Y-108137000D01*
X142944461Y-108117315D01*
X142898706Y-108064511D01*
X142887500Y-108013000D01*
X142887500Y-107267742D01*
X142889224Y-107252122D01*
X142888939Y-107252095D01*
X142889673Y-107244333D01*
X142887561Y-107177112D01*
X142887500Y-107173218D01*
X142887500Y-107145656D01*
X142887500Y-107145650D01*
X142886996Y-107141668D01*
X142886081Y-107130029D01*
X142884710Y-107086373D01*
X142879119Y-107067130D01*
X142875173Y-107048078D01*
X142872664Y-107028208D01*
X142856579Y-106987583D01*
X142852806Y-106976562D01*
X142840618Y-106934610D01*
X142840617Y-106934609D01*
X142840617Y-106934607D01*
X142840616Y-106934606D01*
X142830423Y-106917371D01*
X142821861Y-106899894D01*
X142814487Y-106881269D01*
X142801145Y-106862906D01*
X142788811Y-106845930D01*
X142782405Y-106836177D01*
X142760170Y-106798580D01*
X142760168Y-106798578D01*
X142760165Y-106798574D01*
X142746006Y-106784415D01*
X142733368Y-106769619D01*
X142730439Y-106765587D01*
X142721594Y-106753413D01*
X142695735Y-106732021D01*
X142687940Y-106725572D01*
X142679299Y-106717709D01*
X138459461Y-102497870D01*
X142999500Y-102497870D01*
X142999501Y-102497876D01*
X143005908Y-102557483D01*
X143056202Y-102692328D01*
X143056206Y-102692335D01*
X143142452Y-102807544D01*
X143142455Y-102807547D01*
X143257664Y-102893793D01*
X143257671Y-102893797D01*
X143392517Y-102944091D01*
X143392516Y-102944091D01*
X143399444Y-102944835D01*
X143452127Y-102950500D01*
X145647872Y-102950499D01*
X145707483Y-102944091D01*
X145842331Y-102893796D01*
X145957546Y-102807546D01*
X146043796Y-102692331D01*
X146094091Y-102557483D01*
X146100500Y-102497873D01*
X146100500Y-102250000D01*
X146550001Y-102250000D01*
X146550001Y-102524986D01*
X146560494Y-102627697D01*
X146615641Y-102794119D01*
X146615643Y-102794124D01*
X146707684Y-102943345D01*
X146831654Y-103067315D01*
X146980875Y-103159356D01*
X146980880Y-103159358D01*
X147147302Y-103214505D01*
X147147309Y-103214506D01*
X147250019Y-103224999D01*
X147299999Y-103224998D01*
X147300000Y-103224998D01*
X147300000Y-102250000D01*
X146550001Y-102250000D01*
X146100500Y-102250000D01*
X146100499Y-101750000D01*
X146550000Y-101750000D01*
X147300000Y-101750000D01*
X147300000Y-100826361D01*
X147319685Y-100759322D01*
X147336319Y-100738680D01*
X147350000Y-100724999D01*
X147350000Y-99750000D01*
X146600001Y-99750000D01*
X146600001Y-100024986D01*
X146610494Y-100127697D01*
X146665641Y-100294119D01*
X146665643Y-100294124D01*
X146757684Y-100443345D01*
X146881654Y-100567315D01*
X146981726Y-100629040D01*
X147028450Y-100680988D01*
X147039673Y-100749951D01*
X147011829Y-100814033D01*
X146981727Y-100840117D01*
X146831656Y-100932682D01*
X146707684Y-101056654D01*
X146615643Y-101205875D01*
X146615641Y-101205880D01*
X146560494Y-101372302D01*
X146560493Y-101372309D01*
X146550000Y-101475013D01*
X146550000Y-101750000D01*
X146100499Y-101750000D01*
X146100499Y-101002128D01*
X146094091Y-100942517D01*
X146093647Y-100941327D01*
X146043797Y-100807671D01*
X146043793Y-100807664D01*
X145957547Y-100692455D01*
X145957544Y-100692452D01*
X145842335Y-100606206D01*
X145842328Y-100606202D01*
X145707482Y-100555908D01*
X145707483Y-100555908D01*
X145647883Y-100549501D01*
X145647881Y-100549500D01*
X145647873Y-100549500D01*
X145647864Y-100549500D01*
X143452129Y-100549500D01*
X143452123Y-100549501D01*
X143392516Y-100555908D01*
X143257671Y-100606202D01*
X143257664Y-100606206D01*
X143142455Y-100692452D01*
X143142452Y-100692455D01*
X143056206Y-100807664D01*
X143056202Y-100807671D01*
X143005908Y-100942517D01*
X142999501Y-101002116D01*
X142999501Y-101002123D01*
X142999500Y-101002135D01*
X142999500Y-102497870D01*
X138459461Y-102497870D01*
X137327803Y-101366212D01*
X137317980Y-101353950D01*
X137317759Y-101354134D01*
X137312786Y-101348122D01*
X137263776Y-101302099D01*
X137260977Y-101299386D01*
X137241477Y-101279885D01*
X137241471Y-101279880D01*
X137238286Y-101277409D01*
X137229434Y-101269848D01*
X137197582Y-101239938D01*
X137197580Y-101239936D01*
X137197577Y-101239935D01*
X137180029Y-101230288D01*
X137163763Y-101219604D01*
X137147932Y-101207324D01*
X137107849Y-101189978D01*
X137097362Y-101184841D01*
X137064763Y-101166920D01*
X137015498Y-101117374D01*
X137000499Y-101058257D01*
X137000499Y-101002129D01*
X137000498Y-101002123D01*
X137000497Y-101002116D01*
X136994091Y-100942517D01*
X136993647Y-100941327D01*
X136943797Y-100807671D01*
X136943793Y-100807664D01*
X136857547Y-100692455D01*
X136857544Y-100692452D01*
X136742335Y-100606206D01*
X136742328Y-100606202D01*
X136607482Y-100555908D01*
X136607483Y-100555908D01*
X136547883Y-100549501D01*
X136547881Y-100549500D01*
X136547873Y-100549500D01*
X136547864Y-100549500D01*
X134352129Y-100549500D01*
X134352123Y-100549501D01*
X134292516Y-100555908D01*
X134157671Y-100606202D01*
X134157664Y-100606206D01*
X134042455Y-100692452D01*
X134042452Y-100692455D01*
X133956206Y-100807664D01*
X133956202Y-100807671D01*
X133905908Y-100942517D01*
X133899501Y-101002116D01*
X133899501Y-101002123D01*
X133899500Y-101002135D01*
X133899500Y-102497870D01*
X133899501Y-102497876D01*
X133905908Y-102557483D01*
X133956202Y-102692328D01*
X133956206Y-102692335D01*
X134042452Y-102807544D01*
X134042455Y-102807547D01*
X134157664Y-102893793D01*
X134157671Y-102893797D01*
X134292517Y-102944091D01*
X134292516Y-102944091D01*
X134299444Y-102944835D01*
X134352127Y-102950500D01*
X136547872Y-102950499D01*
X136607483Y-102944091D01*
X136742331Y-102893796D01*
X136852973Y-102810968D01*
X136918437Y-102786552D01*
X136986710Y-102801403D01*
X137014965Y-102822555D01*
X138363743Y-104171333D01*
X138397228Y-104232656D01*
X138392244Y-104302348D01*
X138350372Y-104358281D01*
X138341159Y-104364552D01*
X138231347Y-104432285D01*
X138231343Y-104432288D01*
X138107285Y-104556346D01*
X138105537Y-104559182D01*
X138103829Y-104560717D01*
X138102807Y-104562011D01*
X138102585Y-104561836D01*
X138053589Y-104605905D01*
X137984626Y-104617126D01*
X137920544Y-104589282D01*
X137894463Y-104559182D01*
X137892714Y-104556346D01*
X137768657Y-104432289D01*
X137768656Y-104432288D01*
X137648671Y-104358281D01*
X137619336Y-104340187D01*
X137619331Y-104340185D01*
X137617862Y-104339698D01*
X137452797Y-104285001D01*
X137452795Y-104285000D01*
X137350010Y-104274500D01*
X136749998Y-104274500D01*
X136749980Y-104274501D01*
X136647203Y-104285000D01*
X136647200Y-104285001D01*
X136480668Y-104340185D01*
X136480663Y-104340187D01*
X136331342Y-104432289D01*
X136207289Y-104556342D01*
X136115187Y-104705663D01*
X136115185Y-104705668D01*
X136101986Y-104745500D01*
X136060001Y-104872203D01*
X136060001Y-104872204D01*
X136060000Y-104872204D01*
X136049500Y-104974983D01*
X136049500Y-105564546D01*
X136029815Y-105631585D01*
X136013181Y-105652227D01*
X135071208Y-106594199D01*
X135058951Y-106604020D01*
X135059134Y-106604241D01*
X135053122Y-106609214D01*
X135007098Y-106658223D01*
X135004391Y-106661016D01*
X134984889Y-106680517D01*
X134984875Y-106680534D01*
X134982407Y-106683715D01*
X134974843Y-106692570D01*
X134944937Y-106724418D01*
X134944936Y-106724420D01*
X134935284Y-106741976D01*
X134924610Y-106758226D01*
X134912329Y-106774061D01*
X134912324Y-106774068D01*
X134894975Y-106814158D01*
X134889838Y-106824644D01*
X134868803Y-106862906D01*
X134863822Y-106882307D01*
X134857521Y-106900710D01*
X134849562Y-106919102D01*
X134849560Y-106919108D01*
X134846268Y-106939898D01*
X134816339Y-107003033D01*
X134757027Y-107039964D01*
X134723795Y-107044500D01*
X134564298Y-107044500D01*
X134527432Y-107047401D01*
X134527426Y-107047402D01*
X134369606Y-107093254D01*
X134369603Y-107093255D01*
X134228137Y-107176917D01*
X134228129Y-107176923D01*
X134111923Y-107293129D01*
X134111917Y-107293137D01*
X134028255Y-107434603D01*
X134028254Y-107434606D01*
X133982402Y-107592426D01*
X133982401Y-107592432D01*
X133979500Y-107629298D01*
X133979500Y-108060701D01*
X133982401Y-108097567D01*
X133982402Y-108097573D01*
X134028254Y-108255393D01*
X134028255Y-108255396D01*
X134111917Y-108396862D01*
X134116702Y-108403031D01*
X134114256Y-108404927D01*
X134140857Y-108453642D01*
X134135873Y-108523334D01*
X134115069Y-108555703D01*
X134116702Y-108556969D01*
X134111917Y-108563137D01*
X134028255Y-108704603D01*
X134028254Y-108704604D01*
X134000630Y-108799688D01*
X133969235Y-108852773D01*
X132001108Y-110820899D01*
X131988851Y-110830720D01*
X131989034Y-110830941D01*
X131983022Y-110835914D01*
X131936998Y-110884923D01*
X131934291Y-110887716D01*
X131914789Y-110907217D01*
X131914775Y-110907234D01*
X131912307Y-110910415D01*
X131904743Y-110919270D01*
X131874837Y-110951118D01*
X131874836Y-110951120D01*
X131865184Y-110968676D01*
X131854510Y-110984926D01*
X131842229Y-111000761D01*
X131842224Y-111000768D01*
X131824875Y-111040858D01*
X131819738Y-111051344D01*
X131798703Y-111089606D01*
X131793722Y-111109007D01*
X131787421Y-111127410D01*
X131779462Y-111145802D01*
X131779461Y-111145805D01*
X131772628Y-111188943D01*
X131770260Y-111200374D01*
X131759401Y-111242671D01*
X131759400Y-111242682D01*
X131759400Y-111262716D01*
X131757873Y-111282115D01*
X131754740Y-111301894D01*
X131754740Y-111301895D01*
X131758850Y-111345374D01*
X131759400Y-111357043D01*
X131759400Y-118058855D01*
X131757675Y-118074472D01*
X131757961Y-118074499D01*
X131757226Y-118082265D01*
X131759339Y-118149472D01*
X131759400Y-118153367D01*
X131759400Y-118180957D01*
X131759903Y-118184935D01*
X131760818Y-118196567D01*
X131762190Y-118240224D01*
X131762191Y-118240227D01*
X131767780Y-118259467D01*
X131771724Y-118278511D01*
X131774236Y-118298392D01*
X131790314Y-118339003D01*
X131794097Y-118350052D01*
X131806281Y-118391988D01*
X131816480Y-118409234D01*
X131825038Y-118426703D01*
X131832414Y-118445332D01*
X131858081Y-118480660D01*
X131864493Y-118490421D01*
X131886728Y-118528017D01*
X131886733Y-118528024D01*
X131900890Y-118542180D01*
X131913528Y-118556976D01*
X131925305Y-118573186D01*
X131925306Y-118573187D01*
X131958957Y-118601025D01*
X131967598Y-118608888D01*
X133919397Y-120560688D01*
X133929222Y-120572951D01*
X133929443Y-120572769D01*
X133934411Y-120578774D01*
X133934413Y-120578776D01*
X133934414Y-120578777D01*
X133983422Y-120624799D01*
X133986221Y-120627512D01*
X134005722Y-120647014D01*
X134005726Y-120647017D01*
X134005729Y-120647020D01*
X134008902Y-120649481D01*
X134017774Y-120657059D01*
X134049618Y-120686962D01*
X134067176Y-120696614D01*
X134083433Y-120707293D01*
X134099264Y-120719573D01*
X134129003Y-120732442D01*
X134139352Y-120736921D01*
X134149841Y-120742060D01*
X134173657Y-120755152D01*
X134188108Y-120763097D01*
X134200723Y-120766335D01*
X134207505Y-120768077D01*
X134225919Y-120774381D01*
X134244304Y-120782338D01*
X134287461Y-120789173D01*
X134298856Y-120791532D01*
X134341181Y-120802400D01*
X134361216Y-120802400D01*
X134380613Y-120803926D01*
X134400396Y-120807060D01*
X134443875Y-120802950D01*
X134455544Y-120802400D01*
X136355757Y-120802400D01*
X136371377Y-120804124D01*
X136371404Y-120803839D01*
X136379160Y-120804571D01*
X136379167Y-120804573D01*
X136446373Y-120802461D01*
X136450268Y-120802400D01*
X136477846Y-120802400D01*
X136477850Y-120802400D01*
X136481824Y-120801897D01*
X136493463Y-120800980D01*
X136537127Y-120799609D01*
X136556369Y-120794017D01*
X136575412Y-120790074D01*
X136595292Y-120787564D01*
X136635901Y-120771485D01*
X136646944Y-120767703D01*
X136688890Y-120755518D01*
X136706129Y-120745322D01*
X136723603Y-120736762D01*
X136742227Y-120729388D01*
X136742227Y-120729387D01*
X136742232Y-120729386D01*
X136777583Y-120703700D01*
X136787314Y-120697308D01*
X136824920Y-120675070D01*
X136839086Y-120660903D01*
X136853881Y-120648268D01*
X136870084Y-120636496D01*
X136870083Y-120636496D01*
X136870087Y-120636494D01*
X136897937Y-120602828D01*
X136905779Y-120594210D01*
X137166887Y-120333101D01*
X137179150Y-120323279D01*
X137178966Y-120323057D01*
X137184970Y-120318090D01*
X137184977Y-120318086D01*
X137231034Y-120269038D01*
X137233680Y-120266308D01*
X137250642Y-120249348D01*
X137311966Y-120215867D01*
X137381657Y-120220856D01*
X137390711Y-120224648D01*
X137496337Y-120273903D01*
X137724592Y-120335063D01*
X137889147Y-120349460D01*
X137959999Y-120355659D01*
X137960000Y-120355659D01*
X137960001Y-120355659D01*
X137999234Y-120352226D01*
X138195408Y-120335063D01*
X138423663Y-120273903D01*
X138637830Y-120174035D01*
X138831401Y-120038495D01*
X138998495Y-119871401D01*
X139128425Y-119685842D01*
X139183002Y-119642217D01*
X139252500Y-119635023D01*
X139314855Y-119666546D01*
X139331575Y-119685842D01*
X139461500Y-119871395D01*
X139461505Y-119871401D01*
X139628599Y-120038495D01*
X139702284Y-120090090D01*
X139822165Y-120174032D01*
X139822167Y-120174033D01*
X139822170Y-120174035D01*
X140036337Y-120273903D01*
X140264592Y-120335063D01*
X140429147Y-120349460D01*
X140499999Y-120355659D01*
X140500000Y-120355659D01*
X140500001Y-120355659D01*
X140539234Y-120352226D01*
X140735408Y-120335063D01*
X140963663Y-120273903D01*
X141177830Y-120174035D01*
X141371401Y-120038495D01*
X141538495Y-119871401D01*
X141674035Y-119677830D01*
X141773903Y-119463663D01*
X141835063Y-119235408D01*
X141855659Y-119000000D01*
X141855212Y-118994896D01*
X141847307Y-118904539D01*
X141835063Y-118764592D01*
X141773903Y-118536337D01*
X141674035Y-118322171D01*
X141672047Y-118319331D01*
X141538494Y-118128597D01*
X141371402Y-117961506D01*
X141371396Y-117961501D01*
X141175595Y-117824400D01*
X141131970Y-117769823D01*
X141123944Y-117732176D01*
X141123930Y-117732179D01*
X141123888Y-117731913D01*
X141122779Y-117726712D01*
X141122760Y-117726097D01*
X141122709Y-117724473D01*
X141117121Y-117705239D01*
X141113174Y-117686181D01*
X141112075Y-117677480D01*
X141110664Y-117666308D01*
X141108074Y-117659767D01*
X141094583Y-117625692D01*
X141090799Y-117614639D01*
X141080988Y-117580872D01*
X141078617Y-117572710D01*
X141068418Y-117555464D01*
X141059863Y-117538002D01*
X141052486Y-117519368D01*
X141052484Y-117519365D01*
X141048728Y-117512532D01*
X141050549Y-117511530D01*
X141030701Y-117455882D01*
X141030500Y-117448816D01*
X141030500Y-112579500D01*
X141050185Y-112512461D01*
X141102989Y-112466706D01*
X141154500Y-112455500D01*
X141295686Y-112455500D01*
X141295694Y-112455500D01*
X141332569Y-112452598D01*
X141332571Y-112452597D01*
X141332573Y-112452597D01*
X141393688Y-112434841D01*
X141490398Y-112406744D01*
X141631865Y-112323081D01*
X141748081Y-112206865D01*
X141831744Y-112065398D01*
X141874377Y-111918656D01*
X141877597Y-111907573D01*
X141877598Y-111907567D01*
X141880499Y-111870701D01*
X141880500Y-111870694D01*
X141880500Y-111749500D01*
X141900185Y-111682461D01*
X141952989Y-111636706D01*
X142004500Y-111625500D01*
X142335571Y-111625500D01*
X142402610Y-111645185D01*
X142441110Y-111684404D01*
X142455973Y-111708502D01*
X142578996Y-111831525D01*
X142579000Y-111831528D01*
X142727066Y-111922857D01*
X142727069Y-111922858D01*
X142727075Y-111922862D01*
X142892225Y-111977587D01*
X142994152Y-111988000D01*
X142994157Y-111988000D01*
X144005843Y-111988000D01*
X144005848Y-111988000D01*
X144107775Y-111977587D01*
X144272925Y-111922862D01*
X144421003Y-111831526D01*
X144544026Y-111708503D01*
X144592127Y-111630518D01*
X144644074Y-111583796D01*
X144713037Y-111572574D01*
X144777119Y-111600417D01*
X144785346Y-111607936D01*
X146983181Y-113805771D01*
X147016666Y-113867094D01*
X147019500Y-113893452D01*
X147019500Y-117565255D01*
X147017775Y-117580872D01*
X147018061Y-117580899D01*
X147017326Y-117588665D01*
X147019439Y-117655872D01*
X147019500Y-117659767D01*
X147019500Y-117687357D01*
X147020003Y-117691335D01*
X147020918Y-117702967D01*
X147022290Y-117746624D01*
X147022291Y-117746627D01*
X147027880Y-117765867D01*
X147031824Y-117784911D01*
X147033928Y-117801563D01*
X147034336Y-117804792D01*
X147050414Y-117845403D01*
X147054197Y-117856452D01*
X147063316Y-117887840D01*
X147066382Y-117898390D01*
X147071869Y-117907669D01*
X147076580Y-117915634D01*
X147085138Y-117933103D01*
X147092514Y-117951732D01*
X147118181Y-117987060D01*
X147124593Y-117996821D01*
X147146828Y-118034417D01*
X147146833Y-118034424D01*
X147160990Y-118048580D01*
X147173628Y-118063376D01*
X147185405Y-118079586D01*
X147185406Y-118079587D01*
X147219057Y-118107425D01*
X147227698Y-118115288D01*
X148249197Y-119136788D01*
X148259022Y-119149051D01*
X148259243Y-119148869D01*
X148264211Y-119154874D01*
X148313222Y-119200899D01*
X148316021Y-119203612D01*
X148335522Y-119223114D01*
X148335526Y-119223117D01*
X148335529Y-119223120D01*
X148338702Y-119225581D01*
X148347574Y-119233159D01*
X148379418Y-119263062D01*
X148396976Y-119272714D01*
X148413233Y-119283393D01*
X148429064Y-119295673D01*
X148458803Y-119308542D01*
X148469152Y-119313021D01*
X148479641Y-119318160D01*
X148503457Y-119331252D01*
X148517908Y-119339197D01*
X148530523Y-119342435D01*
X148537305Y-119344177D01*
X148555719Y-119350481D01*
X148574104Y-119358438D01*
X148617261Y-119365273D01*
X148628656Y-119367632D01*
X148670981Y-119378500D01*
X148691016Y-119378500D01*
X148710413Y-119380026D01*
X148730196Y-119383160D01*
X148773675Y-119379050D01*
X148785344Y-119378500D01*
X154251924Y-119378500D01*
X154318963Y-119398185D01*
X154364718Y-119450989D01*
X154374662Y-119520147D01*
X154353698Y-119573338D01*
X154344647Y-119586341D01*
X154268413Y-119763987D01*
X154229500Y-119953343D01*
X154229500Y-120998207D01*
X154244154Y-121142322D01*
X154302022Y-121326759D01*
X154302029Y-121326774D01*
X154395839Y-121495788D01*
X154395842Y-121495793D01*
X154521758Y-121642466D01*
X154521759Y-121642468D01*
X154629028Y-121725500D01*
X154674627Y-121760796D01*
X154848184Y-121845930D01*
X154848188Y-121845931D01*
X154848186Y-121845931D01*
X155035317Y-121894383D01*
X155035320Y-121894383D01*
X155035326Y-121894385D01*
X155228390Y-121904176D01*
X155419474Y-121874903D01*
X155600753Y-121807764D01*
X155764807Y-121705509D01*
X155904919Y-121572323D01*
X156015353Y-121413658D01*
X156091587Y-121236012D01*
X156130500Y-121046656D01*
X156130500Y-120001794D01*
X156127775Y-119974991D01*
X156115845Y-119857677D01*
X156057977Y-119673240D01*
X156057975Y-119673237D01*
X156057974Y-119673232D01*
X155996610Y-119562675D01*
X155981288Y-119494509D01*
X156005252Y-119428877D01*
X156060894Y-119386621D01*
X156105030Y-119378500D01*
X162891924Y-119378500D01*
X162958963Y-119398185D01*
X163004718Y-119450989D01*
X163014662Y-119520147D01*
X162993698Y-119573338D01*
X162984647Y-119586341D01*
X162908413Y-119763987D01*
X162869500Y-119953343D01*
X162869500Y-120998207D01*
X162884154Y-121142322D01*
X162942022Y-121326759D01*
X162942029Y-121326774D01*
X163035839Y-121495788D01*
X163035842Y-121495793D01*
X163161758Y-121642466D01*
X163161759Y-121642468D01*
X163269028Y-121725500D01*
X163314627Y-121760796D01*
X163488184Y-121845930D01*
X163488188Y-121845931D01*
X163488186Y-121845931D01*
X163675317Y-121894383D01*
X163675320Y-121894383D01*
X163675326Y-121894385D01*
X163868390Y-121904176D01*
X164059474Y-121874903D01*
X164240753Y-121807764D01*
X164404807Y-121705509D01*
X164544919Y-121572323D01*
X164655353Y-121413658D01*
X164731587Y-121236012D01*
X164770500Y-121046656D01*
X164770500Y-120001794D01*
X164767775Y-119974991D01*
X164755845Y-119857677D01*
X164697977Y-119673240D01*
X164697975Y-119673236D01*
X164697974Y-119673232D01*
X164604159Y-119504209D01*
X164604158Y-119504208D01*
X164604157Y-119504206D01*
X164478241Y-119357533D01*
X164478240Y-119357531D01*
X164325375Y-119239205D01*
X164325371Y-119239203D01*
X164297582Y-119225572D01*
X164151816Y-119154070D01*
X164151813Y-119154069D01*
X163985820Y-119111089D01*
X163925855Y-119075229D01*
X163894797Y-119012642D01*
X163902506Y-118943199D01*
X163929218Y-118903370D01*
X165916024Y-116916564D01*
X165977345Y-116883081D01*
X166047037Y-116888065D01*
X166076589Y-116903930D01*
X166078270Y-116905151D01*
X166163569Y-116943129D01*
X166251192Y-116982142D01*
X166251197Y-116982144D01*
X166436354Y-117021500D01*
X166436355Y-117021500D01*
X166625644Y-117021500D01*
X166625646Y-117021500D01*
X166810803Y-116982144D01*
X166925064Y-116931270D01*
X166994313Y-116921986D01*
X167057590Y-116951614D01*
X167094804Y-117010748D01*
X167099500Y-117044550D01*
X167099500Y-118050001D01*
X167099501Y-118050018D01*
X167110000Y-118152796D01*
X167110001Y-118152799D01*
X167165185Y-118319331D01*
X167165187Y-118319336D01*
X167184133Y-118350052D01*
X167257288Y-118468656D01*
X167381344Y-118592712D01*
X167530666Y-118684814D01*
X167697203Y-118739999D01*
X167799991Y-118750500D01*
X168109898Y-118750499D01*
X168176935Y-118770183D01*
X168222690Y-118822987D01*
X168232634Y-118892146D01*
X168205438Y-118953541D01*
X168178372Y-118986257D01*
X168170511Y-118994896D01*
X167927226Y-119238181D01*
X167865903Y-119271666D01*
X167839545Y-119274500D01*
X167249998Y-119274500D01*
X167249980Y-119274501D01*
X167147203Y-119285000D01*
X167147200Y-119285001D01*
X166980668Y-119340185D01*
X166980663Y-119340187D01*
X166831342Y-119432289D01*
X166707289Y-119556342D01*
X166615187Y-119705663D01*
X166615185Y-119705668D01*
X166609405Y-119723112D01*
X166560001Y-119872203D01*
X166560001Y-119872204D01*
X166560000Y-119872204D01*
X166549500Y-119974983D01*
X166549500Y-121025001D01*
X166549501Y-121025019D01*
X166560000Y-121127796D01*
X166560001Y-121127799D01*
X166564814Y-121142322D01*
X166615186Y-121294334D01*
X166707288Y-121443656D01*
X166831344Y-121567712D01*
X166980666Y-121659814D01*
X167147203Y-121714999D01*
X167249991Y-121725500D01*
X167850008Y-121725499D01*
X167850016Y-121725498D01*
X167850019Y-121725498D01*
X167906302Y-121719748D01*
X167952797Y-121714999D01*
X168119334Y-121659814D01*
X168166435Y-121630761D01*
X168233827Y-121612321D01*
X168300491Y-121633243D01*
X168345260Y-121686885D01*
X168353922Y-121756216D01*
X168346678Y-121780486D01*
X168346829Y-121780535D01*
X168287709Y-121962488D01*
X168286326Y-121966744D01*
X168266540Y-122155000D01*
X168286326Y-122343256D01*
X168286327Y-122343259D01*
X168344818Y-122523277D01*
X168344821Y-122523284D01*
X168439467Y-122687216D01*
X168534741Y-122793028D01*
X168564971Y-122856019D01*
X168556346Y-122925354D01*
X168511605Y-122979020D01*
X168444952Y-122999978D01*
X168442591Y-123000000D01*
X129624000Y-123000000D01*
X129556961Y-122980315D01*
X129511206Y-122927511D01*
X129500000Y-122876000D01*
X129500000Y-99250000D01*
X146600000Y-99250000D01*
X147350000Y-99250000D01*
X147350000Y-97250000D01*
X146600001Y-97250000D01*
X146600001Y-97524986D01*
X146610494Y-97627697D01*
X146665641Y-97794119D01*
X146665643Y-97794124D01*
X146757684Y-97943345D01*
X146881655Y-98067316D01*
X146881659Y-98067319D01*
X147006726Y-98144462D01*
X147053451Y-98196410D01*
X147064672Y-98265372D01*
X147036829Y-98329454D01*
X147006726Y-98355538D01*
X146881659Y-98432680D01*
X146881655Y-98432683D01*
X146757684Y-98556654D01*
X146665643Y-98705875D01*
X146665641Y-98705880D01*
X146610494Y-98872302D01*
X146610493Y-98872309D01*
X146600000Y-98975013D01*
X146600000Y-99250000D01*
X129500000Y-99250000D01*
X129500000Y-97347600D01*
X132662540Y-97347600D01*
X132682326Y-97535856D01*
X132682327Y-97535859D01*
X132740818Y-97715877D01*
X132740821Y-97715884D01*
X132835467Y-97879816D01*
X132941766Y-97997873D01*
X132962129Y-98020488D01*
X133115265Y-98131748D01*
X133115270Y-98131751D01*
X133288192Y-98208742D01*
X133288197Y-98208744D01*
X133473354Y-98248100D01*
X133473355Y-98248100D01*
X133662644Y-98248100D01*
X133662646Y-98248100D01*
X133847803Y-98208744D01*
X133847913Y-98208694D01*
X133847983Y-98208685D01*
X133853987Y-98206735D01*
X133854343Y-98207832D01*
X133917161Y-98199405D01*
X133980440Y-98229029D01*
X133997622Y-98247659D01*
X134042455Y-98307547D01*
X134157664Y-98393793D01*
X134157671Y-98393797D01*
X134292517Y-98444091D01*
X134292516Y-98444091D01*
X134299444Y-98444835D01*
X134352127Y-98450500D01*
X136547872Y-98450499D01*
X136607483Y-98444091D01*
X136742331Y-98393796D01*
X136857546Y-98307546D01*
X136943796Y-98192331D01*
X136994091Y-98057483D01*
X137000500Y-97997873D01*
X137000500Y-97997870D01*
X142999500Y-97997870D01*
X142999501Y-97997876D01*
X143005908Y-98057483D01*
X143056202Y-98192328D01*
X143056206Y-98192335D01*
X143142452Y-98307544D01*
X143142455Y-98307547D01*
X143257664Y-98393793D01*
X143257671Y-98393797D01*
X143392517Y-98444091D01*
X143392516Y-98444091D01*
X143399444Y-98444835D01*
X143452127Y-98450500D01*
X145647872Y-98450499D01*
X145707483Y-98444091D01*
X145842331Y-98393796D01*
X145957546Y-98307546D01*
X146043796Y-98192331D01*
X146094091Y-98057483D01*
X146100500Y-97997873D01*
X146100499Y-96750000D01*
X146600000Y-96750000D01*
X147350000Y-96750000D01*
X147350000Y-95775000D01*
X147349999Y-95774999D01*
X147300029Y-95775000D01*
X147300011Y-95775001D01*
X147197302Y-95785494D01*
X147030880Y-95840641D01*
X147030875Y-95840643D01*
X146881654Y-95932684D01*
X146757684Y-96056654D01*
X146665643Y-96205875D01*
X146665641Y-96205880D01*
X146610494Y-96372302D01*
X146610493Y-96372309D01*
X146600000Y-96475013D01*
X146600000Y-96750000D01*
X146100499Y-96750000D01*
X146100499Y-96502128D01*
X146094091Y-96442517D01*
X146087782Y-96425603D01*
X146043797Y-96307671D01*
X146043793Y-96307664D01*
X145957547Y-96192455D01*
X145957544Y-96192452D01*
X145842335Y-96106206D01*
X145842328Y-96106202D01*
X145707482Y-96055908D01*
X145707483Y-96055908D01*
X145647883Y-96049501D01*
X145647881Y-96049500D01*
X145647873Y-96049500D01*
X145647864Y-96049500D01*
X143452129Y-96049500D01*
X143452123Y-96049501D01*
X143392516Y-96055908D01*
X143257671Y-96106202D01*
X143257664Y-96106206D01*
X143142455Y-96192452D01*
X143142452Y-96192455D01*
X143056206Y-96307664D01*
X143056202Y-96307671D01*
X143005908Y-96442517D01*
X142999501Y-96502116D01*
X142999501Y-96502123D01*
X142999500Y-96502135D01*
X142999500Y-97997870D01*
X137000500Y-97997870D01*
X137000499Y-96502128D01*
X136994091Y-96442517D01*
X136987782Y-96425603D01*
X136943797Y-96307671D01*
X136943793Y-96307664D01*
X136857547Y-96192455D01*
X136857544Y-96192452D01*
X136742335Y-96106206D01*
X136742328Y-96106202D01*
X136607482Y-96055908D01*
X136607483Y-96055908D01*
X136547883Y-96049501D01*
X136547881Y-96049500D01*
X136547873Y-96049500D01*
X136547864Y-96049500D01*
X134352129Y-96049500D01*
X134352123Y-96049501D01*
X134292516Y-96055908D01*
X134157671Y-96106202D01*
X134157664Y-96106206D01*
X134042455Y-96192452D01*
X134042452Y-96192455D01*
X133956206Y-96307664D01*
X133956203Y-96307669D01*
X133923824Y-96394483D01*
X133881952Y-96450416D01*
X133816488Y-96474833D01*
X133781862Y-96472440D01*
X133662646Y-96447100D01*
X133473354Y-96447100D01*
X133440897Y-96453998D01*
X133288197Y-96486455D01*
X133288192Y-96486457D01*
X133115270Y-96563448D01*
X133115265Y-96563451D01*
X132962129Y-96674711D01*
X132835466Y-96815385D01*
X132740821Y-96979315D01*
X132740818Y-96979322D01*
X132682327Y-97159340D01*
X132682326Y-97159344D01*
X132662540Y-97347600D01*
X129500000Y-97347600D01*
X129500000Y-90750000D01*
X131300000Y-90750000D01*
X132250000Y-90750000D01*
X132250000Y-89987500D01*
X132750000Y-89987500D01*
X132750000Y-90750000D01*
X133699999Y-90750000D01*
X133699999Y-90687528D01*
X133699998Y-90687516D01*
X133695224Y-90640786D01*
X133707993Y-90572093D01*
X133722487Y-90556689D01*
X133694297Y-90543815D01*
X133679457Y-90521573D01*
X133874699Y-90521573D01*
X133889839Y-90526702D01*
X133933392Y-90581336D01*
X133934764Y-90584849D01*
X133956203Y-90642330D01*
X133956206Y-90642335D01*
X134042452Y-90757544D01*
X134042455Y-90757547D01*
X134157664Y-90843793D01*
X134157671Y-90843797D01*
X134292517Y-90894091D01*
X134292516Y-90894091D01*
X134299444Y-90894835D01*
X134352127Y-90900500D01*
X136547872Y-90900499D01*
X136607483Y-90894091D01*
X136742331Y-90843796D01*
X136853059Y-90760904D01*
X136918523Y-90736487D01*
X136986796Y-90751338D01*
X137015037Y-90772476D01*
X137555164Y-91312473D01*
X137575210Y-91332514D01*
X137585015Y-91344752D01*
X137585241Y-91344566D01*
X137590213Y-91350577D01*
X137639244Y-91396620D01*
X137642029Y-91399319D01*
X137661580Y-91418865D01*
X137661584Y-91418868D01*
X137661586Y-91418870D01*
X137664722Y-91421302D01*
X137673611Y-91428893D01*
X137705415Y-91458760D01*
X137705417Y-91458761D01*
X137705418Y-91458762D01*
X137723012Y-91468434D01*
X137739263Y-91479108D01*
X137747565Y-91485546D01*
X137755129Y-91491412D01*
X137755135Y-91491414D01*
X137759713Y-91494121D01*
X137788759Y-91517891D01*
X137846141Y-91581619D01*
X137882129Y-91621588D01*
X138035265Y-91732848D01*
X138035270Y-91732851D01*
X138208192Y-91809842D01*
X138208197Y-91809844D01*
X138393354Y-91849200D01*
X138393355Y-91849200D01*
X138582644Y-91849200D01*
X138582646Y-91849200D01*
X138767803Y-91809844D01*
X138940730Y-91732851D01*
X139093871Y-91621588D01*
X139220533Y-91480916D01*
X139315179Y-91316984D01*
X139373674Y-91136956D01*
X139393460Y-90948700D01*
X139373674Y-90760444D01*
X139315179Y-90580416D01*
X139220533Y-90416484D01*
X139093871Y-90275812D01*
X139022017Y-90223607D01*
X138940734Y-90164551D01*
X138940729Y-90164548D01*
X138767807Y-90087557D01*
X138767802Y-90087555D01*
X138605901Y-90053143D01*
X138582646Y-90048200D01*
X138393354Y-90048200D01*
X138370099Y-90053143D01*
X138208198Y-90087555D01*
X138202014Y-90089565D01*
X138201402Y-90087682D01*
X138141464Y-90095710D01*
X138078191Y-90066072D01*
X138072624Y-90060840D01*
X137327788Y-89316183D01*
X137317986Y-89303950D01*
X137317761Y-89304137D01*
X137312788Y-89298127D01*
X137312786Y-89298123D01*
X137263753Y-89252077D01*
X137260969Y-89249379D01*
X137241416Y-89229831D01*
X137241413Y-89229829D01*
X137238275Y-89227395D01*
X137229384Y-89219802D01*
X137197585Y-89189940D01*
X137197580Y-89189937D01*
X137179990Y-89180267D01*
X137163737Y-89169592D01*
X137147870Y-89157287D01*
X137107823Y-89139963D01*
X137097331Y-89134825D01*
X137064759Y-89116918D01*
X137015498Y-89067375D01*
X137000499Y-89008258D01*
X137000499Y-88952129D01*
X137000498Y-88952123D01*
X137000497Y-88952116D01*
X136994091Y-88892517D01*
X136943796Y-88757669D01*
X136943795Y-88757668D01*
X136943793Y-88757664D01*
X136857547Y-88642455D01*
X136857544Y-88642452D01*
X136742335Y-88556206D01*
X136742328Y-88556202D01*
X136607482Y-88505908D01*
X136607483Y-88505908D01*
X136547883Y-88499501D01*
X136547881Y-88499500D01*
X136547873Y-88499500D01*
X136547864Y-88499500D01*
X134352129Y-88499500D01*
X134352123Y-88499501D01*
X134292516Y-88505908D01*
X134157671Y-88556202D01*
X134157664Y-88556206D01*
X134042455Y-88642452D01*
X134042452Y-88642455D01*
X133956206Y-88757664D01*
X133956202Y-88757671D01*
X133905908Y-88892517D01*
X133899501Y-88952116D01*
X133899501Y-88952123D01*
X133899500Y-88952135D01*
X133899500Y-90450102D01*
X133879815Y-90517141D01*
X133874699Y-90521573D01*
X133679457Y-90521573D01*
X133657794Y-90489105D01*
X133634359Y-90418382D01*
X133634356Y-90418375D01*
X133542315Y-90269154D01*
X133418345Y-90145184D01*
X133269124Y-90053143D01*
X133269119Y-90053141D01*
X133102697Y-89997994D01*
X133102690Y-89997993D01*
X132999986Y-89987500D01*
X132750000Y-89987500D01*
X132250000Y-89987500D01*
X132000029Y-89987500D01*
X132000012Y-89987501D01*
X131897302Y-89997994D01*
X131730880Y-90053141D01*
X131730875Y-90053143D01*
X131581654Y-90145184D01*
X131457684Y-90269154D01*
X131365643Y-90418375D01*
X131365641Y-90418380D01*
X131310494Y-90584802D01*
X131310493Y-90584809D01*
X131300000Y-90687513D01*
X131300000Y-90750000D01*
X129500000Y-90750000D01*
X129500000Y-82124000D01*
X129519685Y-82056961D01*
X129572489Y-82011206D01*
X129624000Y-82000000D01*
X136671000Y-82000000D01*
X136738039Y-82019685D01*
G37*
%TD.AperFunction*%
%TA.AperFunction,Conductor*%
G36*
X179527324Y-117676185D02*
G01*
X179573079Y-117728989D01*
X179583023Y-117798147D01*
X179577991Y-117819505D01*
X179560494Y-117872305D01*
X179560493Y-117872309D01*
X179550000Y-117975013D01*
X179550000Y-118250000D01*
X180676000Y-118250000D01*
X180743039Y-118269685D01*
X180788794Y-118322489D01*
X180800000Y-118374000D01*
X180800000Y-118837500D01*
X180780315Y-118904539D01*
X180727511Y-118950294D01*
X180676000Y-118961500D01*
X180424000Y-118961500D01*
X180356961Y-118941815D01*
X180311206Y-118889011D01*
X180300000Y-118837500D01*
X180300000Y-118750000D01*
X179550001Y-118750000D01*
X179550001Y-118837500D01*
X179530316Y-118904539D01*
X179477512Y-118950294D01*
X179426001Y-118961500D01*
X177944960Y-118961500D01*
X177877921Y-118941815D01*
X177832166Y-118889011D01*
X177822222Y-118819853D01*
X177827027Y-118799187D01*
X177852674Y-118720256D01*
X177872460Y-118532000D01*
X177852674Y-118343744D01*
X177794179Y-118163716D01*
X177699533Y-117999784D01*
X177576797Y-117863472D01*
X177546567Y-117800481D01*
X177555192Y-117731145D01*
X177599934Y-117677480D01*
X177666586Y-117656522D01*
X177668947Y-117656500D01*
X179460285Y-117656500D01*
X179527324Y-117676185D01*
G37*
%TD.AperFunction*%
%TA.AperFunction,Conductor*%
G36*
X175102385Y-111984696D02*
G01*
X175103989Y-111985001D01*
X175110412Y-111986227D01*
X175110413Y-111986226D01*
X175110414Y-111986227D01*
X175165759Y-111982745D01*
X175173545Y-111982500D01*
X175511548Y-111982500D01*
X175578587Y-112002185D01*
X175599229Y-112018819D01*
X176615330Y-113034920D01*
X176648815Y-113096243D01*
X176643831Y-113165935D01*
X176601959Y-113221868D01*
X176562245Y-113241677D01*
X176539604Y-113248254D01*
X176539603Y-113248255D01*
X176398137Y-113331917D01*
X176398129Y-113331923D01*
X176281923Y-113448129D01*
X176281917Y-113448137D01*
X176198255Y-113589603D01*
X176198254Y-113589606D01*
X176152402Y-113747426D01*
X176152401Y-113747432D01*
X176149500Y-113784298D01*
X176149500Y-114867500D01*
X176129815Y-114934539D01*
X176077011Y-114980294D01*
X176025500Y-114991500D01*
X175974000Y-114991500D01*
X175906961Y-114971815D01*
X175861206Y-114919011D01*
X175850000Y-114867500D01*
X175850000Y-114612500D01*
X174250000Y-114612500D01*
X174250000Y-114654047D01*
X174230315Y-114721086D01*
X174177511Y-114766841D01*
X174108353Y-114776785D01*
X174044797Y-114747760D01*
X174038319Y-114741728D01*
X173409091Y-114112500D01*
X174250000Y-114112500D01*
X174800000Y-114112500D01*
X174800000Y-113202703D01*
X175300000Y-113202703D01*
X175300000Y-114112500D01*
X175850000Y-114112500D01*
X175850000Y-113784365D01*
X175849999Y-113784350D01*
X175847100Y-113747510D01*
X175847099Y-113747504D01*
X175801283Y-113589806D01*
X175801282Y-113589803D01*
X175717685Y-113448447D01*
X175717678Y-113448438D01*
X175601561Y-113332321D01*
X175601552Y-113332314D01*
X175460196Y-113248717D01*
X175460193Y-113248716D01*
X175302494Y-113202900D01*
X175302497Y-113202900D01*
X175300000Y-113202703D01*
X174800000Y-113202703D01*
X174797503Y-113202900D01*
X174639806Y-113248716D01*
X174639803Y-113248717D01*
X174498447Y-113332314D01*
X174498438Y-113332321D01*
X174382321Y-113448438D01*
X174382314Y-113448447D01*
X174298717Y-113589803D01*
X174298716Y-113589806D01*
X174252900Y-113747504D01*
X174252899Y-113747510D01*
X174250000Y-113784350D01*
X174250000Y-114112500D01*
X173409091Y-114112500D01*
X171912803Y-112616212D01*
X171902980Y-112603950D01*
X171902759Y-112604134D01*
X171897786Y-112598122D01*
X171848776Y-112552099D01*
X171845977Y-112549386D01*
X171826477Y-112529885D01*
X171824033Y-112527989D01*
X171823286Y-112527409D01*
X171814434Y-112519848D01*
X171782582Y-112489938D01*
X171782580Y-112489936D01*
X171782577Y-112489935D01*
X171765029Y-112480288D01*
X171748763Y-112469604D01*
X171732932Y-112457324D01*
X171692849Y-112439978D01*
X171682363Y-112434841D01*
X171644094Y-112413803D01*
X171644092Y-112413802D01*
X171624693Y-112408822D01*
X171606281Y-112402518D01*
X171587898Y-112394562D01*
X171587892Y-112394560D01*
X171544760Y-112387729D01*
X171533322Y-112385361D01*
X171491020Y-112374500D01*
X171491019Y-112374500D01*
X171470984Y-112374500D01*
X171451586Y-112372973D01*
X171444162Y-112371797D01*
X171431805Y-112369840D01*
X171431804Y-112369840D01*
X171388325Y-112373950D01*
X171376656Y-112374500D01*
X170024499Y-112374500D01*
X169957460Y-112354815D01*
X169911705Y-112302011D01*
X169900499Y-112250500D01*
X169900499Y-112106500D01*
X169920184Y-112039461D01*
X169972988Y-111993706D01*
X170024499Y-111982500D01*
X175070981Y-111982500D01*
X175079153Y-111982500D01*
X175102385Y-111984696D01*
G37*
%TD.AperFunction*%
%TD*%
M02*
